<svg xmlns="http://www.w3.org/2000/svg" xmlns:xlink="http://www.w3.org/1999/xlink" width="500" zoomAndPan="magnify" viewBox="0 0 375 374.999991" height="500" preserveAspectRatio="xMidYMid meet" version="1.0"><defs><clipPath id="id1"><path d="M 90.304688 90.304688 L 284.554688 90.304688 L 284.554688 284.554688 L 90.304688 284.554688 Z M 90.304688 90.304688 " clip-rule="nonzero"/></clipPath></defs><path fill="#123979" d="M 73.332031 91.964844 C 73.246094 91.964844 73.15625 91.933594 73.085938 91.875 C 72.925781 91.738281 72.902344 91.496094 73.039062 91.335938 C 80.59375 82.359375 121.371094 37.925781 187.527344 37.925781 C 188.09375 37.925781 188.652344 37.929688 189.222656 37.9375 C 217.460938 38.261719 244.175781 46.484375 268.632812 62.382812 C 286.53125 74.015625 297.914062 86.507812 301.980469 91.335938 C 302.113281 91.496094 302.09375 91.738281 301.933594 91.875 C 301.773438 92.007812 301.53125 91.992188 301.394531 91.828125 C 297.351562 87.023438 286.027344 74.601562 268.214844 63.023438 C 243.882812 47.207031 217.304688 39.023438 189.214844 38.703125 C 122.417969 37.960938 81.203125 82.824219 73.625 91.828125 C 73.546875 91.917969 73.441406 91.964844 73.332031 91.964844 Z M 73.332031 91.964844 " fill-opacity="1" fill-rule="nonzero"/><path fill="#737373" d="M 187.492188 337.089844 C 186.925781 337.089844 186.367188 337.089844 185.796875 337.082031 C 157.558594 336.757812 130.84375 328.535156 106.386719 312.636719 C 88.488281 301.003906 77.105469 288.511719 73.039062 283.683594 C 72.902344 283.519531 72.925781 283.28125 73.085938 283.144531 C 73.25 283.007812 73.488281 283.027344 73.625 283.191406 C 77.667969 287.996094 88.988281 300.417969 106.800781 311.996094 C 131.136719 327.8125 157.714844 335.996094 185.804688 336.316406 C 186.367188 336.324219 186.933594 336.328125 187.492188 336.328125 C 253.316406 336.328125 293.878906 292.121094 301.394531 283.191406 C 301.53125 283.027344 301.769531 283.007812 301.933594 283.144531 C 302.09375 283.28125 302.113281 283.519531 301.980469 283.683594 C 294.425781 292.65625 253.648438 337.089844 187.492188 337.089844 Z M 187.492188 337.089844 " fill-opacity="1" fill-rule="nonzero"/><path fill="#123979" d="M 187.507812 375.019531 C 137.425781 375.019531 90.335938 355.515625 54.921875 320.097656 C 19.503906 284.683594 0 237.59375 0 187.507812 C 0 137.425781 19.503906 90.335938 54.921875 54.921875 C 90.335938 19.503906 137.425781 0 187.507812 0 C 237.59375 0 284.683594 19.503906 320.097656 54.921875 C 355.515625 90.335938 375.019531 137.425781 375.019531 187.507812 C 375.019531 237.59375 355.515625 284.683594 320.097656 320.097656 C 284.683594 355.515625 237.59375 375.019531 187.507812 375.019531 Z M 187.507812 1.527344 C 137.832031 1.527344 91.128906 20.875 56 56 C 20.875 91.128906 1.527344 137.832031 1.527344 187.507812 C 1.527344 237.1875 20.875 283.890625 56 319.019531 C 91.128906 354.144531 137.832031 373.492188 187.507812 373.492188 C 237.1875 373.492188 283.890625 354.144531 319.019531 319.019531 C 354.144531 283.890625 373.492188 237.1875 373.492188 187.507812 C 373.492188 137.832031 354.144531 91.128906 319.019531 56 C 283.890625 20.875 237.1875 1.527344 187.507812 1.527344 Z M 187.507812 1.527344 " fill-opacity="1" fill-rule="nonzero"/><g clip-path="url(#id1)"><path fill="#123979" d="M 251.664062 161.871094 L 284.554688 161.871094 L 284.554688 119.976562 L 257.21875 119.976562 L 257.21875 118.976562 C 257.105469 117.308594 255.996094 114.199219 252.441406 114.199219 C 248.882812 114.199219 247.660156 117.308594 247.550781 119.085938 L 247.550781 119.976562 L 247.21875 119.976562 L 247.21875 114.085938 C 247.21875 109.976562 244.882812 107.417969 241.105469 107.417969 C 237.328125 107.417969 235.992188 111.53125 235.882812 113.976562 L 235.882812 119.976562 L 235.546875 119.976562 L 235.546875 109.753906 C 235.214844 107.976562 233.660156 104.640625 229.546875 104.640625 C 225.4375 104.640625 224.214844 108.195312 224.101562 110.085938 L 224.101562 113.421875 C 223.769531 111.085938 222.214844 108.863281 218.769531 108.863281 C 214.988281 108.863281 213.988281 112.53125 213.988281 114.421875 L 213.988281 119.976562 L 180.429688 119.976562 C 179.207031 119.976562 178.207031 120.976562 178.207031 122.199219 L 178.207031 124.644531 C 173.539062 124.53125 165.761719 124.308594 163.871094 123.644531 C 163.425781 123.53125 163.09375 123.308594 162.648438 123.199219 L 162.648438 90.304688 L 120.644531 90.304688 L 120.644531 117.644531 L 119.644531 117.644531 C 117.976562 117.753906 114.863281 118.867188 114.863281 122.421875 C 114.863281 125.976562 117.976562 127.199219 119.753906 127.3125 L 120.644531 127.3125 L 120.644531 127.644531 L 114.753906 127.644531 C 110.640625 127.644531 108.085938 129.976562 108.085938 133.757812 C 108.085938 137.535156 112.199219 138.867188 114.640625 138.980469 L 120.644531 138.980469 L 120.644531 139.3125 L 110.308594 139.3125 C 108.53125 139.644531 105.195312 141.203125 105.195312 145.3125 C 105.195312 149.425781 108.753906 150.648438 110.640625 150.757812 L 113.976562 150.757812 C 111.640625 151.09375 109.417969 152.648438 109.417969 156.09375 C 109.417969 159.871094 113.085938 160.871094 114.976562 160.871094 L 120.53125 160.871094 L 120.53125 194.320312 C 120.53125 195.542969 121.53125 196.542969 122.753906 196.542969 L 124.53125 196.542969 C 124.53125 200.878906 124.199219 209.878906 123.53125 211.988281 C 123.421875 212.433594 123.199219 212.769531 123.089844 213.210938 L 90.304688 213.210938 L 90.304688 255.105469 L 117.644531 255.105469 L 117.644531 256.105469 C 117.753906 257.773438 118.867188 260.886719 122.421875 260.886719 C 125.976562 260.886719 127.199219 257.773438 127.3125 255.996094 L 127.3125 255.105469 L 127.644531 255.105469 L 127.644531 260.996094 C 127.644531 265.109375 129.976562 267.664062 133.757812 267.664062 C 137.535156 267.664062 138.867188 263.550781 138.980469 261.109375 L 138.980469 255.105469 L 139.3125 255.105469 L 139.3125 265.332031 C 139.644531 267.109375 141.203125 270.441406 145.3125 270.441406 C 149.425781 270.441406 150.648438 266.886719 150.757812 264.996094 L 150.757812 261.664062 C 151.09375 263.996094 152.648438 266.21875 156.09375 266.21875 C 159.871094 266.21875 160.871094 262.550781 160.871094 260.664062 L 160.871094 255.105469 L 194.320312 255.105469 C 195.542969 255.105469 196.542969 254.105469 196.542969 252.882812 L 196.542969 250.21875 C 200.988281 250.21875 209.878906 250.550781 211.988281 251.21875 C 212.433594 251.328125 212.769531 251.550781 213.210938 251.660156 L 213.210938 284.554688 L 255.21875 284.554688 L 255.21875 257.21875 L 256.21875 257.21875 C 257.886719 257.105469 260.996094 255.996094 260.996094 252.441406 C 260.996094 248.882812 257.886719 247.660156 256.105469 247.550781 L 255.21875 247.550781 L 255.21875 247.21875 L 261.109375 247.21875 C 265.21875 247.21875 267.777344 244.882812 267.777344 241.105469 C 267.777344 237.328125 263.664062 235.992188 261.21875 235.882812 L 255.21875 235.882812 L 255.21875 235.546875 L 265.441406 235.546875 C 267.21875 235.214844 270.554688 233.660156 270.554688 229.546875 C 270.554688 225.4375 266.996094 224.214844 265.109375 224.101562 L 261.773438 224.101562 C 264.109375 223.769531 266.332031 222.214844 266.332031 218.769531 C 266.332031 214.988281 262.664062 213.988281 260.773438 213.988281 L 255.21875 213.988281 L 255.21875 180.652344 C 255.21875 179.429688 254.21875 178.429688 252.996094 178.429688 L 250.21875 178.429688 C 250.21875 173.984375 250.550781 165.207031 251.21875 163.09375 C 251.328125 162.648438 251.441406 162.316406 251.664062 161.871094 Z M 187.429688 124.976562 C 189.320312 124.976562 190.875 126.53125 190.875 128.421875 C 190.875 130.3125 189.320312 131.867188 187.429688 131.867188 C 185.542969 131.867188 183.984375 130.3125 183.984375 128.421875 C 183.984375 126.53125 185.542969 124.976562 187.429688 124.976562 Z M 120.644531 158.761719 L 115.085938 158.761719 C 114.753906 158.761719 111.753906 158.648438 111.753906 156.09375 C 111.753906 153.316406 113.863281 152.871094 115.085938 152.871094 L 130.757812 152.871094 C 131.976562 152.871094 132.976562 151.871094 132.976562 150.648438 C 132.976562 149.425781 131.976562 148.425781 130.757812 148.425781 L 110.753906 148.425781 C 110.417969 148.425781 107.53125 148.203125 107.53125 145.203125 C 107.53125 142.089844 110.417969 141.535156 110.53125 141.425781 L 131.421875 141.425781 C 132.644531 141.425781 133.644531 140.425781 133.644531 139.203125 L 133.644531 138.757812 C 133.644531 137.535156 132.644531 136.535156 131.421875 136.535156 L 114.753906 136.535156 C 114.753906 136.535156 110.308594 136.089844 110.308594 133.535156 C 110.308594 130.3125 112.753906 129.644531 114.753906 129.644531 L 131.644531 129.644531 C 132.867188 129.644531 133.867188 128.644531 133.867188 127.421875 L 133.867188 126.976562 C 133.867188 125.753906 132.867188 124.753906 131.644531 124.753906 L 119.867188 124.753906 C 119.53125 124.753906 117.085938 124.421875 117.085938 122.089844 C 117.085938 119.753906 119.308594 119.53125 119.644531 119.53125 L 147.980469 119.53125 C 147.980469 119.53125 152.425781 120.085938 154.871094 121.421875 L 156.203125 122.199219 C 158.203125 123.421875 160.203125 124.421875 162.539062 125.3125 C 162.761719 125.421875 162.871094 125.421875 163.09375 125.53125 C 165.539062 126.3125 174.09375 126.53125 178.207031 126.644531 L 178.207031 155.757812 L 171.429688 155.757812 C 171.316406 155.757812 167.429688 155.757812 163.871094 158.425781 C 163.425781 158.761719 162.984375 159.09375 162.539062 159.425781 C 160.761719 160.871094 158.761719 162.539062 157.203125 163.871094 C 156.09375 164.871094 155.09375 165.648438 154.757812 165.871094 C 154.539062 165.984375 154.316406 166.207031 154.09375 166.425781 C 153.09375 167.316406 151.425781 168.648438 148.757812 168.761719 C 145.089844 168.871094 135.421875 168.761719 135.3125 168.761719 C 133.644531 168.761719 129.976562 168.207031 129.976562 166.761719 C 129.976562 165.09375 132.3125 164.539062 134.535156 164.09375 C 134.757812 164.09375 134.980469 163.984375 135.199219 163.984375 C 135.535156 163.871094 136.757812 163.871094 137.867188 163.761719 C 141.757812 163.539062 144.980469 163.203125 146.425781 162.425781 C 148.535156 161.425781 149.648438 160.539062 149.757812 160.425781 L 152.425781 158.425781 L 120.644531 158.425781 Z M 131.757812 187.542969 C 131.757812 189.429688 130.199219 190.988281 128.3125 190.988281 C 126.421875 190.988281 124.867188 189.429688 124.867188 187.542969 C 124.867188 185.652344 126.421875 184.097656 128.3125 184.097656 C 130.199219 184.097656 131.757812 185.652344 131.757812 187.542969 Z M 169.09375 240.550781 C 169.09375 242.214844 168.539062 245.882812 167.09375 245.882812 C 165.425781 245.882812 164.871094 243.550781 164.425781 241.328125 C 164.425781 241.105469 164.316406 240.882812 164.316406 240.660156 C 164.207031 240.328125 164.207031 239.105469 164.09375 237.992188 C 163.871094 234.105469 163.539062 230.882812 162.761719 229.4375 C 161.761719 227.324219 160.871094 226.214844 160.761719 226.101562 L 158.761719 223.4375 L 158.761719 260.773438 C 158.761719 261.109375 158.648438 264.109375 156.09375 264.109375 C 153.316406 264.109375 152.871094 261.996094 152.871094 260.773438 L 152.871094 245.105469 C 152.871094 243.882812 151.871094 242.882812 150.648438 242.882812 C 149.425781 242.882812 148.425781 243.882812 148.425781 245.105469 L 148.425781 265.109375 C 148.425781 265.441406 148.203125 268.332031 145.203125 268.332031 C 142.089844 268.332031 141.535156 265.441406 141.425781 265.332031 L 141.425781 244.4375 C 141.425781 243.214844 140.425781 242.214844 139.203125 242.214844 L 138.757812 242.214844 C 137.535156 242.214844 136.535156 243.214844 136.535156 244.4375 L 136.535156 261.109375 C 136.535156 261.109375 136.089844 265.554688 133.535156 265.554688 C 130.3125 265.554688 129.644531 263.109375 129.644531 261.109375 L 129.644531 244.214844 C 129.644531 242.996094 128.644531 241.992188 127.421875 241.992188 L 126.976562 241.992188 C 125.753906 241.992188 124.753906 242.996094 124.753906 244.214844 L 124.753906 255.996094 C 124.753906 256.328125 124.421875 258.773438 122.089844 258.773438 C 119.753906 258.773438 119.53125 256.550781 119.53125 256.21875 L 119.53125 227.882812 C 119.53125 227.882812 120.085938 223.4375 121.421875 220.992188 L 122.199219 219.65625 C 123.421875 217.65625 124.421875 215.65625 125.3125 213.324219 C 125.421875 213.101562 125.421875 212.988281 125.53125 212.769531 C 126.421875 210.101562 126.53125 200.210938 126.644531 196.652344 L 155.757812 196.652344 L 155.757812 204.433594 C 155.757812 204.542969 155.757812 208.433594 158.425781 211.988281 C 158.761719 212.433594 159.09375 212.878906 159.425781 213.324219 C 160.871094 215.101562 162.539062 217.101562 163.871094 218.65625 C 164.871094 219.769531 165.648438 220.769531 165.871094 221.101562 C 165.984375 221.324219 166.207031 221.546875 166.425781 221.769531 C 167.316406 222.769531 168.648438 224.4375 168.761719 227.101562 C 169.207031 230.769531 169.09375 240.4375 169.09375 240.550781 Z M 187.429688 250.105469 C 185.542969 250.105469 183.984375 248.550781 183.984375 246.660156 C 183.984375 244.773438 185.542969 243.214844 187.429688 243.214844 C 189.320312 243.214844 190.875 244.773438 190.875 246.660156 C 190.875 248.550781 189.320312 250.105469 187.429688 250.105469 Z M 162.539062 213.324219 C 161.761719 212.433594 160.984375 211.433594 160.425781 210.65625 C 158.203125 207.765625 158.203125 204.433594 158.203125 204.433594 L 158.203125 196.652344 L 160.316406 196.652344 C 161.539062 196.652344 162.539062 195.652344 162.539062 194.433594 L 162.539062 162.539062 C 163.425781 161.761719 164.425781 160.984375 165.207031 160.425781 C 168.09375 158.203125 171.429688 158.203125 171.429688 158.203125 L 178.207031 158.203125 L 178.207031 159.648438 C 178.207031 160.871094 179.207031 161.871094 180.429688 161.871094 L 212.324219 161.871094 C 213.101562 162.761719 213.878906 163.761719 214.433594 164.539062 C 216.65625 167.429688 216.65625 170.761719 216.65625 170.761719 L 216.65625 178.429688 L 215.546875 178.429688 C 214.324219 178.429688 213.324219 179.429688 213.324219 180.652344 L 213.324219 212.546875 C 212.433594 213.324219 211.433594 214.101562 210.65625 214.65625 C 207.765625 216.878906 204.433594 216.878906 204.433594 216.878906 L 196.652344 216.878906 L 196.652344 215.546875 C 196.652344 214.324219 195.652344 213.324219 194.433594 213.324219 Z M 255.21875 216.324219 L 260.773438 216.324219 C 261.109375 216.324219 264.109375 216.433594 264.109375 218.992188 C 264.109375 221.769531 261.996094 222.214844 260.773438 222.214844 L 245.105469 222.214844 C 243.882812 222.214844 242.882812 223.214844 242.882812 224.4375 C 242.882812 225.660156 243.882812 226.660156 245.105469 226.660156 L 264.996094 226.660156 C 265.332031 226.660156 268.21875 226.878906 268.21875 229.882812 C 268.21875 232.992188 265.332031 233.546875 265.21875 233.660156 L 244.4375 233.660156 C 243.214844 233.660156 242.214844 234.660156 242.214844 235.882812 L 242.214844 236.328125 C 242.214844 237.550781 243.214844 238.550781 244.4375 238.550781 L 261.109375 238.550781 C 261.109375 238.550781 265.554688 238.992188 265.554688 241.550781 C 265.554688 244.773438 263.109375 245.4375 261.109375 245.4375 L 244.214844 245.4375 C 242.996094 245.4375 241.992188 246.4375 241.992188 247.660156 L 241.992188 248.105469 C 241.992188 249.328125 242.996094 250.328125 244.214844 250.328125 L 255.996094 250.328125 C 256.328125 250.328125 258.773438 250.660156 258.773438 252.996094 C 258.773438 255.328125 256.550781 255.550781 256.21875 255.550781 L 227.882812 255.550781 C 227.882812 255.550781 223.4375 254.996094 220.992188 253.664062 L 219.65625 252.882812 C 217.65625 251.660156 215.65625 250.660156 213.324219 249.773438 C 213.101562 249.660156 212.988281 249.660156 212.769531 249.550781 C 210.101562 248.660156 200.210938 248.550781 196.652344 248.4375 L 196.652344 219.324219 L 204.433594 219.324219 C 204.542969 219.324219 208.433594 219.324219 211.988281 216.65625 C 212.433594 216.324219 212.878906 215.992188 213.324219 215.65625 C 215.101562 214.210938 217.101562 212.546875 218.65625 211.210938 C 219.769531 210.210938 220.769531 209.433594 221.101562 209.210938 C 221.324219 209.101562 221.546875 208.878906 221.769531 208.65625 C 222.769531 207.765625 224.4375 206.433594 227.101562 206.320312 C 230.769531 206.210938 240.4375 206.320312 240.550781 206.320312 C 242.214844 206.320312 245.882812 206.878906 245.882812 208.324219 C 245.882812 209.988281 243.550781 210.546875 241.328125 210.988281 C 241.105469 210.988281 240.882812 211.101562 240.660156 211.101562 C 240.328125 211.210938 239.105469 211.210938 237.992188 211.324219 C 234.105469 211.546875 230.882812 211.878906 229.4375 212.65625 C 227.324219 213.65625 226.214844 214.546875 226.101562 214.65625 L 223.4375 216.65625 L 255.21875 216.65625 Z M 243.105469 187.542969 C 243.105469 185.652344 244.660156 184.097656 246.550781 184.097656 C 248.441406 184.097656 249.996094 185.652344 249.996094 187.542969 C 249.996094 189.429688 248.441406 190.988281 246.550781 190.988281 C 244.660156 190.988281 243.105469 189.429688 243.105469 187.542969 Z M 249.21875 161.871094 C 249.105469 162.09375 249.105469 162.203125 248.996094 162.425781 C 248.105469 165.09375 247.996094 174.875 247.882812 178.429688 L 218.769531 178.429688 L 218.769531 170.761719 C 218.769531 170.652344 218.769531 166.761719 216.101562 163.203125 C 215.769531 162.761719 215.433594 162.316406 215.101562 161.871094 C 213.65625 160.09375 211.988281 158.09375 210.65625 156.539062 C 209.65625 155.425781 208.878906 154.425781 208.65625 154.09375 C 208.542969 153.871094 208.324219 153.648438 208.101562 153.425781 C 207.210938 152.425781 205.878906 150.757812 205.765625 148.089844 C 205.65625 144.425781 205.765625 134.757812 205.765625 134.644531 C 205.765625 132.976562 206.324219 129.3125 207.765625 129.3125 C 209.433594 129.3125 209.988281 131.644531 210.433594 133.867188 C 210.433594 134.089844 210.546875 134.3125 210.546875 134.535156 C 210.65625 134.867188 210.65625 136.089844 210.765625 137.203125 C 210.988281 141.089844 211.324219 144.3125 212.101562 145.757812 C 213.101562 147.871094 213.988281 148.980469 214.101562 149.09375 L 216.101562 151.757812 L 216.101562 114.421875 C 216.101562 114.085938 216.210938 111.085938 218.769531 111.085938 C 221.546875 111.085938 221.992188 113.199219 221.992188 114.421875 L 221.992188 130.089844 C 221.992188 131.3125 222.992188 132.3125 224.214844 132.3125 C 225.4375 132.3125 226.4375 131.3125 226.4375 130.089844 L 226.4375 110.085938 C 226.4375 109.753906 226.660156 106.863281 229.660156 106.863281 C 232.769531 106.863281 233.328125 109.753906 233.4375 109.863281 L 233.4375 130.644531 C 233.4375 131.867188 234.4375 132.867188 235.660156 132.867188 L 236.105469 132.867188 C 237.328125 132.867188 238.328125 131.867188 238.328125 130.644531 L 238.328125 113.976562 C 238.328125 113.976562 238.769531 109.53125 241.328125 109.53125 C 244.550781 109.53125 245.214844 111.976562 245.214844 113.976562 L 245.214844 130.867188 C 245.214844 132.089844 246.21875 133.089844 247.4375 133.089844 L 247.882812 133.089844 C 249.105469 133.089844 250.105469 132.089844 250.105469 130.867188 L 250.105469 119.085938 C 250.105469 118.753906 250.441406 116.308594 252.773438 116.308594 C 255.105469 116.308594 255.328125 118.53125 255.328125 118.867188 L 255.328125 147.203125 C 255.328125 147.203125 254.773438 151.648438 253.441406 154.09375 L 252.664062 155.425781 C 251.21875 157.539062 250.105469 159.539062 249.21875 161.871094 Z M 249.21875 161.871094 " fill-opacity="1" fill-rule="nonzero"/></g></svg>