<svg xmlns="http://www.w3.org/2000/svg" xmlns:xlink="http://www.w3.org/1999/xlink" width="500" zoomAndPan="magnify" viewBox="0 0 375 374.999991" height="500" preserveAspectRatio="xMidYMid meet" version="1.0"><defs><clipPath id="id1"><path d="M 277 155 L 339.75 155 L 339.75 235 L 277 235 Z M 277 155 " clip-rule="nonzero"/></clipPath><clipPath id="id2"><path d="M 198 159 L 293 159 L 293 283.160156 L 198 283.160156 Z M 198 159 " clip-rule="nonzero"/></clipPath><clipPath id="id3"><path d="M 256 91.910156 L 320 91.910156 L 320 146 L 256 146 Z M 256 91.910156 " clip-rule="nonzero"/></clipPath><clipPath id="id4"><path d="M 144 232 L 198 232 L 198 283.160156 L 144 283.160156 Z M 144 232 " clip-rule="nonzero"/></clipPath><clipPath id="id5"><path d="M 37.5 166 L 89 166 L 89 178 L 37.5 178 Z M 37.5 166 " clip-rule="nonzero"/></clipPath></defs><path fill="#ffedec" d="M 187.5 0 C 83.945312 0 0 83.945312 0 187.5 C 0 291.054688 83.945312 375 187.5 375 C 291.054688 375 375 291.054688 375 187.5 C 375 83.945312 291.054688 0 187.5 0 " fill-opacity="1" fill-rule="nonzero"/><path fill="#b3404a" d="M 338.097656 173.265625 C 338.097656 163.886719 330.492188 156.28125 321.113281 156.28125 C 311.738281 156.28125 304.132812 163.886719 304.132812 173.265625 C 304.132812 181.0625 309.378906 187.621094 316.523438 189.625 C 313.175781 208.625 297.707031 223.433594 278.386719 225.789062 L 278.386719 233.667969 C 301.925781 231.242188 320.800781 213.117188 324.394531 189.9375 C 332.203125 188.410156 338.097656 181.527344 338.097656 173.265625 " fill-opacity="1" fill-rule="nonzero"/><g clip-path="url(#id1)"><path fill="#b3404a" d="M 338.097656 173.265625 L 339.300781 173.265625 C 339.300781 163.222656 331.160156 155.078125 321.113281 155.078125 C 311.074219 155.078125 302.929688 163.222656 302.929688 173.265625 C 302.929688 181.613281 308.542969 188.636719 316.195312 190.785156 L 316.523438 189.625 L 315.339844 189.417969 C 312.085938 207.890625 297.03125 222.304688 278.242188 224.589844 C 277.640625 224.667969 277.183594 225.179688 277.183594 225.789062 L 277.183594 233.667969 C 277.183594 234.011719 277.332031 234.335938 277.582031 234.5625 C 277.835938 234.789062 278.171875 234.902344 278.511719 234.867188 C 302.597656 232.382812 321.902344 213.84375 325.582031 190.125 L 324.394531 189.9375 L 324.625 191.121094 C 332.992188 189.480469 339.296875 182.113281 339.300781 173.265625 L 336.894531 173.265625 C 336.898438 180.941406 331.417969 187.335938 324.164062 188.757812 C 323.667969 188.855469 323.28125 189.253906 323.207031 189.753906 C 319.695312 212.394531 301.253906 230.105469 278.265625 232.472656 L 278.386719 233.667969 L 279.589844 233.667969 L 279.589844 225.789062 L 278.386719 225.789062 L 278.535156 226.980469 C 298.382812 224.5625 314.265625 209.355469 317.707031 189.835938 C 317.8125 189.226562 317.441406 188.636719 316.847656 188.46875 C 310.210938 186.605469 305.335938 180.507812 305.335938 173.265625 C 305.335938 168.90625 307.101562 164.964844 309.957031 162.105469 C 312.816406 159.246094 316.753906 157.484375 321.113281 157.484375 C 325.476562 157.484375 329.414062 159.246094 332.273438 162.105469 C 335.132812 164.964844 336.894531 168.90625 336.894531 173.265625 L 338.097656 173.265625 " fill-opacity="1" fill-rule="nonzero"/></g><path fill="#ffffff" d="M 290.921875 274.308594 C 290.921875 278.527344 287.5 281.949219 283.28125 281.949219 L 206.910156 281.949219 C 202.695312 281.949219 199.269531 278.527344 199.269531 274.308594 L 199.269531 168.511719 C 199.269531 164.285156 202.695312 160.863281 206.910156 160.863281 L 283.28125 160.863281 C 287.5 160.863281 290.921875 164.285156 290.921875 168.511719 L 290.921875 274.308594 " fill-opacity="1" fill-rule="nonzero"/><g clip-path="url(#id2)"><path fill="#b3404a" d="M 290.921875 274.308594 L 289.71875 274.308594 C 289.71875 276.089844 289 277.691406 287.832031 278.859375 C 286.664062 280.027344 285.066406 280.746094 283.28125 280.746094 L 206.910156 280.746094 C 205.128906 280.746094 203.527344 280.027344 202.359375 278.859375 C 201.191406 277.691406 200.472656 276.089844 200.472656 274.308594 L 200.472656 168.511719 C 200.472656 166.722656 201.191406 165.121094 202.359375 163.953125 C 203.527344 162.785156 205.128906 162.066406 206.910156 162.066406 L 283.28125 162.066406 C 285.066406 162.066406 286.664062 162.785156 287.832031 163.953125 C 289 165.121094 289.71875 166.722656 289.71875 168.511719 L 289.71875 274.308594 L 292.125 274.308594 L 292.125 168.511719 C 292.125 163.621094 288.164062 159.660156 283.28125 159.660156 L 206.910156 159.660156 C 202.027344 159.660156 198.066406 163.621094 198.066406 168.511719 L 198.066406 274.308594 C 198.066406 279.195312 202.027344 283.152344 206.910156 283.152344 L 283.28125 283.152344 C 288.164062 283.152344 292.125 279.191406 292.125 274.308594 L 290.921875 274.308594 " fill-opacity="1" fill-rule="nonzero"/></g><path fill="#ffffff" d="M 297.121094 173.265625 C 297.121094 202.015625 273.828125 225.316406 245.097656 225.316406 C 216.363281 225.316406 193.070312 202.015625 193.070312 173.265625 C 193.070312 144.523438 216.363281 121.21875 245.097656 121.21875 C 273.828125 121.21875 297.121094 144.523438 297.121094 173.265625 " fill-opacity="1" fill-rule="nonzero"/><path fill="#b3404a" d="M 297.121094 173.265625 L 295.917969 173.265625 C 295.917969 187.3125 290.234375 200.015625 281.035156 209.222656 C 271.832031 218.425781 259.136719 224.113281 245.097656 224.113281 C 231.058594 224.113281 218.359375 218.425781 209.160156 209.222656 C 199.960938 200.015625 194.273438 187.3125 194.273438 173.265625 C 194.273438 159.226562 199.960938 146.519531 209.160156 137.316406 C 218.363281 128.109375 231.058594 122.421875 245.097656 122.421875 C 259.136719 122.421875 271.832031 128.109375 281.035156 137.316406 C 290.234375 146.519531 295.917969 159.226562 295.917969 173.265625 L 298.324219 173.265625 C 298.324219 143.859375 274.496094 120.015625 245.097656 120.015625 C 215.699219 120.015625 191.867188 143.859375 191.863281 173.265625 C 191.867188 202.679688 215.699219 226.519531 245.097656 226.519531 C 274.496094 226.519531 298.324219 202.679688 298.324219 173.265625 L 297.121094 173.265625 " fill-opacity="1" fill-rule="nonzero"/><path fill="#b3404a" d="M 262.078125 173.265625 C 262.078125 182.652344 254.476562 190.257812 245.097656 190.257812 C 235.71875 190.257812 228.117188 182.652344 228.117188 173.265625 C 228.117188 163.886719 235.71875 156.28125 245.097656 156.28125 C 254.476562 156.28125 262.078125 163.886719 262.078125 173.265625 " fill-opacity="1" fill-rule="nonzero"/><path fill="#b3404a" d="M 262.078125 173.265625 L 260.875 173.265625 C 260.875 177.632812 259.113281 181.570312 256.253906 184.433594 C 253.394531 187.289062 249.460938 189.054688 245.097656 189.054688 C 240.734375 189.054688 236.796875 187.289062 233.9375 184.433594 C 231.082031 181.570312 229.320312 177.632812 229.320312 173.265625 C 229.320312 168.90625 231.082031 164.964844 233.9375 162.105469 C 236.796875 159.246094 240.734375 157.484375 245.097656 157.484375 C 249.460938 157.484375 253.394531 159.246094 256.253906 162.105469 C 259.113281 164.964844 260.875 168.90625 260.875 173.265625 L 263.28125 173.265625 C 263.28125 163.222656 255.140625 155.078125 245.097656 155.078125 C 235.054688 155.078125 226.914062 163.222656 226.910156 173.265625 C 226.914062 183.316406 235.054688 191.460938 245.097656 191.460938 C 255.140625 191.460938 263.28125 183.316406 263.28125 173.265625 L 262.078125 173.265625 " fill-opacity="1" fill-rule="nonzero"/><path fill="#b3404a" d="M 303.242188 155.078125 L 303.148438 155.066406 C 303.019531 155.042969 302.898438 154.992188 302.773438 154.890625 C 302.582031 154.746094 302.371094 154.476562 302.21875 154.105469 C 302.066406 153.734375 301.972656 153.269531 301.972656 152.78125 C 301.972656 152.675781 301.976562 152.574219 301.984375 152.480469 L 301.984375 152.476562 C 302.074219 151.371094 302.117188 150.277344 302.117188 149.199219 C 302.117188 137.964844 297.429688 127.945312 290.082031 120.757812 C 282.734375 113.5625 272.710938 109.175781 262 109.175781 C 257.929688 109.175781 253.761719 109.808594 249.617188 111.167969 L 249.621094 111.167969 C 249.222656 111.292969 248.824219 111.355469 248.457031 111.355469 C 248.453125 111.355469 248.453125 111.355469 248.453125 111.355469 C 248.449219 111.355469 248.449219 111.355469 248.445312 111.355469 C 247.992188 111.355469 247.59375 111.257812 247.324219 111.121094 C 247.042969 110.976562 246.902344 110.820312 246.820312 110.636719 C 246.789062 110.570312 246.773438 110.5 246.773438 110.410156 C 246.769531 110.199219 246.898438 109.824219 247.238281 109.445312 C 247.574219 109.0625 248.101562 108.699219 248.761719 108.488281 L 248.765625 108.488281 C 253.207031 107.035156 257.664062 106.355469 262.015625 106.355469 C 273.445312 106.355469 284.179688 111.046875 292.054688 118.753906 C 299.925781 126.460938 304.925781 137.15625 304.929688 149.167969 C 304.929688 150.324219 304.882812 151.496094 304.789062 152.679688 C 304.730469 153.449219 304.445312 154.109375 304.109375 154.523438 C 303.941406 154.730469 303.765625 154.878906 303.613281 154.964844 C 303.460938 155.046875 303.339844 155.078125 303.242188 155.078125 " fill-opacity="1" fill-rule="nonzero"/><path fill="#b3404a" d="M 303.238281 157.484375 C 303.0625 157.484375 302.890625 157.464844 302.71875 157.433594 L 302.929688 156.25 L 302.714844 157.433594 C 302.1875 157.339844 301.707031 157.109375 301.304688 156.800781 C 300.90625 156.492188 300.582031 156.105469 300.328125 155.683594 C 299.820312 154.839844 299.566406 153.828125 299.566406 152.78125 C 299.566406 152.617188 299.574219 152.449219 299.585938 152.277344 L 299.585938 152.28125 C 299.671875 151.242188 299.710938 150.210938 299.710938 149.199219 C 299.710938 138.640625 295.316406 129.25 288.398438 122.476562 C 281.480469 115.703125 272.046875 111.582031 262 111.582031 C 258.179688 111.582031 254.265625 112.175781 250.363281 113.453125 L 250.359375 113.453125 C 249.726562 113.660156 249.082031 113.761719 248.453125 113.761719 C 247.675781 113.757812 246.917969 113.609375 246.238281 113.265625 C 245.5625 112.929688 244.957031 112.371094 244.625 111.613281 L 244.625 111.617188 C 244.449219 111.230469 244.371094 110.816406 244.371094 110.410156 C 244.375 109.4375 244.804688 108.558594 245.445312 107.839844 C 246.089844 107.117188 246.96875 106.542969 248.019531 106.195312 L 248.015625 106.199219 C 252.703125 104.667969 257.414062 103.945312 262.015625 103.945312 C 274.109375 103.949219 285.433594 108.910156 293.738281 117.035156 C 302.042969 125.160156 307.335938 136.476562 307.335938 149.167969 C 307.335938 150.390625 307.285156 151.625 307.183594 152.871094 C 307.109375 153.792969 306.847656 154.640625 306.441406 155.359375 C 306.03125 156.074219 305.480469 156.671875 304.792969 157.0625 C 304.332031 157.320312 303.800781 157.484375 303.246094 157.484375 C 303.242188 157.484375 303.242188 157.484375 303.242188 157.484375 C 303.242188 157.484375 303.238281 157.484375 303.238281 157.484375 M 303.148438 155.066406 L 303.242188 155.078125 C 303.339844 155.078125 303.460938 155.046875 303.613281 154.964844 C 303.765625 154.878906 303.941406 154.730469 304.109375 154.523438 C 304.445312 154.109375 304.730469 153.449219 304.789062 152.679688 C 304.882812 151.496094 304.929688 150.324219 304.929688 149.167969 C 304.925781 137.15625 299.925781 126.460938 292.054688 118.753906 C 284.179688 111.046875 273.445312 106.355469 262.015625 106.355469 C 257.664062 106.355469 253.207031 107.035156 248.765625 108.488281 L 248.761719 108.488281 C 248.101562 108.699219 247.574219 109.0625 247.238281 109.445312 C 246.898438 109.824219 246.769531 110.199219 246.773438 110.410156 C 246.773438 110.5 246.789062 110.570312 246.820312 110.636719 C 246.902344 110.820312 247.042969 110.976562 247.324219 111.121094 C 247.59375 111.257812 247.992188 111.355469 248.445312 111.355469 C 248.449219 111.355469 248.449219 111.355469 248.453125 111.355469 C 248.453125 111.355469 248.453125 111.355469 248.457031 111.355469 C 248.824219 111.355469 249.222656 111.292969 249.621094 111.167969 L 249.617188 111.167969 C 253.761719 109.808594 257.929688 109.175781 262 109.175781 C 272.710938 109.175781 282.734375 113.5625 290.082031 120.757812 C 297.429688 127.945312 302.117188 137.964844 302.117188 149.199219 C 302.117188 150.277344 302.074219 151.371094 301.984375 152.476562 L 301.984375 152.480469 C 301.976562 152.574219 301.972656 152.675781 301.972656 152.78125 C 301.972656 153.269531 302.066406 153.734375 302.21875 154.105469 C 302.371094 154.476562 302.582031 154.746094 302.773438 154.890625 C 302.898438 154.992188 303.019531 155.042969 303.148438 155.066406 " fill-opacity="1" fill-rule="nonzero"/><path fill="#b3404a" d="M 315.265625 143.046875 L 315.171875 143.039062 C 315.042969 143.015625 314.925781 142.960938 314.796875 142.863281 C 314.601562 142.71875 314.394531 142.449219 314.242188 142.074219 C 314.089844 141.703125 313.996094 141.242188 313.996094 140.75 C 313.996094 140.644531 314 140.546875 314.007812 140.453125 L 314.007812 140.445312 C 314.09375 139.34375 314.140625 138.25 314.140625 137.167969 C 314.140625 125.933594 309.453125 115.914062 302.105469 108.726562 C 294.757812 101.539062 284.734375 97.148438 274.027344 97.144531 C 269.953125 97.144531 265.785156 97.78125 261.636719 99.136719 L 261.640625 99.136719 C 261.25 99.265625 260.84375 99.324219 260.480469 99.324219 C 260.480469 99.324219 260.476562 99.324219 260.476562 99.324219 C 260.472656 99.324219 260.472656 99.324219 260.46875 99.324219 C 260.015625 99.324219 259.621094 99.226562 259.347656 99.089844 C 259.070312 98.945312 258.925781 98.789062 258.847656 98.609375 C 258.816406 98.539062 258.800781 98.472656 258.800781 98.382812 C 258.792969 98.171875 258.917969 97.792969 259.261719 97.414062 C 259.597656 97.035156 260.128906 96.671875 260.785156 96.457031 C 265.234375 95.003906 269.683594 94.328125 274.035156 94.328125 C 285.46875 94.324219 296.207031 99.019531 304.078125 106.726562 C 311.953125 114.4375 316.953125 125.125 316.953125 137.140625 C 316.953125 138.296875 316.90625 139.46875 316.8125 140.648438 C 316.75 141.421875 316.46875 142.082031 316.132812 142.496094 C 315.964844 142.703125 315.789062 142.847656 315.636719 142.9375 C 315.484375 143.019531 315.359375 143.046875 315.265625 143.046875 " fill-opacity="1" fill-rule="nonzero"/><g clip-path="url(#id3)"><path fill="#b3404a" d="M 315.261719 145.453125 C 315.089844 145.453125 314.914062 145.4375 314.742188 145.40625 L 314.957031 144.222656 L 314.742188 145.40625 C 314.210938 145.308594 313.730469 145.078125 313.328125 144.769531 C 312.925781 144.460938 312.605469 144.078125 312.351562 143.652344 C 311.84375 142.808594 311.59375 141.800781 311.589844 140.75 C 311.589844 140.589844 311.59375 140.421875 311.609375 140.246094 L 311.609375 140.253906 C 311.691406 139.214844 311.734375 138.1875 311.734375 137.167969 C 311.734375 126.613281 307.34375 117.222656 300.421875 110.445312 C 293.503906 103.675781 284.070312 99.550781 274.027344 99.550781 C 270.203125 99.550781 266.292969 100.144531 262.386719 101.425781 L 262.378906 101.425781 C 261.75 101.632812 261.105469 101.730469 260.476562 101.730469 C 259.703125 101.730469 258.945312 101.582031 258.265625 101.238281 C 257.585938 100.902344 256.980469 100.34375 256.648438 99.585938 C 256.476562 99.199219 256.394531 98.785156 256.394531 98.382812 C 256.402344 97.40625 256.828125 96.53125 257.46875 95.808594 C 258.109375 95.089844 258.992188 94.511719 260.039062 94.171875 C 264.726562 92.636719 269.4375 91.921875 274.035156 91.921875 C 286.132812 91.921875 297.460938 96.878906 305.761719 105.007812 C 314.0625 113.128906 319.359375 124.449219 319.359375 137.140625 C 319.359375 138.359375 319.308594 139.597656 319.210938 140.84375 C 319.136719 141.765625 318.867188 142.609375 318.464844 143.328125 C 318.054688 144.046875 317.503906 144.644531 316.8125 145.03125 C 316.355469 145.292969 315.824219 145.453125 315.265625 145.453125 C 315.261719 145.453125 315.261719 145.453125 315.261719 145.453125 M 315.171875 143.039062 L 315.265625 143.046875 C 315.359375 143.046875 315.484375 143.019531 315.636719 142.9375 C 315.789062 142.847656 315.964844 142.703125 316.132812 142.496094 C 316.46875 142.082031 316.75 141.421875 316.8125 140.648438 C 316.90625 139.46875 316.953125 138.296875 316.953125 137.140625 C 316.953125 125.125 311.953125 114.4375 304.078125 106.726562 C 296.207031 99.019531 285.46875 94.324219 274.035156 94.328125 C 269.683594 94.328125 265.234375 95.003906 260.785156 96.457031 C 260.128906 96.671875 259.597656 97.035156 259.261719 97.414062 C 258.917969 97.792969 258.792969 98.171875 258.800781 98.382812 C 258.800781 98.472656 258.816406 98.539062 258.847656 98.609375 C 258.925781 98.789062 259.070312 98.945312 259.347656 99.089844 C 259.621094 99.226562 260.015625 99.324219 260.46875 99.324219 C 260.472656 99.324219 260.472656 99.324219 260.476562 99.324219 C 260.476562 99.324219 260.480469 99.324219 260.480469 99.324219 C 260.84375 99.324219 261.25 99.265625 261.640625 99.136719 L 261.636719 99.136719 C 265.785156 97.78125 269.953125 97.144531 274.027344 97.144531 C 284.734375 97.148438 294.757812 101.539062 302.105469 108.726562 C 309.453125 115.914062 314.140625 125.933594 314.140625 137.167969 C 314.140625 138.25 314.09375 139.34375 314.007812 140.445312 L 314.007812 140.453125 C 314 140.546875 313.996094 140.644531 313.996094 140.75 C 313.996094 141.242188 314.089844 141.703125 314.242188 142.074219 C 314.394531 142.449219 314.601562 142.71875 314.796875 142.863281 C 314.925781 142.960938 315.042969 143.015625 315.171875 143.039062 " fill-opacity="1" fill-rule="nonzero"/></g><path fill="#b3404a" d="M 148.101562 265.285156 C 145.003906 268.160156 144.828125 272.996094 147.699219 276.089844 L 150.871094 279.507812 C 153.746094 282.605469 158.582031 282.78125 161.671875 279.90625 L 193.796875 250.0625 C 196.890625 247.191406 197.066406 242.355469 194.195312 239.257812 L 191.023438 235.839844 C 188.148438 232.746094 183.316406 232.566406 180.222656 235.441406 L 148.101562 265.285156 " fill-opacity="1" fill-rule="nonzero"/><g clip-path="url(#id4)"><path fill="#b3404a" d="M 148.101562 265.285156 L 147.28125 264.40625 C 145.40625 266.144531 144.449219 268.519531 144.453125 270.890625 C 144.449219 273.039062 145.238281 275.210938 146.820312 276.90625 L 149.992188 280.328125 C 151.730469 282.203125 154.105469 283.15625 156.472656 283.152344 C 158.625 283.15625 160.792969 282.371094 162.492188 280.789062 L 194.617188 250.945312 C 196.488281 249.207031 197.441406 246.832031 197.441406 244.460938 C 197.441406 242.308594 196.65625 240.140625 195.074219 238.441406 L 191.902344 235.019531 C 190.160156 233.144531 187.785156 232.191406 185.417969 232.191406 C 183.269531 232.191406 181.101562 232.976562 179.40625 234.558594 L 147.28125 264.40625 L 148.101562 265.285156 L 148.917969 266.167969 L 181.039062 236.320312 C 182.285156 235.167969 183.847656 234.601562 185.417969 234.601562 C 187.152344 234.601562 188.867188 235.289062 190.140625 236.660156 L 193.3125 240.078125 C 194.46875 241.320312 195.03125 242.886719 195.035156 244.460938 C 195.03125 246.195312 194.347656 247.910156 192.976562 249.179688 L 160.855469 279.027344 C 159.613281 280.179688 158.046875 280.746094 156.472656 280.746094 C 154.742188 280.746094 153.023438 280.058594 151.753906 278.691406 L 148.578125 275.273438 C 147.425781 274.023438 146.859375 272.460938 146.859375 270.890625 C 146.859375 269.15625 147.546875 267.4375 148.917969 266.164062 L 148.101562 265.285156 " fill-opacity="1" fill-rule="nonzero"/></g><path fill="#b3404a" d="M 69.046875 117.222656 C 67.382812 118.347656 66.949219 120.613281 68.074219 122.277344 L 91.171875 156.386719 C 92.300781 158.054688 94.5625 158.488281 96.226562 157.359375 C 97.890625 156.234375 98.324219 153.96875 97.199219 152.304688 L 74.101562 118.191406 C 72.972656 116.527344 70.710938 116.09375 69.046875 117.222656 " fill-opacity="1" fill-rule="nonzero"/><path fill="#b3404a" d="M 69.046875 117.222656 L 68.371094 116.226562 C 66.992188 117.160156 66.242188 118.6875 66.246094 120.234375 C 66.242188 121.167969 66.515625 122.121094 67.078125 122.953125 L 90.175781 157.0625 C 91.109375 158.441406 92.640625 159.191406 94.1875 159.191406 C 95.121094 159.191406 96.070312 158.917969 96.898438 158.355469 L 96.902344 158.355469 C 98.28125 157.421875 99.027344 155.890625 99.027344 154.34375 C 99.027344 153.410156 98.757812 152.457031 98.195312 151.628906 L 75.09375 117.519531 C 74.160156 116.136719 72.632812 115.386719 71.085938 115.386719 C 70.152344 115.386719 69.199219 115.660156 68.371094 116.226562 L 69.046875 117.222656 L 69.722656 118.214844 C 70.140625 117.929688 70.613281 117.796875 71.085938 117.792969 C 71.871094 117.796875 72.632812 118.171875 73.101562 118.867188 L 96.203125 152.980469 C 96.488281 153.398438 96.621094 153.871094 96.621094 154.34375 C 96.621094 155.125 96.25 155.890625 95.550781 156.363281 L 95.550781 156.359375 C 95.128906 156.648438 94.660156 156.78125 94.1875 156.785156 C 93.402344 156.78125 92.640625 156.410156 92.167969 155.710938 L 69.070312 121.601562 C 68.78125 121.179688 68.652344 120.710938 68.652344 120.234375 C 68.652344 119.453125 69.023438 118.6875 69.71875 118.21875 L 69.722656 118.214844 L 69.046875 117.222656 " fill-opacity="1" fill-rule="nonzero"/><path fill="#b3404a" d="M 87.582031 172.949219 C 87.511719 174.960938 85.824219 176.527344 83.8125 176.453125 L 42.65625 174.90625 C 40.648438 174.835938 39.078125 173.140625 39.15625 171.132812 C 39.234375 169.125 40.921875 167.558594 42.929688 167.632812 L 84.085938 169.175781 C 86.09375 169.25 87.660156 170.9375 87.582031 172.949219 " fill-opacity="1" fill-rule="nonzero"/><g clip-path="url(#id5)"><path fill="#b3404a" d="M 87.582031 172.949219 L 86.378906 172.902344 C 86.332031 174.21875 85.253906 175.25 83.949219 175.25 L 83.84375 175.246094 L 83.8125 176.453125 L 83.855469 175.246094 L 42.699219 173.707031 C 41.386719 173.660156 40.355469 172.570312 40.355469 171.269531 L 40.355469 171.179688 C 40.40625 169.863281 41.488281 168.828125 42.789062 168.832031 L 42.882812 168.832031 L 84.039062 170.378906 C 85.351562 170.425781 86.382812 171.507812 86.382812 172.808594 L 86.378906 172.929688 L 87.582031 172.949219 L 86.378906 172.902344 L 87.582031 172.949219 L 88.785156 172.964844 L 88.785156 172.808594 C 88.785156 170.214844 86.738281 168.070312 84.128906 167.972656 L 42.972656 166.429688 L 42.929688 167.632812 L 42.988281 166.429688 C 42.914062 166.425781 42.84375 166.425781 42.789062 166.425781 C 40.195312 166.425781 38.054688 168.476562 37.953125 171.089844 L 39.15625 171.132812 L 37.953125 171.0625 C 37.953125 171.148438 37.953125 171.222656 37.953125 171.269531 C 37.953125 173.867188 40 176.007812 42.613281 176.109375 L 83.769531 177.65625 L 83.949219 177.65625 C 86.542969 177.65625 88.6875 175.605469 88.785156 172.992188 L 88.785156 172.964844 L 87.582031 172.949219 " fill-opacity="1" fill-rule="nonzero"/></g><path fill="#b3404a" d="M 101.328125 102.121094 C 99.398438 102.675781 98.28125 104.691406 98.832031 106.625 L 110.175781 146.230469 C 110.730469 148.164062 112.746094 149.28125 114.679688 148.730469 C 116.609375 148.175781 117.726562 146.15625 117.171875 144.222656 L 105.832031 104.617188 C 105.277344 102.683594 103.261719 101.566406 101.328125 102.121094 " fill-opacity="1" fill-rule="nonzero"/><path fill="#b3404a" d="M 101.328125 102.121094 L 100.996094 100.964844 C 98.875 101.574219 97.488281 103.507812 97.488281 105.621094 C 97.488281 106.058594 97.546875 106.511719 97.675781 106.957031 L 97.675781 106.953125 L 109.019531 146.5625 C 109.632812 148.691406 111.5625 150.074219 113.671875 150.074219 C 114.113281 150.074219 114.5625 150.011719 115.003906 149.886719 L 115.007812 149.882812 C 117.128906 149.273438 118.519531 147.339844 118.515625 145.230469 C 118.515625 144.785156 118.457031 144.335938 118.332031 143.898438 L 118.332031 143.894531 L 106.988281 104.285156 C 106.378906 102.160156 104.441406 100.773438 102.332031 100.777344 C 101.890625 100.777344 101.441406 100.835938 100.996094 100.964844 L 101.328125 102.121094 L 101.664062 103.277344 C 101.886719 103.210938 102.109375 103.183594 102.332031 103.183594 C 103.390625 103.183594 104.371094 103.878906 104.671875 104.945312 L 116.015625 144.554688 C 116.082031 144.78125 116.109375 145.007812 116.109375 145.230469 C 116.109375 146.285156 115.414062 147.265625 114.347656 147.570312 C 114.117188 147.636719 113.890625 147.664062 113.671875 147.667969 C 112.617188 147.664062 111.636719 146.96875 111.332031 145.902344 L 99.992188 106.292969 L 99.988281 106.289062 C 99.925781 106.066406 99.894531 105.84375 99.894531 105.621094 C 99.894531 104.5625 100.59375 103.582031 101.660156 103.277344 L 101.664062 103.277344 L 101.328125 102.121094 " fill-opacity="1" fill-rule="nonzero"/><path fill="#b3404a" d="M 90.035156 193.175781 C 90.585938 195.109375 89.472656 197.125 87.535156 197.679688 L 47.945312 209.027344 C 46.015625 209.578125 44 208.460938 43.445312 206.527344 C 42.890625 204.59375 44.007812 202.578125 45.941406 202.023438 L 85.53125 190.679688 C 87.46875 190.125 89.480469 191.242188 90.035156 193.175781 " fill-opacity="1" fill-rule="nonzero"/><path fill="#b3404a" d="M 90.035156 193.175781 L 88.875 193.503906 C 88.941406 193.734375 88.972656 193.960938 88.972656 194.179688 C 88.972656 195.234375 88.277344 196.21875 87.207031 196.523438 L 47.613281 207.871094 C 47.390625 207.933594 47.164062 207.964844 46.941406 207.964844 C 45.886719 207.964844 44.90625 207.265625 44.601562 206.195312 C 44.535156 205.96875 44.507812 205.746094 44.507812 205.523438 C 44.507812 204.464844 45.203125 203.484375 46.269531 203.183594 L 85.863281 191.835938 C 86.09375 191.773438 86.316406 191.742188 86.535156 191.742188 C 87.597656 191.742188 88.574219 192.4375 88.875 193.507812 L 90.035156 193.175781 L 91.191406 192.84375 C 90.582031 190.71875 88.644531 189.332031 86.535156 189.332031 C 86.09375 189.332031 85.644531 189.394531 85.203125 189.523438 L 45.609375 200.867188 C 43.484375 201.476562 42.097656 203.414062 42.101562 205.523438 C 42.097656 205.96875 42.160156 206.417969 42.289062 206.859375 C 42.902344 208.984375 44.832031 210.371094 46.941406 210.371094 C 47.382812 210.371094 47.832031 210.3125 48.277344 210.183594 L 87.867188 198.835938 C 89.992188 198.222656 91.378906 196.289062 91.378906 194.179688 C 91.378906 193.738281 91.316406 193.289062 91.191406 192.847656 L 90.035156 193.175781 " fill-opacity="1" fill-rule="nonzero"/><path fill="#ffffff" d="M 98.332031 167.71875 C 91.125 180.714844 95.816406 197.089844 108.804688 204.292969 C 121.792969 211.5 138.160156 206.8125 145.363281 193.816406 C 152.570312 180.824219 147.878906 164.449219 134.890625 157.242188 C 121.902344 150.035156 105.535156 154.726562 98.332031 167.71875 " fill-opacity="1" fill-rule="nonzero"/><path fill="#b3404a" d="M 98.332031 167.71875 L 97.277344 167.132812 C 94.882812 171.449219 93.746094 176.132812 93.746094 180.746094 C 93.746094 190.625 98.96875 200.214844 108.21875 205.347656 C 112.53125 207.742188 117.210938 208.878906 121.824219 208.878906 C 131.699219 208.882812 141.285156 203.65625 146.414062 194.402344 C 148.808594 190.085938 149.949219 185.402344 149.945312 180.792969 C 149.949219 170.910156 144.722656 161.320312 135.472656 156.1875 C 131.160156 153.792969 126.480469 152.652344 121.871094 152.65625 C 111.992188 152.652344 102.410156 157.882812 97.277344 167.132812 L 98.332031 167.71875 L 99.382812 168.304688 C 104.070312 159.835938 112.832031 155.0625 121.871094 155.0625 C 126.085938 155.0625 130.355469 156.101562 134.308594 158.292969 C 142.769531 162.988281 147.539062 171.75 147.539062 180.792969 C 147.539062 185.007812 146.503906 189.28125 144.3125 193.234375 C 139.617188 201.699219 130.859375 206.472656 121.824219 206.472656 C 117.605469 206.472656 113.335938 205.433594 109.386719 203.246094 C 100.925781 198.550781 96.152344 189.785156 96.152344 180.746094 C 96.152344 176.527344 97.191406 172.253906 99.382812 168.304688 L 98.332031 167.71875 " fill-opacity="1" fill-rule="nonzero"/><path fill="#ffffff" d="M 213.628906 202.929688 L 221.5625 207.332031 C 225.25 209.378906 226.582031 214.035156 224.539062 217.726562 L 206.710938 249.878906 C 204.664062 253.570312 200.011719 254.90625 196.320312 252.855469 L 188.386719 248.453125 L 213.628906 202.929688 " fill-opacity="1" fill-rule="nonzero"/><path fill="#b3404a" d="M 213.628906 202.929688 L 213.046875 203.984375 L 220.976562 208.382812 C 223.101562 209.5625 224.292969 211.753906 224.292969 214.023438 C 224.292969 215.082031 224.039062 216.148438 223.484375 217.140625 L 205.660156 249.296875 C 204.480469 251.417969 202.289062 252.613281 200.023438 252.617188 C 198.964844 252.617188 197.894531 252.355469 196.90625 251.808594 L 190.023438 247.988281 L 214.679688 203.515625 L 213.628906 202.929688 L 213.046875 203.984375 L 213.628906 202.929688 L 212.574219 202.34375 L 187.335938 247.871094 C 187.011719 248.453125 187.222656 249.183594 187.804688 249.507812 L 195.738281 253.910156 C 197.09375 254.660156 198.566406 255.023438 200.023438 255.023438 C 203.128906 255.023438 206.144531 253.375 207.761719 250.464844 L 225.589844 218.308594 C 226.34375 216.953125 226.703125 215.476562 226.699219 214.023438 C 226.703125 210.914062 225.054688 207.894531 222.144531 206.28125 L 214.210938 201.878906 C 213.632812 201.554688 212.898438 201.765625 212.574219 202.34375 L 213.628906 202.929688 " fill-opacity="1" fill-rule="nonzero"/><path fill="#ffffff" d="M 142.804688 121.964844 L 169.6875 175.625 L 211.011719 198.554688 C 214.703125 200.601562 216.039062 205.257812 213.988281 208.949219 L 193.683594 245.578125 C 191.636719 249.269531 186.984375 250.601562 183.296875 248.554688 L 141.96875 225.621094 L 82.234375 231.21875 L 142.804688 121.964844 " fill-opacity="1" fill-rule="nonzero"/><path fill="#b3404a" d="M 142.804688 121.964844 L 141.730469 122.503906 L 168.613281 176.164062 C 168.71875 176.378906 168.894531 176.5625 169.105469 176.675781 L 210.429688 199.605469 C 212.550781 200.785156 213.746094 202.980469 213.746094 205.246094 C 213.746094 206.300781 213.488281 207.371094 212.941406 208.363281 L 192.632812 244.992188 C 191.457031 247.117188 189.261719 248.308594 186.996094 248.308594 C 185.9375 248.308594 184.871094 248.050781 183.878906 247.5 L 142.550781 224.570312 C 142.34375 224.453125 142.09375 224.402344 141.855469 224.425781 L 84.390625 229.804688 L 143.855469 122.550781 L 142.804688 121.964844 L 141.730469 122.503906 L 142.804688 121.964844 L 141.753906 121.382812 L 81.183594 230.632812 C 80.96875 231.019531 80.984375 231.503906 81.226562 231.875 C 81.472656 232.25 81.902344 232.457031 82.347656 232.414062 L 141.714844 226.855469 L 182.710938 249.605469 C 184.066406 250.355469 185.542969 250.714844 186.996094 250.714844 C 190.101562 250.71875 193.121094 249.070312 194.734375 246.160156 L 215.042969 209.535156 C 215.792969 208.175781 216.152344 206.699219 216.152344 205.246094 C 216.152344 202.136719 214.507812 199.117188 211.597656 197.503906 L 170.597656 174.753906 L 143.878906 121.425781 C 143.679688 121.027344 143.277344 120.773438 142.828125 120.761719 C 142.382812 120.757812 141.96875 120.996094 141.753906 121.382812 L 142.804688 121.964844 " fill-opacity="1" fill-rule="nonzero"/><path fill="#b3404a" d="M 150.613281 137.554688 L 154.125 144.566406 L 107.390625 228.859375 L 99.589844 229.59375 L 150.613281 137.554688 " fill-opacity="1" fill-rule="nonzero"/><path fill="#b3404a" d="M 150.613281 137.554688 L 149.539062 138.09375 L 152.765625 144.539062 L 106.648438 227.722656 L 101.746094 228.179688 L 151.664062 138.140625 L 150.613281 137.554688 L 149.539062 138.09375 L 150.613281 137.554688 L 149.5625 136.96875 L 98.535156 229.007812 C 98.320312 229.398438 98.339844 229.878906 98.585938 230.25 C 98.824219 230.625 99.257812 230.828125 99.703125 230.789062 L 107.503906 230.058594 C 107.898438 230.023438 108.25 229.792969 108.445312 229.445312 L 155.179688 145.148438 C 155.371094 144.800781 155.378906 144.382812 155.199219 144.027344 L 151.691406 137.015625 C 151.488281 136.617188 151.082031 136.363281 150.636719 136.351562 C 150.191406 136.34375 149.777344 136.582031 149.5625 136.96875 L 150.613281 137.554688 " fill-opacity="1" fill-rule="nonzero"/></svg>