<svg xmlns="http://www.w3.org/2000/svg" xmlns:xlink="http://www.w3.org/1999/xlink" width="500" zoomAndPan="magnify" viewBox="0 0 375 374.999991" height="500" preserveAspectRatio="xMidYMid meet" version="1.0"><defs><clipPath id="id1"><path d="M 123 37.5 L 226 37.5 L 226 104 L 123 104 Z M 123 37.5 " clip-rule="nonzero"/></clipPath><clipPath id="id2"><path d="M 57.339844 271 L 105 271 L 105 329 L 57.339844 329 Z M 57.339844 271 " clip-rule="nonzero"/></clipPath><clipPath id="id3"><path d="M 305 233 L 317.589844 233 L 317.589844 260 L 305 260 Z M 305 233 " clip-rule="nonzero"/></clipPath><clipPath id="id4"><path d="M 177 315 L 288 315 L 288 330 L 177 330 Z M 177 315 " clip-rule="nonzero"/></clipPath></defs><path fill="#ffedec" d="M 187.5 0 C 83.945312 0 0 83.945312 0 187.5 C 0 291.054688 83.945312 375 187.5 375 C 291.054688 375 375 291.054688 375 187.5 C 375 83.945312 291.054688 0 187.5 0 " fill-opacity="1" fill-rule="nonzero"/><path fill="#b3404a" d="M 84.457031 281.136719 L 77.316406 281.136719 L 77.316406 167.300781 C 77.316406 124.617188 85.660156 97.171875 102.113281 85.726562 C 114.992188 76.769531 127.789062 81.363281 128.328125 81.566406 L 125.84375 88.261719 L 127.085938 84.914062 L 125.859375 88.269531 C 125.457031 88.125 115.839844 84.796875 106.070312 91.675781 C 96.210938 98.617188 84.457031 117.375 84.457031 167.300781 L 84.457031 281.136719 " fill-opacity="1" fill-rule="nonzero"/><path fill="#b3404a" d="M 84.457031 281.136719 L 84.457031 279.921875 L 78.53125 279.921875 L 78.53125 167.300781 C 78.53125 146.039062 80.617188 128.613281 84.707031 115.152344 C 86.753906 108.421875 89.300781 102.6875 92.324219 97.953125 C 95.347656 93.214844 98.84375 89.484375 102.808594 86.722656 C 108.863281 82.511719 114.859375 81.425781 119.503906 81.425781 C 124.363281 81.421875 127.726562 82.636719 127.898438 82.703125 L 128.328125 81.566406 L 127.1875 81.140625 L 124.703125 87.839844 C 124.589844 88.140625 124.605469 88.480469 124.738281 88.769531 C 124.871094 89.0625 125.121094 89.292969 125.417969 89.402344 C 125.71875 89.515625 126.058594 89.5 126.347656 89.367188 C 126.640625 89.234375 126.871094 88.984375 126.980469 88.6875 L 128.226562 85.335938 C 128.335938 85.035156 128.324219 84.699219 128.191406 84.40625 C 128.054688 84.113281 127.808594 83.882812 127.503906 83.773438 C 127.199219 83.664062 126.867188 83.675781 126.574219 83.8125 C 126.277344 83.949219 126.054688 84.191406 125.945312 84.5 L 124.71875 87.851562 L 125.859375 88.269531 L 126.269531 87.125 C 125.976562 87.023438 123.371094 86.121094 119.539062 86.121094 C 115.671875 86.121094 110.515625 87.058594 105.371094 90.683594 C 100.199219 94.320312 94.652344 100.992188 90.421875 112.964844 C 86.1875 124.945312 83.246094 142.242188 83.242188 167.300781 L 83.242188 281.136719 L 84.457031 281.136719 L 84.457031 279.921875 L 84.457031 281.136719 L 85.675781 281.136719 L 85.675781 167.300781 C 85.675781 142.429688 88.605469 125.390625 92.714844 113.773438 C 96.824219 102.15625 102.082031 95.976562 106.769531 92.671875 C 111.449219 89.378906 116.046875 88.558594 119.539062 88.554688 C 122.988281 88.550781 125.34375 89.375 125.449219 89.414062 C 126.078125 89.636719 126.773438 89.3125 127 88.6875 L 128.226562 85.332031 C 128.457031 84.699219 128.132812 84.003906 127.503906 83.773438 C 126.875 83.542969 126.179688 83.863281 125.945312 84.492188 L 124.703125 87.839844 C 124.589844 88.140625 124.605469 88.480469 124.738281 88.769531 C 124.871094 89.0625 125.121094 89.292969 125.417969 89.402344 C 125.71875 89.515625 126.058594 89.5 126.347656 89.367188 C 126.640625 89.234375 126.871094 88.984375 126.980469 88.6875 L 129.46875 81.992188 C 129.703125 81.359375 129.382812 80.664062 128.753906 80.425781 C 128.378906 80.285156 124.773438 78.996094 119.503906 78.992188 C 114.488281 78.992188 107.941406 80.1875 101.421875 84.730469 C 97.160156 87.695312 93.441406 91.679688 90.273438 96.644531 C 85.523438 104.089844 81.988281 113.726562 79.632812 125.511719 C 77.277344 137.296875 76.101562 151.234375 76.101562 167.300781 L 76.101562 281.136719 C 76.101562 281.457031 76.230469 281.769531 76.457031 281.996094 C 76.683594 282.222656 76.996094 282.351562 77.316406 282.351562 L 84.457031 282.351562 C 84.777344 282.351562 85.09375 282.222656 85.320312 281.996094 C 85.542969 281.769531 85.675781 281.457031 85.675781 281.136719 L 84.457031 281.136719 " fill-opacity="1" fill-rule="nonzero"/><path fill="#ffffff" d="M 219.804688 95.878906 C 201.789062 83.464844 180.609375 76.421875 158.707031 75.398438 L 158.707031 65.929688 C 158.707031 65.410156 158.652344 64.902344 158.578125 64.402344 C 166.171875 53.558594 169.71875 46.78125 188.894531 45.261719 C 192.457031 44.917969 222.457031 44.148438 222.566406 42.875 C 222.679688 41.605469 205.460938 39.027344 188.625 39.355469 C 164.679688 37.519531 159.65625 43.429688 144.96875 55.804688 L 135.296875 55.804688 C 129.707031 55.804688 125.175781 60.339844 125.175781 65.929688 L 125.175781 78.835938 C 125.175781 83.671875 128.566406 87.703125 133.09375 88.714844 L 159.269531 91.246094 C 178.804688 89.039062 198.855469 92.375 217.074219 101.125 C 220.324219 102.617188 223.496094 103.175781 224.230469 102.128906 C 224.964844 101.089844 223.054688 98.179688 219.804688 95.878906 " fill-opacity="1" fill-rule="nonzero"/><g clip-path="url(#id1)"><path fill="#b3404a" d="M 219.804688 95.878906 L 220.496094 94.878906 C 202.289062 82.332031 180.886719 75.214844 158.761719 74.179688 L 158.707031 75.398438 L 159.921875 75.398438 L 159.921875 65.929688 C 159.921875 65.328125 159.863281 64.757812 159.78125 64.222656 L 158.578125 64.402344 L 159.574219 65.097656 C 161.480469 62.375 163.121094 59.933594 164.78125 57.796875 C 167.28125 54.589844 169.800781 52.097656 173.4375 50.207031 C 177.074219 48.320312 181.894531 47.039062 188.992188 46.476562 L 189.011719 46.476562 C 189.40625 46.433594 190.265625 46.386719 191.417969 46.328125 C 195.46875 46.132812 203.253906 45.851562 210.042969 45.476562 C 213.4375 45.292969 216.582031 45.085938 218.914062 44.851562 C 220.082031 44.730469 221.042969 44.609375 221.761719 44.46875 C 222.128906 44.394531 222.429688 44.324219 222.722656 44.214844 C 222.871094 44.15625 223.019531 44.097656 223.210938 43.957031 C 223.304688 43.886719 223.414062 43.796875 223.53125 43.640625 C 223.640625 43.488281 223.753906 43.257812 223.777344 42.980469 L 223.777344 42.976562 L 223.78125 42.863281 C 223.78125 42.492188 223.632812 42.203125 223.5 42.023438 C 223.367188 41.84375 223.234375 41.738281 223.113281 41.644531 C 222.878906 41.472656 222.652344 41.371094 222.398438 41.261719 C 221.925781 41.066406 221.34375 40.894531 220.625 40.714844 C 218.121094 40.097656 213.957031 39.457031 208.851562 38.957031 C 203.75 38.460938 197.734375 38.109375 191.621094 38.109375 C 190.613281 38.109375 189.605469 38.121094 188.597656 38.140625 L 188.625 39.355469 L 188.714844 38.144531 C 185.820312 37.921875 183.195312 37.808594 180.78125 37.808594 C 176.351562 37.808594 172.648438 38.183594 169.371094 38.929688 C 164.460938 40.050781 160.539062 42.019531 156.683594 44.710938 C 152.828125 47.402344 149.019531 50.800781 144.183594 54.875 L 144.96875 55.804688 L 144.96875 54.589844 L 135.296875 54.589844 C 129.035156 54.589844 123.960938 59.667969 123.960938 65.929688 L 123.960938 78.835938 C 123.960938 84.253906 127.757812 88.769531 132.832031 89.898438 L 132.976562 89.917969 L 159.152344 92.457031 C 159.242188 92.464844 159.320312 92.464844 159.40625 92.457031 C 163.261719 92.023438 167.136719 91.804688 171.015625 91.804688 C 186.554688 91.804688 202.132812 95.292969 216.546875 102.21875 L 216.566406 102.230469 C 217.675781 102.738281 218.773438 103.144531 219.804688 103.429688 C 220.839844 103.714844 221.792969 103.882812 222.652344 103.882812 C 223.125 103.882812 223.570312 103.835938 224.011719 103.6875 C 224.449219 103.546875 224.902344 103.285156 225.226562 102.828125 L 225.226562 102.832031 C 225.503906 102.433594 225.605469 101.972656 225.601562 101.570312 C 225.601562 100.960938 225.417969 100.425781 225.160156 99.878906 C 224.765625 99.0625 224.15625 98.222656 223.371094 97.375 C 222.585938 96.527344 221.621094 95.675781 220.507812 94.886719 L 220.496094 94.878906 L 219.804688 95.878906 L 219.105469 96.871094 C 220.40625 97.789062 221.476562 98.820312 222.183594 99.722656 C 222.542969 100.175781 222.808594 100.59375 222.96875 100.933594 C 223.132812 101.265625 223.179688 101.523438 223.171875 101.570312 L 223.171875 101.578125 L 223.511719 101.617188 L 223.238281 101.429688 L 223.171875 101.578125 L 223.511719 101.617188 L 223.238281 101.429688 L 223.453125 101.582031 L 223.304688 101.359375 L 223.238281 101.429688 L 223.453125 101.582031 L 223.304688 101.359375 L 223.324219 101.386719 L 223.308594 101.359375 L 223.304688 101.359375 L 223.324219 101.386719 L 223.308594 101.359375 C 223.304688 101.359375 223.246094 101.390625 223.132812 101.414062 C 223.023438 101.433594 222.859375 101.449219 222.652344 101.449219 C 222.117188 101.453125 221.335938 101.332031 220.457031 101.085938 C 219.570312 100.84375 218.582031 100.476562 217.582031 100.019531 L 217.074219 101.125 L 217.601562 100.027344 C 202.855469 92.945312 186.921875 89.371094 171.015625 89.371094 C 167.046875 89.371094 163.078125 89.59375 159.132812 90.039062 L 159.269531 91.246094 L 159.386719 90.035156 L 133.210938 87.5 L 133.09375 88.714844 L 133.359375 87.523438 C 129.375 86.640625 126.390625 83.089844 126.394531 78.835938 L 126.394531 65.929688 C 126.394531 63.46875 127.386719 61.246094 129 59.628906 C 130.617188 58.019531 132.835938 57.019531 135.296875 57.019531 L 144.96875 57.019531 C 145.253906 57.019531 145.535156 56.917969 145.75 56.734375 C 152.234375 51.265625 156.792969 47.125 161.765625 44.398438 C 164.257812 43.027344 166.859375 42 169.914062 41.304688 C 172.972656 40.601562 176.488281 40.242188 180.78125 40.242188 C 183.117188 40.242188 185.683594 40.351562 188.527344 40.570312 L 188.648438 40.570312 C 189.636719 40.554688 190.628906 40.542969 191.621094 40.542969 C 199.445312 40.542969 207.140625 41.121094 212.851562 41.851562 C 215.707031 42.210938 218.070312 42.613281 219.671875 42.988281 C 220.472656 43.171875 221.089844 43.355469 221.429688 43.496094 C 221.515625 43.53125 221.582031 43.558594 221.625 43.582031 L 221.683594 43.613281 L 221.8125 43.410156 L 221.660156 43.59375 L 221.683594 43.613281 L 221.8125 43.410156 L 221.660156 43.59375 L 222.160156 43 L 221.507812 43.414062 C 221.578125 43.523438 221.632812 43.570312 221.660156 43.59375 L 222.160156 43 L 221.507812 43.414062 L 222.378906 42.863281 L 221.351562 42.863281 C 221.347656 43.105469 221.4375 43.300781 221.507812 43.414062 L 222.378906 42.863281 L 221.351562 42.863281 L 222.414062 42.863281 L 221.355469 42.773438 L 221.351562 42.863281 L 222.414062 42.863281 L 221.355469 42.773438 L 221.355469 42.769531 L 222.453125 42.863281 L 221.597656 42.164062 C 221.503906 42.277344 221.375 42.488281 221.355469 42.769531 L 222.453125 42.863281 L 221.597656 42.164062 L 222.3125 42.746094 L 221.808594 41.972656 C 221.765625 42 221.691406 42.046875 221.597656 42.164062 L 222.3125 42.746094 L 221.808594 41.972656 L 222.054688 42.351562 L 221.871094 41.9375 L 221.808594 41.972656 L 222.054688 42.351562 L 221.871094 41.9375 C 221.867188 41.941406 221.65625 42.011719 221.355469 42.070312 C 220.78125 42.1875 219.855469 42.308594 218.707031 42.425781 C 214.679688 42.832031 207.894531 43.175781 201.789062 43.445312 C 198.734375 43.578125 195.847656 43.699219 193.546875 43.796875 C 192.394531 43.847656 191.390625 43.894531 190.582031 43.933594 C 189.773438 43.980469 189.167969 44.015625 188.777344 44.050781 L 188.894531 45.261719 L 188.796875 44.050781 C 183.9375 44.433594 180.027344 45.15625 176.761719 46.210938 C 171.863281 47.789062 168.429688 50.160156 165.578125 53.136719 C 162.71875 56.117188 160.417969 59.660156 157.582031 63.703125 C 157.40625 63.957031 157.328125 64.273438 157.375 64.582031 C 157.445312 65.042969 157.492188 65.492188 157.492188 65.929688 L 157.492188 75.398438 C 157.492188 76.046875 158 76.582031 158.648438 76.609375 C 180.324219 77.625 201.292969 84.597656 219.117188 96.878906 L 219.804688 95.878906 L 219.105469 96.871094 L 219.804688 95.878906 " fill-opacity="1" fill-rule="nonzero"/></g><path fill="#ffffff" d="M 166.644531 120.523438 L 166.644531 99.085938 C 166.644531 93.496094 162.113281 88.964844 156.523438 88.964844 L 133.199219 88.964844 C 127.609375 88.964844 123.074219 93.496094 123.074219 99.085938 L 123.074219 120.523438 C 114.273438 127.144531 108.582031 137.679688 108.582031 149.542969 L 108.582031 327.589844 L 181.140625 327.589844 L 181.140625 149.542969 C 181.140625 137.679688 175.445312 127.144531 166.644531 120.523438 " fill-opacity="1" fill-rule="nonzero"/><path fill="#b3404a" d="M 166.644531 120.523438 L 167.863281 120.523438 L 167.863281 99.085938 C 167.859375 92.824219 162.785156 87.746094 156.523438 87.746094 L 133.199219 87.746094 C 126.9375 87.746094 121.863281 92.824219 121.859375 99.085938 L 121.859375 120.523438 L 123.074219 120.523438 L 122.347656 119.554688 C 113.25 126.390625 107.367188 137.285156 107.367188 149.542969 L 107.367188 327.589844 C 107.367188 327.910156 107.496094 328.222656 107.722656 328.449219 C 107.949219 328.675781 108.261719 328.808594 108.582031 328.808594 L 181.140625 328.808594 C 181.460938 328.808594 181.773438 328.675781 182 328.449219 C 182.226562 328.222656 182.355469 327.910156 182.355469 327.589844 L 182.355469 149.542969 C 182.355469 137.285156 176.46875 126.390625 167.375 119.554688 L 166.644531 120.523438 L 167.863281 120.523438 L 166.644531 120.523438 L 165.914062 121.496094 C 174.425781 127.902344 179.921875 138.074219 179.921875 149.542969 L 179.921875 326.375 L 109.796875 326.375 L 109.796875 149.542969 C 109.796875 138.078125 115.300781 127.902344 123.804688 121.496094 C 124.113281 121.269531 124.289062 120.90625 124.289062 120.523438 L 124.289062 99.085938 C 124.292969 96.625 125.289062 94.402344 126.898438 92.789062 C 128.515625 91.175781 130.738281 90.179688 133.199219 90.179688 L 156.523438 90.179688 C 158.984375 90.179688 161.203125 91.175781 162.820312 92.789062 C 164.433594 94.402344 165.425781 96.625 165.429688 99.085938 L 165.429688 120.523438 C 165.429688 120.90625 165.609375 121.269531 165.914062 121.496094 L 166.644531 120.523438 " fill-opacity="1" fill-rule="nonzero"/><path fill="#ffffff" d="M 148.332031 84.914062 C 148.332031 95.964844 139.375 104.925781 128.328125 104.925781 C 117.28125 104.925781 108.324219 95.964844 108.324219 84.914062 C 108.324219 73.863281 117.28125 64.90625 128.328125 64.90625 C 139.375 64.90625 148.332031 73.863281 148.332031 84.914062 " fill-opacity="1" fill-rule="nonzero"/><path fill="#b3404a" d="M 148.332031 84.914062 L 147.117188 84.914062 C 147.117188 90.105469 145.015625 94.796875 141.613281 98.203125 C 138.207031 101.605469 133.519531 103.707031 128.328125 103.707031 C 123.136719 103.707031 118.445312 101.605469 115.042969 98.203125 C 111.644531 94.800781 109.542969 90.105469 109.542969 84.914062 C 109.542969 79.71875 111.644531 75.03125 115.042969 71.625 C 118.445312 68.222656 123.136719 66.121094 128.328125 66.121094 C 133.519531 66.121094 138.207031 68.222656 141.613281 71.625 C 145.015625 75.03125 147.117188 79.71875 147.117188 84.914062 L 149.546875 84.914062 C 149.546875 73.191406 140.046875 63.6875 128.328125 63.6875 C 116.609375 63.6875 107.109375 73.191406 107.109375 84.914062 C 107.109375 96.636719 116.609375 106.136719 128.328125 106.140625 C 140.046875 106.136719 149.546875 96.636719 149.546875 84.914062 L 148.332031 84.914062 " fill-opacity="1" fill-rule="nonzero"/><path fill="#b3404a" d="M 139.101562 84.914062 C 139.101562 90.863281 134.277344 95.6875 128.328125 95.6875 C 122.378906 95.6875 117.558594 90.863281 117.558594 84.914062 C 117.558594 78.964844 122.378906 74.140625 128.328125 74.140625 C 134.277344 74.140625 139.101562 78.964844 139.101562 84.914062 " fill-opacity="1" fill-rule="nonzero"/><path fill="#b3404a" d="M 139.101562 84.914062 L 137.886719 84.914062 C 137.886719 87.558594 136.816406 89.9375 135.085938 91.671875 C 133.351562 93.402344 130.972656 94.46875 128.328125 94.46875 C 125.6875 94.46875 123.304688 93.402344 121.570312 91.671875 C 119.839844 89.9375 118.773438 87.558594 118.773438 84.914062 C 118.773438 82.273438 119.839844 79.890625 121.570312 78.15625 C 123.304688 76.425781 125.6875 75.359375 128.328125 75.355469 C 130.972656 75.359375 133.351562 76.425781 135.085938 78.15625 C 136.816406 79.890625 137.886719 82.273438 137.886719 84.914062 L 140.316406 84.914062 C 140.316406 78.292969 134.949219 72.925781 128.328125 72.921875 C 121.707031 72.925781 116.339844 78.292969 116.339844 84.914062 C 116.339844 91.535156 121.707031 96.902344 128.328125 96.902344 C 134.949219 96.902344 140.316406 91.535156 140.316406 84.914062 L 139.101562 84.914062 " fill-opacity="1" fill-rule="nonzero"/><path fill="#ffffff" d="M 102.515625 319.1875 C 104.078125 323.828125 99.503906 327.589844 92.3125 327.589844 C 84.605469 327.589844 76.898438 327.589844 69.191406 327.589844 C 62 327.589844 57.429688 323.828125 58.988281 319.1875 C 62.824219 306.625 66.664062 294.0625 70.5 281.503906 C 72.058594 276.863281 75.015625 273.097656 77.101562 273.097656 C 79.535156 273.097656 81.96875 273.097656 84.402344 273.097656 C 86.492188 273.097656 89.445312 276.863281 91.003906 281.503906 C 94.84375 294.0625 98.679688 306.625 102.515625 319.1875 " fill-opacity="1" fill-rule="nonzero"/><g clip-path="url(#id2)"><path fill="#b3404a" d="M 102.515625 319.1875 L 101.363281 319.574219 C 101.53125 320.070312 101.605469 320.535156 101.609375 320.972656 C 101.605469 321.6875 101.410156 322.335938 101.027344 322.957031 C 100.453125 323.886719 99.402344 324.746094 97.914062 325.375 C 96.425781 325.996094 94.515625 326.375 92.3125 326.375 C 84.605469 326.375 76.898438 326.375 69.191406 326.375 C 66.253906 326.378906 63.84375 325.695312 62.25 324.675781 C 61.457031 324.167969 60.863281 323.578125 60.476562 322.957031 C 60.09375 322.335938 59.902344 321.6875 59.898438 320.972656 C 59.898438 320.535156 59.972656 320.070312 60.140625 319.574219 L 60.152344 319.539062 C 63.988281 306.980469 67.824219 294.417969 71.664062 281.859375 L 70.5 281.503906 L 71.652344 281.890625 C 72.386719 279.695312 73.46875 277.699219 74.558594 276.3125 C 75.105469 275.617188 75.648438 275.078125 76.117188 274.746094 C 76.585938 274.40625 76.953125 274.304688 77.101562 274.3125 C 79.535156 274.3125 81.96875 274.3125 84.402344 274.3125 C 84.554688 274.304688 84.921875 274.40625 85.390625 274.746094 C 86.09375 275.246094 86.960938 276.210938 87.757812 277.460938 C 88.558594 278.707031 89.300781 280.242188 89.851562 281.890625 L 91.003906 281.503906 L 89.84375 281.859375 C 93.679688 294.417969 97.519531 306.980469 101.355469 319.539062 L 101.363281 319.574219 L 102.515625 319.1875 L 103.679688 318.828125 C 99.839844 306.269531 96.003906 293.710938 92.167969 281.148438 L 92.15625 281.117188 C 91.332031 278.671875 90.15625 276.464844 88.859375 274.808594 C 88.207031 273.980469 87.527344 273.285156 86.804688 272.765625 C 86.082031 272.257812 85.296875 271.890625 84.402344 271.878906 C 81.96875 271.878906 79.535156 271.878906 77.101562 271.878906 C 76.207031 271.890625 75.421875 272.257812 74.703125 272.765625 C 73.621094 273.546875 72.621094 274.714844 71.699219 276.148438 C 70.78125 277.582031 69.964844 279.28125 69.347656 281.117188 L 69.339844 281.148438 C 65.5 293.710938 61.660156 306.269531 57.824219 318.828125 L 58.988281 319.1875 L 57.835938 318.796875 C 57.589844 319.523438 57.46875 320.257812 57.46875 320.972656 C 57.46875 322.148438 57.804688 323.269531 58.417969 324.246094 C 59.332031 325.710938 60.816406 326.84375 62.652344 327.617188 C 64.5 328.386719 66.714844 328.804688 69.191406 328.808594 C 76.898438 328.808594 84.605469 328.808594 92.3125 328.808594 C 95.617188 328.804688 98.457031 328.066406 100.5625 326.726562 C 101.613281 326.050781 102.480469 325.222656 103.089844 324.246094 C 103.699219 323.269531 104.039062 322.148438 104.039062 320.972656 C 104.039062 320.257812 103.914062 319.523438 103.671875 318.796875 L 102.515625 319.1875 L 103.679688 318.828125 L 102.515625 319.1875 " fill-opacity="1" fill-rule="nonzero"/></g><path fill="#ffffff" d="M 94.511719 273.097656 C 94.511719 275.351562 92.6875 277.175781 90.4375 277.175781 L 72.878906 277.175781 C 70.625 277.175781 68.800781 275.351562 68.800781 273.097656 C 68.800781 270.84375 70.625 269.019531 72.878906 269.019531 L 90.4375 269.019531 C 92.6875 269.019531 94.511719 270.84375 94.511719 273.097656 " fill-opacity="1" fill-rule="nonzero"/><path fill="#b3404a" d="M 94.511719 273.097656 L 93.296875 273.097656 C 93.292969 273.890625 92.976562 274.601562 92.457031 275.125 C 91.9375 275.644531 91.226562 275.960938 90.4375 275.960938 L 72.878906 275.960938 C 72.082031 275.960938 71.375 275.644531 70.855469 275.125 C 70.335938 274.601562 70.015625 273.890625 70.015625 273.097656 C 70.015625 272.304688 70.332031 271.59375 70.855469 271.074219 C 71.375 270.554688 72.082031 270.234375 72.878906 270.234375 L 90.4375 270.234375 C 91.226562 270.234375 91.9375 270.554688 92.457031 271.074219 C 92.976562 271.59375 93.292969 272.304688 93.296875 273.097656 L 95.730469 273.097656 C 95.726562 270.171875 93.359375 267.804688 90.4375 267.800781 L 72.878906 267.800781 C 69.953125 267.804688 67.585938 270.171875 67.585938 273.097656 C 67.585938 276.023438 69.953125 278.390625 72.878906 278.390625 L 90.4375 278.390625 C 93.359375 278.390625 95.726562 276.023438 95.730469 273.097656 L 94.511719 273.097656 " fill-opacity="1" fill-rule="nonzero"/><path fill="#ffffff" d="M 316.242188 239.640625 C 314.234375 236.566406 310.851562 234.476562 306.960938 234.265625 L 306.960938 258 C 310.851562 257.789062 314.234375 255.699219 316.242188 252.625 L 316.242188 239.640625 " fill-opacity="1" fill-rule="nonzero"/><g clip-path="url(#id3)"><path fill="#b3404a" d="M 316.242188 239.640625 L 317.261719 238.972656 C 315.050781 235.59375 311.316406 233.285156 307.027344 233.050781 C 306.691406 233.035156 306.367188 233.152344 306.125 233.382812 C 305.882812 233.609375 305.746094 233.929688 305.746094 234.265625 L 305.746094 258 C 305.746094 258.335938 305.882812 258.65625 306.125 258.882812 C 306.367188 259.113281 306.691406 259.234375 307.027344 259.214844 C 311.316406 258.980469 315.050781 256.671875 317.261719 253.292969 C 317.390625 253.09375 317.460938 252.863281 317.460938 252.625 L 317.460938 239.640625 C 317.460938 239.402344 317.390625 239.171875 317.261719 238.972656 L 316.242188 239.640625 L 315.027344 239.640625 L 315.027344 252.625 L 316.242188 252.625 L 315.226562 251.960938 C 313.417969 254.722656 310.382812 256.597656 306.894531 256.789062 L 306.960938 258 L 308.175781 258 L 308.175781 234.265625 L 306.960938 234.265625 L 306.894531 235.476562 C 310.382812 235.671875 313.417969 237.542969 315.226562 240.304688 L 316.242188 239.640625 L 315.027344 239.640625 L 316.242188 239.640625 " fill-opacity="1" fill-rule="nonzero"/></g><path fill="#ffffff" d="M 148.4375 239.640625 C 150.445312 236.566406 153.828125 234.476562 157.71875 234.265625 L 157.71875 258 C 153.828125 257.789062 150.445312 255.699219 148.4375 252.625 L 148.4375 239.640625 " fill-opacity="1" fill-rule="nonzero"/><path fill="#b3404a" d="M 148.4375 239.640625 L 149.453125 240.304688 C 151.261719 237.542969 154.296875 235.671875 157.785156 235.476562 L 157.71875 234.265625 L 156.503906 234.265625 L 156.503906 258 L 157.71875 258 L 157.785156 256.789062 C 154.296875 256.597656 151.261719 254.722656 149.453125 251.960938 L 148.4375 252.625 L 149.652344 252.625 L 149.652344 239.640625 L 148.4375 239.640625 L 149.453125 240.304688 L 148.4375 239.640625 L 147.222656 239.640625 L 147.222656 252.625 C 147.222656 252.863281 147.289062 253.09375 147.417969 253.292969 C 149.625 256.671875 153.363281 258.980469 157.652344 259.214844 C 157.988281 259.234375 158.3125 259.113281 158.554688 258.882812 C 158.796875 258.65625 158.933594 258.335938 158.933594 258 L 158.933594 234.265625 C 158.933594 233.929688 158.796875 233.609375 158.554688 233.382812 C 158.3125 233.152344 157.988281 233.035156 157.652344 233.050781 C 153.363281 233.285156 149.625 235.59375 147.417969 238.972656 C 147.289062 239.171875 147.222656 239.402344 147.222656 239.640625 L 148.4375 239.640625 " fill-opacity="1" fill-rule="nonzero"/><path fill="#ffffff" d="M 298.6875 268.097656 L 165.992188 268.097656 L 165.992188 224.167969 L 298.6875 224.167969 L 298.6875 268.097656 " fill-opacity="1" fill-rule="nonzero"/><path fill="#b3404a" d="M 298.6875 268.097656 L 298.6875 266.878906 L 167.210938 266.878906 L 167.210938 225.382812 L 297.46875 225.382812 L 297.46875 268.097656 L 298.6875 268.097656 L 298.6875 266.878906 L 298.6875 268.097656 L 299.902344 268.097656 L 299.902344 224.167969 C 299.902344 223.847656 299.773438 223.53125 299.546875 223.308594 C 299.320312 223.082031 299.003906 222.949219 298.6875 222.949219 L 165.992188 222.949219 C 165.675781 222.949219 165.359375 223.082031 165.132812 223.308594 C 164.910156 223.53125 164.777344 223.847656 164.777344 224.167969 L 164.777344 268.097656 C 164.777344 268.417969 164.910156 268.730469 165.132812 268.957031 C 165.359375 269.183594 165.675781 269.3125 165.992188 269.3125 L 298.6875 269.3125 C 299.003906 269.3125 299.320312 269.183594 299.546875 268.957031 C 299.773438 268.730469 299.902344 268.417969 299.902344 268.097656 L 298.6875 268.097656 " fill-opacity="1" fill-rule="nonzero"/><path fill="#ffffff" d="M 240.464844 147.589844 C 239.769531 143.726562 236.402344 140.792969 232.339844 140.792969 C 228.28125 140.792969 224.910156 143.726562 224.214844 147.589844 C 205.308594 151.242188 190.859375 167.378906 189.78125 187.085938 L 274.898438 187.085938 C 273.820312 167.378906 259.371094 151.242188 240.464844 147.589844 " fill-opacity="1" fill-rule="nonzero"/><path fill="#b3404a" d="M 240.464844 147.589844 L 241.664062 147.375 C 240.867188 142.941406 237 139.582031 232.339844 139.578125 C 227.679688 139.582031 223.816406 142.941406 223.019531 147.375 L 224.214844 147.589844 L 223.980469 146.394531 C 204.539062 150.152344 189.675781 166.75 188.570312 187.019531 C 188.550781 187.355469 188.671875 187.683594 188.898438 187.921875 C 189.125 188.167969 189.445312 188.300781 189.78125 188.300781 L 274.898438 188.300781 C 275.234375 188.300781 275.550781 188.167969 275.78125 187.921875 C 276.007812 187.683594 276.128906 187.355469 276.113281 187.019531 C 275.003906 166.75 260.140625 150.152344 240.695312 146.394531 L 240.464844 147.589844 L 241.664062 147.375 L 240.464844 147.589844 L 240.234375 148.785156 C 258.59375 152.328125 272.640625 168.011719 273.683594 187.152344 L 274.898438 187.085938 L 274.898438 185.871094 L 189.78125 185.871094 L 189.78125 187.085938 L 190.996094 187.152344 C 192.039062 168.011719 206.085938 152.328125 224.445312 148.785156 C 224.9375 148.6875 225.320312 148.300781 225.410156 147.804688 C 226.003906 144.515625 228.878906 142.007812 232.339844 142.011719 C 235.800781 142.007812 238.675781 144.515625 239.269531 147.804688 C 239.359375 148.300781 239.742188 148.6875 240.234375 148.785156 L 240.464844 147.589844 " fill-opacity="1" fill-rule="nonzero"/><path fill="#ffffff" d="M 273.894531 315.960938 C 273.894531 319.65625 270.898438 322.65625 267.203125 322.65625 L 197.476562 322.65625 C 193.78125 322.65625 190.78125 319.65625 190.78125 315.960938 L 190.78125 196.144531 C 190.78125 192.449219 193.78125 189.449219 197.476562 189.449219 L 267.203125 189.449219 C 270.898438 189.449219 273.894531 192.449219 273.894531 196.144531 L 273.894531 315.960938 " fill-opacity="1" fill-rule="nonzero"/><path fill="#b3404a" d="M 273.894531 315.960938 L 272.679688 315.960938 C 272.679688 317.480469 272.066406 318.839844 271.074219 319.835938 C 270.078125 320.828125 268.71875 321.441406 267.203125 321.441406 L 197.476562 321.441406 C 195.960938 321.441406 194.601562 320.828125 193.601562 319.835938 C 192.609375 318.839844 192 317.480469 192 315.960938 L 192 196.144531 C 192 194.625 192.609375 193.265625 193.601562 192.269531 C 194.601562 191.277344 195.960938 190.667969 197.476562 190.664062 L 267.203125 190.664062 C 268.71875 190.667969 270.078125 191.277344 271.074219 192.269531 C 272.066406 193.265625 272.679688 194.625 272.679688 196.144531 L 272.679688 315.960938 L 275.109375 315.960938 L 275.109375 196.144531 C 275.109375 191.777344 271.570312 188.234375 267.203125 188.234375 L 197.476562 188.234375 C 193.109375 188.234375 189.570312 191.777344 189.566406 196.144531 L 189.566406 315.960938 C 189.570312 320.328125 193.109375 323.871094 197.476562 323.871094 L 267.203125 323.871094 C 271.570312 323.871094 275.109375 320.328125 275.109375 315.960938 L 273.894531 315.960938 " fill-opacity="1" fill-rule="nonzero"/><path fill="#b3404a" d="M 280.394531 322.65625 L 184.285156 322.65625 L 184.285156 310.375 L 280.394531 310.375 L 280.394531 322.65625 " fill-opacity="1" fill-rule="nonzero"/><path fill="#b3404a" d="M 280.394531 322.65625 L 280.394531 321.441406 L 185.5 321.441406 L 185.5 311.59375 L 279.179688 311.59375 L 279.179688 322.65625 L 280.394531 322.65625 L 280.394531 321.441406 L 280.394531 322.65625 L 281.609375 322.65625 L 281.609375 310.375 C 281.609375 310.054688 281.480469 309.742188 281.253906 309.515625 C 281.03125 309.289062 280.714844 309.160156 280.394531 309.160156 L 184.285156 309.160156 C 183.964844 309.160156 183.648438 309.289062 183.425781 309.515625 C 183.199219 309.742188 183.070312 310.054688 183.070312 310.375 L 183.070312 322.65625 C 183.070312 322.976562 183.199219 323.289062 183.425781 323.515625 C 183.648438 323.742188 183.964844 323.871094 184.285156 323.871094 L 280.394531 323.871094 C 280.714844 323.871094 281.027344 323.742188 281.253906 323.515625 C 281.480469 323.289062 281.609375 322.976562 281.609375 322.65625 L 280.394531 322.65625 " fill-opacity="1" fill-rule="nonzero"/><path fill="#ffffff" d="M 286.394531 328.796875 L 178.285156 328.796875 L 178.285156 316.515625 L 286.394531 316.515625 L 286.394531 328.796875 " fill-opacity="1" fill-rule="nonzero"/><g clip-path="url(#id4)"><path fill="#b3404a" d="M 286.394531 328.796875 L 286.394531 327.582031 L 179.5 327.582031 L 179.5 317.734375 L 285.179688 317.734375 L 285.179688 328.796875 L 286.394531 328.796875 L 286.394531 327.582031 L 286.394531 328.796875 L 287.613281 328.796875 L 287.613281 316.515625 C 287.613281 316.195312 287.480469 315.882812 287.253906 315.65625 C 287.03125 315.429688 286.714844 315.300781 286.394531 315.300781 L 178.285156 315.300781 C 177.964844 315.300781 177.652344 315.429688 177.425781 315.65625 C 177.199219 315.882812 177.066406 316.195312 177.066406 316.515625 L 177.066406 328.796875 C 177.066406 329.117188 177.199219 329.429688 177.425781 329.65625 C 177.652344 329.882812 177.964844 330.011719 178.285156 330.011719 L 286.394531 330.011719 C 286.714844 330.011719 287.03125 329.882812 287.253906 329.65625 C 287.480469 329.429688 287.613281 329.117188 287.613281 328.796875 L 286.394531 328.796875 " fill-opacity="1" fill-rule="nonzero"/></g><path fill="#ffffff" d="M 280.394531 195.589844 L 184.285156 195.589844 L 184.285156 183.308594 L 280.394531 183.308594 L 280.394531 195.589844 " fill-opacity="1" fill-rule="nonzero"/><path fill="#b3404a" d="M 280.394531 195.589844 L 280.394531 194.375 L 185.5 194.375 L 185.5 184.523438 L 279.179688 184.523438 L 279.179688 195.589844 L 280.394531 195.589844 L 280.394531 194.375 L 280.394531 195.589844 L 281.609375 195.589844 L 281.609375 183.308594 C 281.609375 182.988281 281.480469 182.675781 281.253906 182.449219 C 281.03125 182.222656 280.714844 182.09375 280.394531 182.09375 L 184.285156 182.09375 C 183.964844 182.09375 183.648438 182.222656 183.425781 182.449219 C 183.199219 182.675781 183.070312 182.988281 183.070312 183.308594 L 183.070312 195.589844 C 183.070312 195.910156 183.199219 196.222656 183.425781 196.449219 C 183.648438 196.675781 183.964844 196.804688 184.285156 196.804688 L 280.394531 196.804688 C 280.714844 196.804688 281.027344 196.675781 281.253906 196.449219 C 281.480469 196.222656 281.609375 195.910156 281.609375 195.589844 L 280.394531 195.589844 " fill-opacity="1" fill-rule="nonzero"/><path fill="#b3404a" d="M 258.257812 246.132812 C 258.257812 260.453125 246.65625 272.0625 232.339844 272.0625 C 218.023438 272.0625 206.417969 260.453125 206.417969 246.132812 C 206.417969 231.8125 218.023438 220.203125 232.339844 220.203125 C 246.65625 220.203125 258.257812 231.8125 258.257812 246.132812 " fill-opacity="1" fill-rule="nonzero"/><path fill="#b3404a" d="M 258.257812 246.132812 L 257.042969 246.132812 C 257.042969 252.960938 254.28125 259.132812 249.808594 263.605469 C 245.335938 268.082031 239.164062 270.84375 232.339844 270.84375 C 225.515625 270.84375 219.347656 268.082031 214.871094 263.605469 C 210.398438 259.132812 207.636719 252.960938 207.632812 246.132812 C 207.636719 239.308594 210.398438 233.136719 214.871094 228.660156 C 219.347656 224.183594 225.515625 221.421875 232.339844 221.421875 C 239.164062 221.421875 245.335938 224.183594 249.808594 228.660156 C 254.28125 233.136719 257.042969 239.308594 257.042969 246.132812 L 259.472656 246.132812 C 259.472656 231.144531 247.328125 218.988281 232.339844 218.988281 C 217.351562 218.988281 205.207031 231.144531 205.203125 246.132812 C 205.207031 261.125 217.351562 273.273438 232.339844 273.277344 C 247.328125 273.277344 259.472656 261.125 259.472656 246.132812 L 258.257812 246.132812 " fill-opacity="1" fill-rule="nonzero"/><path fill="#ffffff" d="M 253.796875 246.132812 C 253.796875 257.988281 244.191406 267.597656 232.339844 267.597656 C 220.492188 267.597656 210.882812 257.988281 210.882812 246.132812 C 210.882812 234.277344 220.492188 224.671875 232.339844 224.671875 C 244.191406 224.671875 253.796875 234.277344 253.796875 246.132812 " fill-opacity="1" fill-rule="nonzero"/><path fill="#b3404a" d="M 253.796875 246.132812 L 252.582031 246.132812 C 252.578125 251.730469 250.320312 256.78125 246.652344 260.453125 C 242.988281 264.117188 237.933594 266.378906 232.339844 266.378906 C 226.746094 266.378906 221.691406 264.117188 218.027344 260.453125 C 214.363281 256.78125 212.097656 251.730469 212.097656 246.132812 C 212.097656 240.539062 214.363281 235.484375 218.027344 231.816406 C 221.691406 228.148438 226.746094 225.886719 232.339844 225.886719 C 237.933594 225.886719 242.988281 228.148438 246.652344 231.816406 C 250.320312 235.484375 252.578125 240.539062 252.582031 246.132812 L 255.011719 246.132812 C 255.011719 233.605469 244.859375 223.453125 232.339844 223.453125 C 219.820312 223.453125 209.667969 233.605469 209.667969 246.132812 C 209.667969 258.660156 219.820312 268.8125 232.339844 268.8125 C 244.859375 268.8125 255.011719 258.660156 255.011719 246.132812 L 253.796875 246.132812 " fill-opacity="1" fill-rule="nonzero"/><path fill="#b3404a" d="M 240.292969 246.132812 C 240.292969 250.527344 236.730469 254.085938 232.339844 254.085938 C 227.949219 254.085938 224.386719 250.527344 224.386719 246.132812 C 224.386719 241.738281 227.949219 238.179688 232.339844 238.179688 C 236.730469 238.179688 240.292969 241.738281 240.292969 246.132812 " fill-opacity="1" fill-rule="nonzero"/><path fill="#b3404a" d="M 240.292969 246.132812 L 239.078125 246.132812 C 239.074219 247.996094 238.324219 249.675781 237.101562 250.898438 C 235.878906 252.117188 234.203125 252.871094 232.339844 252.871094 C 230.476562 252.871094 228.800781 252.117188 227.578125 250.898438 C 226.355469 249.675781 225.601562 247.996094 225.601562 246.132812 C 225.601562 244.269531 226.355469 242.589844 227.578125 241.367188 C 228.800781 240.144531 230.476562 239.394531 232.339844 239.394531 C 234.203125 239.394531 235.878906 240.144531 237.101562 241.367188 C 238.324219 242.589844 239.074219 244.269531 239.078125 246.132812 L 241.507812 246.132812 C 241.503906 241.066406 237.402344 236.964844 232.339844 236.964844 C 227.277344 236.964844 223.171875 241.066406 223.171875 246.132812 C 223.171875 251.199219 227.277344 255.300781 232.339844 255.300781 C 237.402344 255.300781 241.503906 251.199219 241.507812 246.132812 L 240.292969 246.132812 " fill-opacity="1" fill-rule="nonzero"/><path fill="#b3404a" d="M 311.082031 258.066406 C 311.082031 261.765625 308.089844 264.761719 304.390625 264.761719 L 299.832031 264.761719 C 296.132812 264.761719 293.140625 261.765625 293.140625 258.066406 L 293.140625 234.199219 C 293.140625 230.5 296.132812 227.503906 299.832031 227.503906 L 304.390625 227.503906 C 308.089844 227.503906 311.082031 230.5 311.082031 234.199219 L 311.082031 258.066406 " fill-opacity="1" fill-rule="nonzero"/><path fill="#b3404a" d="M 311.082031 258.066406 L 309.867188 258.066406 C 309.867188 259.582031 309.257812 260.945312 308.261719 261.941406 C 307.269531 262.933594 305.90625 263.546875 304.390625 263.546875 L 299.832031 263.546875 C 298.316406 263.546875 296.953125 262.933594 295.960938 261.941406 C 294.964844 260.945312 294.355469 259.582031 294.355469 258.066406 L 294.355469 234.199219 C 294.355469 232.683594 294.964844 231.320312 295.960938 230.324219 C 296.953125 229.332031 298.316406 228.71875 299.832031 228.71875 L 304.390625 228.71875 C 305.90625 228.71875 307.269531 229.332031 308.261719 230.324219 C 309.257812 231.320312 309.867188 232.683594 309.867188 234.199219 L 309.867188 258.066406 L 312.296875 258.066406 L 312.296875 234.199219 C 312.296875 229.828125 308.757812 226.289062 304.390625 226.289062 L 299.832031 226.289062 C 295.464844 226.289062 291.921875 229.828125 291.921875 234.199219 L 291.921875 258.066406 C 291.921875 262.4375 295.464844 265.976562 299.832031 265.976562 L 304.390625 265.976562 C 308.757812 265.976562 312.296875 262.4375 312.296875 258.066406 L 311.082031 258.066406 " fill-opacity="1" fill-rule="nonzero"/><path fill="#b3404a" d="M 171.539062 258.066406 C 171.539062 261.765625 168.542969 264.761719 164.847656 264.761719 L 160.289062 264.761719 C 156.589844 264.761719 153.597656 261.765625 153.597656 258.066406 L 153.597656 234.199219 C 153.597656 230.5 156.589844 227.503906 160.289062 227.503906 L 164.847656 227.503906 C 168.542969 227.503906 171.539062 230.5 171.539062 234.199219 L 171.539062 258.066406 " fill-opacity="1" fill-rule="nonzero"/><path fill="#b3404a" d="M 171.539062 258.066406 L 170.324219 258.066406 C 170.320312 259.582031 169.714844 260.945312 168.71875 261.941406 C 167.726562 262.933594 166.363281 263.546875 164.847656 263.546875 L 160.289062 263.546875 C 158.773438 263.546875 157.410156 262.933594 156.414062 261.941406 C 155.421875 260.945312 154.8125 259.582031 154.8125 258.066406 L 154.8125 234.199219 C 154.8125 232.683594 155.421875 231.320312 156.414062 230.324219 C 157.410156 229.332031 158.773438 228.71875 160.289062 228.71875 L 164.847656 228.71875 C 166.363281 228.71875 167.726562 229.332031 168.71875 230.324219 C 169.714844 231.320312 170.320312 232.683594 170.324219 234.199219 L 170.324219 258.066406 L 172.757812 258.066406 L 172.757812 234.199219 C 172.753906 229.828125 169.21875 226.289062 164.847656 226.289062 L 160.289062 226.289062 C 155.921875 226.289062 152.382812 229.828125 152.382812 234.199219 L 152.382812 258.066406 C 152.382812 262.4375 155.921875 265.976562 160.289062 265.976562 L 164.847656 265.976562 C 169.21875 265.976562 172.753906 262.4375 172.757812 258.066406 L 171.539062 258.066406 " fill-opacity="1" fill-rule="nonzero"/><path fill="#ffffff" d="M 303.765625 265.738281 C 303.765625 269.128906 301.015625 271.878906 297.625 271.878906 C 294.234375 271.878906 291.488281 269.128906 291.488281 265.738281 L 291.488281 226.527344 C 291.488281 223.136719 294.234375 220.386719 297.625 220.386719 C 301.015625 220.386719 303.765625 223.136719 303.765625 226.527344 L 303.765625 265.738281 " fill-opacity="1" fill-rule="nonzero"/><path fill="#b3404a" d="M 303.765625 265.738281 L 302.546875 265.738281 C 302.546875 267.097656 302 268.324219 301.109375 269.21875 C 300.210938 270.109375 298.988281 270.660156 297.625 270.660156 C 296.265625 270.660156 295.039062 270.109375 294.144531 269.21875 C 293.25 268.324219 292.703125 267.097656 292.703125 265.738281 L 292.703125 226.527344 C 292.703125 225.167969 293.25 223.941406 294.144531 223.046875 C 295.039062 222.15625 296.265625 221.609375 297.625 221.605469 C 298.988281 221.609375 300.210938 222.15625 301.109375 223.046875 C 302 223.941406 302.546875 225.167969 302.546875 226.527344 L 302.546875 265.738281 L 304.980469 265.738281 L 304.980469 226.527344 C 304.980469 222.464844 301.6875 219.175781 297.625 219.171875 C 293.5625 219.175781 290.269531 222.464844 290.269531 226.527344 L 290.269531 265.738281 C 290.269531 269.800781 293.5625 273.09375 297.625 273.09375 C 301.6875 273.09375 304.980469 269.800781 304.980469 265.738281 L 303.765625 265.738281 " fill-opacity="1" fill-rule="nonzero"/><path fill="#ffffff" d="M 173.191406 265.738281 C 173.191406 269.128906 170.445312 271.878906 167.054688 271.878906 C 163.664062 271.878906 160.917969 269.128906 160.917969 265.738281 L 160.917969 226.527344 C 160.917969 223.136719 163.664062 220.386719 167.054688 220.386719 C 170.445312 220.386719 173.191406 223.136719 173.191406 226.527344 L 173.191406 265.738281 " fill-opacity="1" fill-rule="nonzero"/><path fill="#b3404a" d="M 173.191406 265.738281 L 171.976562 265.738281 C 171.972656 267.097656 171.425781 268.324219 170.535156 269.21875 C 169.640625 270.109375 168.414062 270.660156 167.054688 270.660156 C 165.691406 270.660156 164.46875 270.109375 163.574219 269.21875 C 162.679688 268.324219 162.132812 267.097656 162.132812 265.738281 L 162.132812 226.527344 C 162.132812 225.167969 162.679688 223.941406 163.574219 223.046875 C 164.46875 222.15625 165.691406 221.609375 167.054688 221.605469 C 168.414062 221.609375 169.640625 222.15625 170.535156 223.046875 C 171.425781 223.941406 171.972656 225.167969 171.976562 226.527344 L 171.976562 265.738281 L 174.410156 265.738281 L 174.410156 226.527344 C 174.40625 222.464844 171.117188 219.175781 167.054688 219.171875 C 162.992188 219.175781 159.699219 222.464844 159.699219 226.527344 L 159.699219 265.738281 C 159.699219 269.800781 162.988281 273.09375 167.054688 273.09375 C 171.117188 273.09375 174.40625 269.800781 174.410156 265.738281 L 173.191406 265.738281 " fill-opacity="1" fill-rule="nonzero"/></svg>