<svg xmlns="http://www.w3.org/2000/svg" xmlns:xlink="http://www.w3.org/1999/xlink" width="500" zoomAndPan="magnify" viewBox="0 0 375 374.999991" height="500" preserveAspectRatio="xMidYMid meet" version="1.0"><defs><clipPath id="id1"><path d="M 61.632812 15.804688 L 313.632812 15.804688 L 313.632812 337.527344 L 61.632812 337.527344 Z M 61.632812 15.804688 " clip-rule="nonzero"/></clipPath></defs><path fill="#ffedec" d="M 187.5 0 C 83.945312 0 0 83.945312 0 187.5 C 0 291.054688 83.945312 375 187.5 375 C 291.054688 375 375 291.054688 375 187.5 C 375 83.945312 291.054688 0 187.5 0 " fill-opacity="1" fill-rule="nonzero"/><g clip-path="url(#id1)"><path fill="#b3404a" d="M 308.46875 38.417969 L 308.574219 34.585938 L 298.296875 33.886719 L 298.296875 26.824219 L 196.417969 26.824219 L 93.035156 15.894531 L 92.652344 19.539062 L 87.398438 19.238281 L 86.875 26.824219 L 77.035156 26.824219 L 77.035156 170.597656 L 61.769531 314.265625 L 66.761719 314.792969 L 66.605469 318.5 L 77.035156 319.214844 L 77.035156 326.929688 L 180.332031 326.929688 L 282.265625 337.527344 L 282.667969 333.664062 L 287.757812 334.09375 L 288.269531 326.929688 L 298.296875 326.929688 L 298.296875 181.984375 L 313.511719 38.960938 L 308.46875 38.417969 " fill-opacity="1" fill-rule="nonzero"/><path fill="#f4b2b0" d="M 195.160156 26.648438 L 92.652344 19.496094 L 93.035156 15.804688 L 196.417969 26.648438 Z M 184.164062 326.71875 L 282.667969 333.609375 L 282.265625 337.421875 L 180.332031 326.71875 Z M 76.757812 171.175781 L 66.691406 314.792969 L 61.632812 314.265625 L 76.757812 170.597656 Z M 308.46875 38.417969 L 313.667969 38.960938 L 298.613281 181.984375 L 298.613281 178.976562 L 308.46875 38.417969 " fill-opacity="1" fill-rule="evenodd"/></g><path fill="#f4b2b0" d="M 224.179688 258.757812 C 225.488281 258.246094 226.65625 258.105469 227.683594 258.339844 L 227.71875 258.339844 C 229.164062 258.640625 230.238281 259.632812 230.9375 261.3125 C 232.574219 265.183594 231.675781 269.238281 228.242188 273.484375 C 226.257812 275.976562 223.457031 278.359375 219.839844 280.617188 C 219.886719 280.828125 219.957031 281.027344 220.050781 281.214844 L 220.015625 281.179688 C 220.738281 282.835938 222.234375 283.765625 224.5 283.976562 C 226.105469 284.117188 227.382812 284.011719 228.3125 283.660156 C 229.246094 283.199219 231.007812 281.386719 233.601562 278.242188 C 238.523438 272.203125 242.597656 269.9375 245.820312 271.457031 C 245.863281 271.480469 245.910156 271.5 245.957031 271.523438 C 248.921875 273.113281 249.972656 275.628906 249.109375 279.078125 C 249.085938 279.175781 248.957031 279.699219 248.722656 280.652344 C 248.722656 280.863281 248.78125 281.109375 248.898438 281.386719 L 248.933594 281.425781 C 249.332031 282.097656 250.3125 282.226562 251.875 281.808594 C 253.253906 281.414062 255.75 280.304688 259.367188 278.488281 L 259.367188 278.519531 C 263.125 276.609375 266.125 275.328125 268.363281 274.671875 L 268.328125 274.671875 C 271.480469 273.695312 273.394531 274.265625 274.070312 276.386719 L 274.070312 276.421875 C 274.722656 278.101562 274.914062 279.351562 274.628906 280.164062 C 274.609375 280.164062 274.59375 280.175781 274.59375 280.199219 C 274.363281 281.109375 273.800781 281.867188 272.914062 282.472656 C 272.894531 282.472656 272.867188 282.484375 272.84375 282.507812 C 272.308594 282.835938 271.84375 283.148438 271.445312 283.453125 L 271.410156 283.488281 C 270.804688 283.90625 270.394531 284.421875 270.1875 285.027344 C 270.09375 285.308594 270.078125 285.527344 270.148438 285.691406 C 270.476562 285.855469 271.070312 286.039062 271.9375 286.25 C 273.265625 286.53125 274.1875 286.871094 274.703125 287.261719 L 274.738281 287.300781 C 275.949219 288.164062 276.394531 289.246094 276.066406 290.554688 L 276.066406 290.585938 C 275.878906 291.429688 275.296875 292.21875 274.316406 292.964844 C 273.523438 293.574219 272.8125 294.003906 272.179688 294.257812 L 272.179688 294.226562 C 270.757812 294.832031 268.644531 295.089844 265.84375 294.992188 C 264.558594 294.949219 261.96875 294.703125 258.070312 294.257812 C 250.789062 293.464844 245.421875 293.546875 241.96875 294.503906 C 241.59375 294.597656 241.242188 294.550781 240.917969 294.367188 C 240.566406 294.179688 240.34375 293.898438 240.253906 293.527344 C 240.136719 293.152344 240.171875 292.800781 240.355469 292.476562 C 240.542969 292.128906 240.824219 291.90625 241.195312 291.8125 C 244.886719 290.738281 250.613281 290.621094 258.386719 291.460938 L 258.386719 291.496094 C 262.167969 291.917969 264.6875 292.148438 265.949219 292.195312 C 268.210938 292.292969 269.941406 292.101562 271.128906 291.636719 L 271.164062 291.636719 C 271.585938 291.449219 272.074219 291.148438 272.636719 290.726562 C 273.007812 290.445312 273.242188 290.179688 273.335938 289.921875 C 273.3125 289.78125 273.230469 289.667969 273.089844 289.574219 C 272.742188 289.363281 272.15625 289.164062 271.339844 288.980469 L 271.304688 288.980469 C 269.996094 288.675781 269.101562 288.363281 268.609375 288.035156 L 268.574219 288 C 267.265625 287.230469 266.917969 285.945312 267.523438 284.152344 L 267.523438 284.117188 C 267.921875 282.972656 268.679688 282.007812 269.800781 281.214844 C 270.269531 280.863281 270.792969 280.503906 271.375 280.128906 L 271.304688 280.164062 C 271.609375 279.953125 271.820312 279.710938 271.9375 279.429688 C 271.9375 279.40625 271.9375 279.382812 271.9375 279.359375 C 271.984375 278.964844 271.828125 278.324219 271.480469 277.4375 C 271.152344 276.996094 270.382812 276.957031 269.167969 277.332031 L 269.167969 277.367188 C 267.046875 277.996094 264.199219 279.207031 260.625 281.003906 C 256.777344 282.914062 254.101562 284.082031 252.609375 284.5 C 249.128906 285.433594 247.03125 284.746094 246.308594 282.4375 C 245.9375 281.527344 245.828125 280.722656 245.992188 280.023438 L 245.992188 279.988281 C 246.226562 279.011719 246.355469 278.488281 246.378906 278.414062 C 246.867188 276.457031 246.328125 275 244.769531 274.042969 L 244.734375 274.042969 C 242.539062 273.390625 239.550781 275.386719 235.769531 280.023438 C 232.710938 283.753906 230.589844 285.832031 229.398438 286.25 C 228.160156 286.789062 226.445312 286.964844 224.253906 286.773438 L 224.214844 286.773438 C 220.738281 286.425781 218.476562 284.910156 217.425781 282.226562 C 217.402344 282.179688 217.390625 282.132812 217.390625 282.089844 C 214.238281 283.863281 210.703125 285.574219 206.78125 287.230469 C 206.710938 287.253906 206.664062 287.277344 206.644531 287.300781 C 204.9375 287.789062 203.246094 287.789062 201.566406 287.300781 C 201.191406 287.183594 200.914062 286.949219 200.722656 286.597656 C 200.539062 286.25 200.503906 285.898438 200.621094 285.550781 C 200.714844 285.179688 200.933594 284.898438 201.285156 284.710938 C 201.636719 284.527344 202 284.488281 202.371094 284.609375 C 203.492188 284.933594 204.625 284.933594 205.769531 284.609375 C 209.828125 282.878906 213.46875 281.097656 216.6875 279.253906 C 216.527344 278.300781 216.433594 277.261719 216.410156 276.140625 L 216.410156 276.105469 C 216.433594 273.796875 216.726562 271.480469 217.285156 269.144531 C 218.707031 263.363281 220.996094 259.902344 224.148438 258.757812 Z M 227.125 261.066406 C 226.5625 260.972656 225.921875 261.078125 225.199219 261.382812 L 225.199219 261.347656 C 222.886719 262.398438 221.160156 265.21875 220.015625 269.808594 C 219.503906 271.933594 219.234375 274.03125 219.210938 276.105469 L 219.210938 276.140625 C 219.210938 276.65625 219.246094 277.15625 219.316406 277.644531 C 222.164062 275.757812 224.417969 273.785156 226.074219 271.734375 C 228.710938 268.472656 229.46875 265.34375 228.347656 262.359375 C 228.066406 261.660156 227.648438 261.230469 227.089844 261.066406 Z M 105.78125 286.707031 C 105.359375 291.765625 106.773438 296.140625 110.015625 299.824219 C 113.261719 303.507812 117.402344 305.453125 122.445312 305.664062 C 127.484375 305.871094 131.945312 304.277344 135.816406 300.871094 C 139.761719 297.441406 141.96875 293.1875 142.433594 288.105469 C 142.855469 282.996094 141.40625 278.570312 138.09375 274.8125 C 134.78125 271.082031 130.566406 269.15625 125.453125 269.042969 C 120.414062 268.878906 115.96875 270.535156 112.117188 274.007812 C 108.289062 277.457031 106.175781 281.691406 105.78125 286.707031 Z M 116 278.414062 C 113.433594 280.722656 112.023438 283.558594 111.765625 286.914062 C 111.464844 290.320312 112.40625 293.257812 114.601562 295.730469 C 116.773438 298.203125 119.550781 299.503906 122.933594 299.648438 C 126.296875 299.785156 129.292969 298.714844 131.929688 296.429688 C 134.523438 294.121094 135.980469 291.285156 136.304688 287.929688 C 136.589844 284.480469 135.621094 281.507812 133.402344 279.011719 C 131.183594 276.515625 128.359375 275.222656 124.929688 275.128906 C 121.570312 275.011719 118.59375 276.105469 116 278.414062 Z M 117.785156 290.132812 C 119 292.929688 120.953125 295.039062 123.632812 296.464844 C 126.0625 295.039062 127.835938 293.128906 128.953125 290.726562 L 128.78125 281.179688 L 117.542969 280.792969 Z M 129.550781 279.816406 C 129.691406 279.816406 129.828125 279.875 129.972656 279.988281 C 130.066406 280.128906 130.121094 280.269531 130.148438 280.410156 L 130.179688 280.441406 L 130.390625 290.726562 C 130.367188 290.773438 130.355469 290.820312 130.355469 290.867188 C 130.332031 290.914062 130.320312 290.960938 130.320312 291.007812 L 130.285156 291.042969 C 129.003906 293.957031 126.878906 296.21875 123.914062 297.828125 C 123.84375 297.851562 123.785156 297.863281 123.738281 297.863281 C 123.671875 297.910156 123.609375 297.933594 123.5625 297.933594 C 123.445312 297.910156 123.34375 297.875 123.25 297.828125 L 123.25 297.863281 C 120.097656 296.277344 117.832031 293.875 116.457031 290.65625 L 116.421875 290.621094 C 116.398438 290.527344 116.386719 290.460938 116.386719 290.410156 L 116.144531 280.128906 C 116.144531 279.941406 116.199219 279.777344 116.316406 279.640625 C 116.339844 279.59375 116.375 279.570312 116.421875 279.570312 C 116.554688 279.460938 116.71875 279.402344 116.910156 279.394531 L 129.515625 279.851562 Z M 103.433594 286.773438 C 103.875 281.0625 106.269531 276.234375 110.609375 272.292969 C 114.976562 268.332031 120.027344 266.429688 125.769531 266.59375 C 131.535156 266.734375 136.285156 268.914062 140.019531 273.132812 C 143.238281 276.769531 144.882812 280.980469 144.953125 285.761719 C 144.953125 286.507812 144.933594 287.277344 144.882812 288.070312 C 144.324219 293.851562 141.816406 298.703125 137.355469 302.621094 C 132.921875 306.46875 127.835938 308.273438 122.09375 308.042969 C 116.445312 307.785156 111.800781 305.59375 108.160156 301.464844 C 105.054688 297.898438 103.457031 293.792969 103.363281 289.15625 C 103.339844 288.363281 103.363281 287.570312 103.433594 286.773438 Z M 114.460938 276.703125 L 114.496094 276.703125 C 117.601562 273.929688 121.195312 272.597656 125.277344 272.714844 C 129.339844 272.808594 132.679688 274.347656 135.292969 277.332031 C 137.929688 280.292969 139.074219 283.800781 138.722656 287.859375 C 138.324219 291.964844 136.5625 295.390625 133.4375 298.140625 C 130.285156 300.894531 126.691406 302.199219 122.652344 302.0625 C 118.640625 301.875 115.324219 300.3125 112.710938 297.375 C 110.140625 294.457031 109.035156 290.996094 109.382812 286.984375 C 109.710938 282.925781 111.402344 279.5 114.460938 276.703125 Z M 92.652344 19.496094 L 195.160156 26.648438 L 86.875 26.648438 L 87.398438 19.128906 Z M 308.46875 38.417969 L 298.613281 178.976562 L 298.613281 33.886719 L 308.730469 34.585938 Z M 66.691406 314.792969 L 76.757812 171.175781 L 76.757812 319.214844 L 66.429688 318.5 Z M 184.164062 326.71875 L 288.269531 326.71875 L 287.757812 333.960938 L 282.667969 333.609375 L 184.164062 326.71875 " fill-opacity="1" fill-rule="evenodd"/><path fill="#ffffff" d="M 227.125 261.066406 L 227.089844 261.066406 C 227.648438 261.230469 228.066406 261.660156 228.347656 262.359375 C 229.46875 265.34375 228.710938 268.472656 226.074219 271.734375 C 224.417969 273.785156 222.164062 275.757812 219.316406 277.644531 C 219.246094 277.15625 219.210938 276.65625 219.210938 276.140625 L 219.210938 276.105469 C 219.234375 274.03125 219.503906 271.933594 220.015625 269.808594 C 221.160156 265.21875 222.886719 262.398438 225.199219 261.347656 L 225.199219 261.382812 C 225.921875 261.078125 226.5625 260.972656 227.125 261.066406 Z M 224.179688 258.757812 L 224.148438 258.757812 C 220.996094 259.902344 218.707031 263.363281 217.285156 269.144531 C 216.726562 271.480469 216.433594 273.796875 216.410156 276.105469 L 216.410156 276.140625 C 216.433594 277.261719 216.527344 278.300781 216.6875 279.253906 C 213.46875 281.097656 209.828125 282.878906 205.769531 284.609375 C 204.625 284.933594 203.492188 284.933594 202.371094 284.609375 C 202 284.488281 201.636719 284.527344 201.285156 284.710938 C 200.933594 284.898438 200.714844 285.179688 200.621094 285.550781 C 200.503906 285.898438 200.539062 286.25 200.722656 286.597656 C 200.914062 286.949219 201.191406 287.183594 201.566406 287.300781 C 203.246094 287.789062 204.9375 287.789062 206.644531 287.300781 C 206.664062 287.277344 206.710938 287.253906 206.78125 287.230469 C 210.703125 285.574219 214.238281 283.863281 217.390625 282.089844 C 217.390625 282.132812 217.402344 282.179688 217.425781 282.226562 C 218.476562 284.910156 220.738281 286.425781 224.214844 286.773438 L 224.253906 286.773438 C 226.445312 286.964844 228.160156 286.789062 229.398438 286.25 C 230.589844 285.832031 232.710938 283.753906 235.769531 280.023438 C 239.550781 275.386719 242.539062 273.390625 244.734375 274.042969 L 244.769531 274.042969 C 246.328125 275 246.867188 276.457031 246.378906 278.414062 C 246.355469 278.488281 246.226562 279.011719 245.992188 279.988281 L 245.992188 280.023438 C 245.828125 280.722656 245.9375 281.527344 246.308594 282.4375 C 247.03125 284.746094 249.128906 285.433594 252.609375 284.5 C 254.101562 284.082031 256.777344 282.914062 260.625 281.003906 C 264.199219 279.207031 267.046875 277.996094 269.167969 277.367188 L 269.167969 277.332031 C 270.382812 276.957031 271.152344 276.996094 271.480469 277.4375 C 271.828125 278.324219 271.984375 278.964844 271.9375 279.359375 C 271.9375 279.382812 271.9375 279.40625 271.9375 279.429688 C 271.820312 279.710938 271.609375 279.953125 271.304688 280.164062 L 271.375 280.128906 C 270.792969 280.503906 270.269531 280.863281 269.800781 281.214844 C 268.679688 282.007812 267.921875 282.972656 267.523438 284.117188 L 267.523438 284.152344 C 266.917969 285.945312 267.265625 287.230469 268.574219 288 L 268.609375 288.035156 C 269.101562 288.363281 269.996094 288.675781 271.304688 288.980469 L 271.339844 288.980469 C 272.15625 289.164062 272.742188 289.363281 273.089844 289.574219 C 273.230469 289.667969 273.3125 289.78125 273.335938 289.921875 C 273.242188 290.179688 273.007812 290.445312 272.636719 290.726562 C 272.074219 291.148438 271.585938 291.449219 271.164062 291.636719 L 271.128906 291.636719 C 269.941406 292.101562 268.210938 292.292969 265.949219 292.195312 C 264.6875 292.148438 262.167969 291.917969 258.386719 291.496094 L 258.386719 291.460938 C 250.613281 290.621094 244.886719 290.738281 241.195312 291.8125 C 240.824219 291.90625 240.542969 292.128906 240.355469 292.476562 C 240.171875 292.800781 240.136719 293.152344 240.253906 293.527344 C 240.34375 293.898438 240.566406 294.179688 240.917969 294.367188 C 241.242188 294.550781 241.59375 294.597656 241.96875 294.503906 C 245.421875 293.546875 250.789062 293.464844 258.070312 294.257812 C 261.96875 294.703125 264.558594 294.949219 265.84375 294.992188 C 268.644531 295.089844 270.757812 294.832031 272.179688 294.226562 L 272.179688 294.257812 C 272.8125 294.003906 273.523438 293.574219 274.316406 292.964844 C 275.296875 292.21875 275.878906 291.429688 276.066406 290.585938 L 276.066406 290.554688 C 276.394531 289.246094 275.949219 288.164062 274.738281 287.300781 L 274.703125 287.261719 C 274.1875 286.871094 273.265625 286.53125 271.9375 286.25 C 271.070312 286.039062 270.476562 285.855469 270.148438 285.691406 C 270.078125 285.527344 270.09375 285.308594 270.1875 285.027344 C 270.394531 284.421875 270.804688 283.90625 271.410156 283.488281 L 271.445312 283.453125 C 271.84375 283.148438 272.308594 282.835938 272.84375 282.507812 C 272.867188 282.484375 272.894531 282.472656 272.914062 282.472656 C 273.800781 281.867188 274.363281 281.109375 274.59375 280.199219 C 274.59375 280.175781 274.609375 280.164062 274.628906 280.164062 C 274.914062 279.351562 274.722656 278.101562 274.070312 276.421875 L 274.070312 276.386719 C 273.394531 274.265625 271.480469 273.695312 268.328125 274.671875 L 268.363281 274.671875 C 266.125 275.328125 263.125 276.609375 259.367188 278.519531 L 259.367188 278.488281 C 255.75 280.304688 253.253906 281.414062 251.875 281.808594 C 250.3125 282.226562 249.332031 282.097656 248.933594 281.425781 L 248.898438 281.386719 C 248.78125 281.109375 248.722656 280.863281 248.722656 280.652344 C 248.957031 279.699219 249.085938 279.175781 249.109375 279.078125 C 249.972656 275.628906 248.921875 273.113281 245.957031 271.523438 C 245.910156 271.5 245.863281 271.480469 245.820312 271.457031 C 242.597656 269.9375 238.523438 272.203125 233.601562 278.242188 C 231.007812 281.386719 229.246094 283.199219 228.3125 283.660156 C 227.382812 284.011719 226.105469 284.117188 224.5 283.976562 C 222.234375 283.765625 220.738281 282.835938 220.015625 281.179688 L 220.050781 281.214844 C 219.957031 281.027344 219.886719 280.828125 219.839844 280.617188 C 223.457031 278.359375 226.257812 275.976562 228.242188 273.484375 C 231.675781 269.238281 232.574219 265.183594 230.9375 261.3125 C 230.238281 259.632812 229.164062 258.640625 227.71875 258.339844 L 227.683594 258.339844 C 226.65625 258.105469 225.488281 258.246094 224.179688 258.757812 Z M 99.019531 223.78125 L 99.019531 232.667969 L 270.011719 232.667969 L 270.011719 223.78125 Z M 114.460938 276.703125 C 111.402344 279.5 109.710938 282.925781 109.382812 286.984375 C 109.035156 290.996094 110.140625 294.457031 112.710938 297.375 C 115.324219 300.3125 118.640625 301.875 122.652344 302.0625 C 126.691406 302.199219 130.285156 300.894531 133.4375 298.140625 C 136.5625 295.390625 138.324219 291.964844 138.722656 287.859375 C 139.074219 283.800781 137.929688 280.292969 135.292969 277.332031 C 132.679688 274.347656 129.339844 272.808594 125.277344 272.714844 C 121.195312 272.597656 117.601562 273.929688 114.496094 276.703125 Z M 103.433594 286.773438 C 103.363281 287.570312 103.339844 288.363281 103.363281 289.15625 C 103.457031 293.792969 105.054688 297.898438 108.160156 301.464844 C 111.800781 305.59375 116.445312 307.785156 122.09375 308.042969 C 127.835938 308.273438 132.921875 306.46875 137.355469 302.621094 C 141.816406 298.703125 144.324219 293.851562 144.882812 288.070312 C 144.933594 287.277344 144.953125 286.507812 144.953125 285.761719 C 144.882812 280.980469 143.238281 276.769531 140.019531 273.132812 C 136.285156 268.914062 131.535156 266.734375 125.769531 266.59375 C 120.027344 266.429688 114.976562 268.332031 110.609375 272.292969 C 106.269531 276.234375 103.875 281.0625 103.433594 286.773438 Z M 129.550781 279.816406 L 129.515625 279.851562 L 116.910156 279.394531 C 116.71875 279.402344 116.554688 279.460938 116.421875 279.570312 C 116.375 279.570312 116.339844 279.59375 116.316406 279.640625 C 116.199219 279.777344 116.144531 279.941406 116.144531 280.128906 L 116.386719 290.410156 C 116.386719 290.460938 116.398438 290.527344 116.421875 290.621094 L 116.457031 290.65625 C 117.832031 293.875 120.097656 296.277344 123.25 297.863281 L 123.25 297.828125 C 123.34375 297.875 123.445312 297.910156 123.5625 297.933594 C 123.609375 297.933594 123.671875 297.910156 123.738281 297.863281 C 123.785156 297.863281 123.84375 297.851562 123.914062 297.828125 C 126.878906 296.21875 129.003906 293.957031 130.285156 291.042969 L 130.320312 291.007812 C 130.320312 290.960938 130.332031 290.914062 130.355469 290.867188 C 130.355469 290.820312 130.367188 290.773438 130.390625 290.726562 L 130.179688 280.441406 L 130.148438 280.410156 C 130.121094 280.269531 130.066406 280.128906 129.972656 279.988281 C 129.828125 279.875 129.691406 279.816406 129.550781 279.816406 Z M 117.785156 290.132812 L 117.542969 280.792969 L 128.78125 281.179688 L 128.953125 290.726562 C 127.835938 293.128906 126.0625 295.039062 123.632812 296.464844 C 120.953125 295.039062 119 292.929688 117.785156 290.132812 Z M 116 278.414062 C 118.59375 276.105469 121.570312 275.011719 124.929688 275.128906 C 128.359375 275.222656 131.183594 276.515625 133.402344 279.011719 C 135.621094 281.507812 136.589844 284.480469 136.304688 287.929688 C 135.980469 291.285156 134.523438 294.121094 131.929688 296.429688 C 129.292969 298.714844 126.296875 299.785156 122.933594 299.648438 C 119.550781 299.503906 116.773438 298.203125 114.601562 295.730469 C 112.40625 293.257812 111.464844 290.320312 111.765625 286.914062 C 112.023438 283.558594 113.433594 280.722656 116 278.414062 Z M 105.78125 286.707031 C 106.175781 281.691406 108.289062 277.457031 112.117188 274.007812 C 115.96875 270.535156 120.414062 268.878906 125.453125 269.042969 C 130.566406 269.15625 134.78125 271.082031 138.09375 274.8125 C 141.40625 278.570312 142.855469 282.996094 142.433594 288.105469 C 141.96875 293.1875 139.761719 297.441406 135.816406 300.871094 C 131.945312 304.277344 127.484375 305.871094 122.445312 305.664062 C 117.402344 305.453125 113.261719 303.507812 110.015625 299.824219 C 106.773438 296.140625 105.359375 291.765625 105.78125 286.707031 Z M 99.09375 156.378906 L 99.09375 165.261719 L 211.789062 165.261719 L 211.789062 156.378906 Z M 99.019531 176.246094 L 99.019531 185.132812 L 270.011719 185.132812 L 270.011719 176.246094 Z M 98.988281 194.714844 L 98.988281 203.597656 L 235.910156 203.597656 L 235.910156 194.714844 Z M 99.128906 241.863281 L 99.128906 250.746094 L 148.492188 250.746094 L 148.492188 241.863281 Z M 111.097656 50.292969 C 109.675781 50.292969 108.335938 50.539062 107.074219 51.027344 C 105.816406 51.519531 104.703125 52.230469 103.746094 53.160156 C 102.839844 54.046875 102.125 55.121094 101.613281 56.378906 C 101.101562 57.617188 100.84375 58.933594 100.84375 60.332031 C 100.84375 61.753906 101.101562 63.070312 101.613281 64.285156 C 102.105469 65.566406 102.816406 66.652344 103.746094 67.539062 C 104.683594 68.449219 105.789062 69.148438 107.074219 69.636719 C 108.359375 70.148438 109.699219 70.394531 111.097656 70.371094 C 112.5 70.371094 113.84375 70.125 115.125 69.636719 C 116.363281 69.148438 117.460938 68.433594 118.417969 67.5 C 119.5625 66.382812 120.367188 64.996094 120.832031 63.339844 L 116.875 62.117188 C 116.597656 63.117188 116.144531 63.96875 115.511719 64.667969 C 114.976562 65.300781 114.320312 65.777344 113.550781 66.101562 C 112.757812 66.429688 111.941406 66.59375 111.097656 66.59375 C 110.261719 66.59375 109.441406 66.429688 108.648438 66.101562 C 107.878906 65.777344 107.226562 65.300781 106.691406 64.667969 C 105.6875 63.550781 105.183594 62.105469 105.183594 60.332031 C 105.183594 58.582031 105.6875 57.148438 106.691406 56.03125 C 107.226562 55.398438 107.878906 54.910156 108.648438 54.558594 C 109.421875 54.234375 110.238281 54.070312 111.097656 54.070312 C 111.941406 54.070312 112.757812 54.234375 113.550781 54.558594 C 114.320312 54.886719 114.976562 55.367188 115.511719 55.996094 C 116.144531 56.695312 116.597656 57.558594 116.875 58.582031 L 120.832031 57.324219 C 120.390625 55.691406 119.582031 54.304688 118.417969 53.160156 C 117.460938 52.230469 116.363281 51.519531 115.125 51.027344 C 113.816406 50.539062 112.476562 50.292969 111.097656 50.292969 Z M 133.226562 54.105469 C 134.066406 54.105469 134.875 54.269531 135.640625 54.597656 C 136.433594 54.921875 137.089844 55.398438 137.601562 56.03125 C 138.605469 57.171875 139.105469 58.605469 139.105469 60.332031 C 139.105469 62.082031 138.605469 63.527344 137.601562 64.667969 C 137.089844 65.273438 136.433594 65.753906 135.640625 66.101562 C 134.875 66.429688 134.066406 66.59375 133.226562 66.59375 C 132.386719 66.59375 131.570312 66.429688 130.777344 66.101562 C 129.984375 65.730469 129.328125 65.253906 128.816406 64.667969 C 127.8125 63.550781 127.3125 62.105469 127.3125 60.332031 C 127.3125 58.582031 127.8125 57.148438 128.816406 56.03125 C 129.355469 55.398438 130.003906 54.921875 130.777344 54.597656 C 131.546875 54.269531 132.363281 54.105469 133.226562 54.105469 Z M 133.226562 50.292969 C 131.804688 50.292969 130.449219 50.546875 129.164062 51.0625 C 127.929688 51.550781 126.832031 52.25 125.875 53.160156 C 124.964844 54.09375 124.253906 55.167969 123.738281 56.378906 C 123.226562 57.617188 122.96875 58.933594 122.96875 60.332031 C 122.96875 61.753906 123.226562 63.070312 123.738281 64.285156 C 124.253906 65.566406 124.964844 66.652344 125.875 67.539062 C 126.808594 68.449219 127.902344 69.148438 129.164062 69.636719 C 130.472656 70.148438 131.828125 70.394531 133.226562 70.371094 C 134.628906 70.371094 135.96875 70.125 137.253906 69.636719 C 138.535156 69.148438 139.632812 68.449219 140.542969 67.539062 C 141.476562 66.628906 142.191406 65.542969 142.679688 64.285156 C 143.214844 63.070312 143.484375 61.753906 143.484375 60.332031 C 143.484375 58.933594 143.214844 57.617188 142.679688 56.378906 C 142.191406 55.140625 141.476562 54.070312 140.542969 53.160156 C 139.609375 52.230469 138.515625 51.53125 137.253906 51.0625 C 135.96875 50.546875 134.628906 50.292969 133.226562 50.292969 Z M 168.621094 50.292969 L 168.621094 54.175781 L 175.238281 54.175781 L 175.238281 70.371094 L 179.441406 70.371094 L 179.441406 54.175781 L 186.089844 54.175781 L 186.089844 50.292969 Z M 161.445312 50.292969 L 161.445312 63.0625 L 149.332031 50.292969 L 147.265625 50.292969 L 147.265625 70.371094 L 151.433594 70.371094 L 151.433594 57.640625 L 163.582031 70.371094 L 165.683594 70.371094 L 165.683594 50.292969 Z M 235.910156 128.398438 L 235.910156 119.515625 L 98.988281 119.515625 L 98.988281 128.398438 Z M 270.011719 109.929688 L 270.011719 101.042969 L 99.019531 101.042969 L 99.019531 109.929688 Z M 270.011719 146.863281 L 270.011719 137.980469 L 99.019531 137.980469 L 99.019531 146.863281 Z M 270.011719 91.601562 L 270.011719 82.71875 L 99.019531 82.71875 L 99.019531 91.601562 Z M 214.871094 63.550781 L 218.054688 55.503906 L 221.242188 63.550781 Z M 200.832031 57.570312 C 200.640625 57.847656 200.351562 58.058594 199.957031 58.199219 C 199.535156 58.386719 199.128906 58.480469 198.730469 58.480469 L 193.199219 58.480469 L 193.199219 54.175781 L 198.695312 54.175781 C 199.117188 54.175781 199.535156 54.269531 199.957031 54.457031 C 200.816406 54.804688 201.238281 55.421875 201.214844 56.308594 C 201.214844 56.84375 201.089844 57.265625 200.832031 57.570312 Z M 188.996094 50.292969 L 188.996094 70.371094 L 193.199219 70.371094 L 193.199219 62.253906 L 196.910156 62.253906 L 201.707031 70.371094 L 206.398438 70.371094 L 201.425781 61.871094 C 202.523438 61.5 203.386719 60.9375 204.015625 60.191406 C 204.878906 59.214844 205.324219 57.917969 205.347656 56.308594 C 205.347656 53.792969 204.332031 52.042969 202.300781 51.0625 C 201.25 50.574219 200.222656 50.316406 199.21875 50.292969 Z M 215.988281 50.292969 L 207.972656 70.371094 L 212.136719 70.371094 L 213.363281 67.363281 L 222.746094 67.363281 L 223.972656 70.371094 L 228.101562 70.371094 L 220.121094 50.292969 Z M 247.253906 53.160156 C 246.296875 52.230469 245.199219 51.519531 243.960938 51.027344 C 242.652344 50.539062 241.3125 50.292969 239.933594 50.292969 C 238.511719 50.292969 237.171875 50.539062 235.910156 51.027344 C 234.652344 51.519531 233.539062 52.230469 232.582031 53.160156 C 231.675781 54.046875 230.960938 55.121094 230.449219 56.378906 C 229.9375 57.617188 229.679688 58.933594 229.679688 60.332031 C 229.679688 61.753906 229.9375 63.070312 230.449219 64.285156 C 230.9375 65.566406 231.652344 66.652344 232.582031 67.539062 C 233.519531 68.449219 234.625 69.148438 235.910156 69.636719 C 237.195312 70.148438 238.535156 70.394531 239.933594 70.371094 C 241.335938 70.371094 242.679688 70.125 243.960938 69.636719 C 245.199219 69.148438 246.296875 68.433594 247.253906 67.5 C 248.417969 66.382812 249.226562 64.996094 249.667969 63.339844 L 245.710938 62.117188 C 245.433594 63.117188 244.980469 63.96875 244.347656 64.667969 C 243.835938 65.300781 243.179688 65.777344 242.386719 66.101562 C 241.59375 66.429688 240.777344 66.59375 239.933594 66.59375 C 239.09375 66.59375 238.277344 66.429688 237.484375 66.101562 C 236.714844 65.777344 236.0625 65.300781 235.527344 64.667969 C 234.542969 63.550781 234.042969 62.105469 234.019531 60.332031 C 234.019531 58.582031 234.523438 57.148438 235.527344 56.03125 C 236.0625 55.398438 236.714844 54.910156 237.484375 54.558594 C 238.257812 54.234375 239.074219 54.070312 239.933594 54.070312 C 240.800781 54.070312 241.617188 54.234375 242.386719 54.558594 C 243.15625 54.886719 243.8125 55.367188 244.347656 55.996094 C 244.980469 56.695312 245.433594 57.558594 245.710938 58.582031 L 249.667969 57.324219 C 249.226562 55.691406 248.417969 54.304688 247.253906 53.160156 Z M 250.964844 50.292969 L 250.964844 54.175781 L 257.582031 54.175781 L 257.582031 70.371094 L 261.785156 70.371094 L 261.785156 54.175781 L 268.398438 54.175781 L 268.398438 50.292969 Z M 288.269531 326.71875 L 76.757812 326.71875 L 76.757812 26.648438 L 298.613281 26.648438 L 298.613281 326.71875 L 288.269531 326.71875 " fill-opacity="1" fill-rule="evenodd"/><path fill="#eaebec" d="M 99.019531 223.78125 L 270.011719 223.78125 L 270.011719 232.667969 L 99.019531 232.667969 Z M 99.128906 241.863281 L 148.492188 241.863281 L 148.492188 250.746094 L 99.128906 250.746094 Z M 98.988281 194.714844 L 235.910156 194.714844 L 235.910156 203.597656 L 98.988281 203.597656 Z M 99.019531 176.246094 L 270.011719 176.246094 L 270.011719 185.132812 L 99.019531 185.132812 Z M 99.09375 156.378906 L 211.789062 156.378906 L 211.789062 165.261719 L 99.09375 165.261719 Z M 270.011719 91.601562 L 99.019531 91.601562 L 99.019531 82.71875 L 270.011719 82.71875 Z M 270.011719 146.863281 L 99.019531 146.863281 L 99.019531 137.980469 L 270.011719 137.980469 Z M 270.011719 109.929688 L 99.019531 109.929688 L 99.019531 101.042969 L 270.011719 101.042969 Z M 235.910156 128.398438 L 98.988281 128.398438 L 98.988281 119.515625 L 235.910156 119.515625 L 235.910156 128.398438 " fill-opacity="1" fill-rule="evenodd"/><path fill="#b3404a" d="M 161.445312 50.292969 L 165.683594 50.292969 L 165.683594 70.371094 L 163.582031 70.371094 L 151.433594 57.640625 L 151.433594 70.371094 L 147.265625 70.371094 L 147.265625 50.292969 L 149.332031 50.292969 L 161.445312 63.0625 Z M 168.621094 50.292969 L 186.089844 50.292969 L 186.089844 54.175781 L 179.441406 54.175781 L 179.441406 70.371094 L 175.238281 70.371094 L 175.238281 54.175781 L 168.621094 54.175781 Z M 133.226562 50.292969 C 134.628906 50.292969 135.96875 50.546875 137.253906 51.0625 C 138.515625 51.53125 139.609375 52.230469 140.542969 53.160156 C 141.476562 54.070312 142.191406 55.140625 142.679688 56.378906 C 143.214844 57.617188 143.484375 58.933594 143.484375 60.332031 C 143.484375 61.753906 143.214844 63.070312 142.679688 64.285156 C 142.191406 65.542969 141.476562 66.628906 140.542969 67.539062 C 139.632812 68.449219 138.535156 69.148438 137.253906 69.636719 C 135.96875 70.125 134.628906 70.371094 133.226562 70.371094 C 131.828125 70.394531 130.472656 70.148438 129.164062 69.636719 C 127.902344 69.148438 126.808594 68.449219 125.875 67.539062 C 124.964844 66.652344 124.253906 65.566406 123.738281 64.285156 C 123.226562 63.070312 122.96875 61.753906 122.96875 60.332031 C 122.96875 58.933594 123.226562 57.617188 123.738281 56.378906 C 124.253906 55.167969 124.964844 54.09375 125.875 53.160156 C 126.832031 52.25 127.929688 51.550781 129.164062 51.0625 C 130.449219 50.546875 131.804688 50.292969 133.226562 50.292969 Z M 133.226562 54.105469 C 132.363281 54.105469 131.546875 54.269531 130.777344 54.597656 C 130.003906 54.921875 129.355469 55.398438 128.816406 56.03125 C 127.8125 57.148438 127.3125 58.582031 127.3125 60.332031 C 127.3125 62.105469 127.8125 63.550781 128.816406 64.667969 C 129.328125 65.253906 129.984375 65.730469 130.777344 66.101562 C 131.570312 66.429688 132.386719 66.59375 133.226562 66.59375 C 134.066406 66.59375 134.875 66.429688 135.640625 66.101562 C 136.433594 65.753906 137.089844 65.273438 137.601562 64.667969 C 138.605469 63.527344 139.105469 62.082031 139.105469 60.332031 C 139.105469 58.605469 138.605469 57.171875 137.601562 56.03125 C 137.089844 55.398438 136.433594 54.921875 135.640625 54.597656 C 134.875 54.269531 134.066406 54.105469 133.226562 54.105469 Z M 111.097656 50.292969 C 112.476562 50.292969 113.816406 50.539062 115.125 51.027344 C 116.363281 51.519531 117.460938 52.230469 118.417969 53.160156 C 119.582031 54.304688 120.390625 55.691406 120.832031 57.324219 L 116.875 58.582031 C 116.597656 57.558594 116.144531 56.695312 115.511719 55.996094 C 114.976562 55.367188 114.320312 54.886719 113.550781 54.558594 C 112.757812 54.234375 111.941406 54.070312 111.097656 54.070312 C 110.238281 54.070312 109.421875 54.234375 108.648438 54.558594 C 107.878906 54.910156 107.226562 55.398438 106.691406 56.03125 C 105.6875 57.148438 105.183594 58.582031 105.183594 60.332031 C 105.183594 62.105469 105.6875 63.550781 106.691406 64.667969 C 107.226562 65.300781 107.878906 65.777344 108.648438 66.101562 C 109.441406 66.429688 110.261719 66.59375 111.097656 66.59375 C 111.941406 66.59375 112.757812 66.429688 113.550781 66.101562 C 114.320312 65.777344 114.976562 65.300781 115.511719 64.667969 C 116.144531 63.96875 116.597656 63.117188 116.875 62.117188 L 120.832031 63.339844 C 120.367188 64.996094 119.5625 66.382812 118.417969 67.5 C 117.460938 68.433594 116.363281 69.148438 115.125 69.636719 C 113.84375 70.125 112.5 70.371094 111.097656 70.371094 C 109.699219 70.394531 108.359375 70.148438 107.074219 69.636719 C 105.789062 69.148438 104.683594 68.449219 103.746094 67.539062 C 102.816406 66.652344 102.105469 65.566406 101.613281 64.285156 C 101.101562 63.070312 100.84375 61.753906 100.84375 60.332031 C 100.84375 58.933594 101.101562 57.617188 101.613281 56.378906 C 102.125 55.121094 102.839844 54.046875 103.746094 53.160156 C 104.703125 52.230469 105.816406 51.519531 107.074219 51.027344 C 108.335938 50.539062 109.675781 50.292969 111.097656 50.292969 Z M 188.996094 50.292969 L 199.21875 50.292969 C 200.222656 50.316406 201.25 50.574219 202.300781 51.0625 C 204.332031 52.042969 205.347656 53.792969 205.347656 56.308594 C 205.324219 57.917969 204.878906 59.214844 204.015625 60.191406 C 203.386719 60.9375 202.523438 61.5 201.425781 61.871094 L 206.398438 70.371094 L 201.707031 70.371094 L 196.910156 62.253906 L 193.199219 62.253906 L 193.199219 70.371094 L 188.996094 70.371094 Z M 200.832031 57.570312 C 201.089844 57.265625 201.214844 56.84375 201.214844 56.308594 C 201.238281 55.421875 200.816406 54.804688 199.957031 54.457031 C 199.535156 54.269531 199.117188 54.175781 198.695312 54.175781 L 193.199219 54.175781 L 193.199219 58.480469 L 198.730469 58.480469 C 199.128906 58.480469 199.535156 58.386719 199.957031 58.199219 C 200.351562 58.058594 200.640625 57.847656 200.832031 57.570312 Z M 214.871094 63.550781 L 221.242188 63.550781 L 218.054688 55.503906 Z M 250.964844 50.292969 L 268.398438 50.292969 L 268.398438 54.175781 L 261.785156 54.175781 L 261.785156 70.371094 L 257.582031 70.371094 L 257.582031 54.175781 L 250.964844 54.175781 Z M 247.253906 53.160156 C 248.417969 54.304688 249.226562 55.691406 249.667969 57.324219 L 245.710938 58.582031 C 245.433594 57.558594 244.980469 56.695312 244.347656 55.996094 C 243.8125 55.367188 243.15625 54.886719 242.386719 54.558594 C 241.617188 54.234375 240.800781 54.070312 239.933594 54.070312 C 239.074219 54.070312 238.257812 54.234375 237.484375 54.558594 C 236.714844 54.910156 236.0625 55.398438 235.527344 56.03125 C 234.523438 57.148438 234.019531 58.582031 234.019531 60.332031 C 234.042969 62.105469 234.542969 63.550781 235.527344 64.667969 C 236.0625 65.300781 236.714844 65.777344 237.484375 66.101562 C 238.277344 66.429688 239.09375 66.59375 239.933594 66.59375 C 240.777344 66.59375 241.59375 66.429688 242.386719 66.101562 C 243.179688 65.777344 243.835938 65.300781 244.347656 64.667969 C 244.980469 63.96875 245.433594 63.117188 245.710938 62.117188 L 249.667969 63.339844 C 249.226562 64.996094 248.417969 66.382812 247.253906 67.5 C 246.296875 68.433594 245.199219 69.148438 243.960938 69.636719 C 242.679688 70.125 241.335938 70.371094 239.933594 70.371094 C 238.535156 70.394531 237.195312 70.148438 235.910156 69.636719 C 234.625 69.148438 233.519531 68.449219 232.582031 67.539062 C 231.652344 66.652344 230.9375 65.566406 230.449219 64.285156 C 229.9375 63.070312 229.679688 61.753906 229.679688 60.332031 C 229.679688 58.933594 229.9375 57.617188 230.449219 56.378906 C 230.960938 55.121094 231.675781 54.046875 232.582031 53.160156 C 233.539062 52.230469 234.652344 51.519531 235.910156 51.027344 C 237.171875 50.539062 238.511719 50.292969 239.933594 50.292969 C 241.3125 50.292969 242.652344 50.539062 243.960938 51.027344 C 245.199219 51.519531 246.296875 52.230469 247.253906 53.160156 Z M 215.988281 50.292969 L 220.121094 50.292969 L 228.101562 70.371094 L 223.972656 70.371094 L 222.746094 67.363281 L 213.363281 67.363281 L 212.136719 70.371094 L 207.972656 70.371094 L 215.988281 50.292969 " fill-opacity="1" fill-rule="evenodd"/></svg>