<svg xmlns="http://www.w3.org/2000/svg" xmlns:xlink="http://www.w3.org/1999/xlink" width="500" zoomAndPan="magnify" viewBox="0 0 375 374.999991" height="500" preserveAspectRatio="xMidYMid meet" version="1.0"><defs><clipPath id="id1"><path d="M 42.0625 225 L 333.0625 225 L 333.0625 312.921875 L 42.0625 312.921875 Z M 42.0625 225 " clip-rule="nonzero"/></clipPath></defs><path fill="#ffedec" d="M 187.5 0 C 83.945312 0 0 83.945312 0 187.5 C 0 291.054688 83.945312 375 187.5 375 C 291.054688 375 375 291.054688 375 187.5 C 375 83.945312 291.054688 0 187.5 0 " fill-opacity="1" fill-rule="nonzero"/><path fill="#b3404a" d="M 105.71875 221.351562 C 106.613281 221.351562 107.503906 221.308594 108.390625 221.222656 C 109.28125 221.132812 110.164062 221.003906 111.039062 220.828125 C 111.917969 220.652344 112.78125 220.4375 113.636719 220.175781 C 114.492188 219.917969 115.332031 219.617188 116.160156 219.273438 C 116.984375 218.933594 117.789062 218.550781 118.578125 218.128906 C 119.367188 217.707031 120.132812 217.246094 120.875 216.75 C 121.617188 216.253906 122.335938 215.722656 123.027344 215.152344 C 123.714844 214.585938 124.378906 213.988281 125.007812 213.355469 C 125.640625 212.722656 126.242188 212.058594 126.808594 211.367188 C 127.375 210.675781 127.90625 209.960938 128.402344 209.214844 C 128.898438 208.472656 129.355469 207.707031 129.777344 206.917969 C 130.199219 206.128906 130.582031 205.320312 130.921875 204.496094 C 131.265625 203.667969 131.566406 202.828125 131.824219 201.972656 C 132.085938 201.117188 132.300781 200.25 132.476562 199.371094 C 132.648438 198.496094 132.78125 197.613281 132.867188 196.722656 C 132.957031 195.832031 133 194.941406 133 194.046875 C 133 193.152344 132.957031 192.257812 132.867188 191.367188 C 132.78125 190.476562 132.648438 189.59375 132.476562 188.71875 C 132.300781 187.839844 132.085938 186.972656 131.824219 186.117188 C 131.566406 185.261719 131.265625 184.421875 130.921875 183.59375 C 130.582031 182.769531 130.199219 181.960938 129.777344 181.171875 C 129.355469 180.382812 128.898438 179.617188 128.402344 178.875 C 127.90625 178.128906 127.375 177.414062 126.808594 176.722656 C 126.242188 176.03125 125.640625 175.367188 125.007812 174.734375 C 124.378906 174.101562 123.714844 173.503906 123.027344 172.9375 C 122.335938 172.367188 121.617188 171.835938 120.875 171.339844 C 120.132812 170.84375 119.367188 170.382812 118.578125 169.960938 C 117.789062 169.539062 116.984375 169.160156 116.160156 168.816406 C 115.332031 168.472656 114.492188 168.171875 113.636719 167.914062 C 112.78125 167.652344 111.917969 167.4375 111.039062 167.261719 C 110.164062 167.089844 109.28125 166.957031 108.390625 166.871094 C 107.503906 166.78125 106.613281 166.738281 105.71875 166.738281 C 104.824219 166.738281 103.933594 166.78125 103.042969 166.871094 C 102.15625 166.957031 101.273438 167.089844 100.394531 167.261719 C 99.519531 167.4375 98.652344 167.652344 97.800781 167.914062 C 96.945312 168.171875 96.105469 168.472656 95.277344 168.816406 C 94.453125 169.160156 93.644531 169.539062 92.859375 169.960938 C 92.070312 170.382812 91.304688 170.84375 90.5625 171.339844 C 89.820312 171.835938 89.101562 172.367188 88.410156 172.9375 C 87.71875 173.503906 87.058594 174.101562 86.425781 174.734375 C 85.796875 175.367188 85.195312 176.03125 84.628906 176.722656 C 84.0625 177.414062 83.53125 178.128906 83.035156 178.875 C 82.539062 179.617188 82.078125 180.382812 81.660156 181.171875 C 81.238281 181.960938 80.855469 182.769531 80.515625 183.59375 C 80.171875 184.421875 79.871094 185.261719 79.613281 186.117188 C 79.351562 186.972656 79.136719 187.839844 78.960938 188.71875 C 78.785156 189.59375 78.65625 190.476562 78.570312 191.367188 C 78.480469 192.257812 78.4375 193.152344 78.4375 194.046875 C 78.4375 194.941406 78.480469 195.832031 78.570312 196.722656 C 78.65625 197.613281 78.785156 198.496094 78.960938 199.371094 C 79.136719 200.25 79.351562 201.117188 79.613281 201.972656 C 79.871094 202.828125 80.171875 203.667969 80.515625 204.496094 C 80.855469 205.320312 81.238281 206.128906 81.660156 206.917969 C 82.078125 207.707031 82.539062 208.472656 83.035156 209.214844 C 83.53125 209.960938 84.0625 210.675781 84.628906 211.367188 C 85.195312 212.058594 85.796875 212.722656 86.425781 213.355469 C 87.058594 213.988281 87.71875 214.585938 88.410156 215.152344 C 89.101562 215.722656 89.820312 216.253906 90.5625 216.75 C 91.304688 217.246094 92.070312 217.707031 92.859375 218.128906 C 93.644531 218.550781 94.453125 218.933594 95.277344 219.273438 C 96.105469 219.617188 96.945312 219.917969 97.800781 220.175781 C 98.652344 220.4375 99.519531 220.652344 100.394531 220.828125 C 101.273438 221.003906 102.15625 221.132812 103.042969 221.222656 C 103.933594 221.308594 104.824219 221.351562 105.71875 221.351562 Z M 105.71875 175.839844 C 106.3125 175.839844 106.910156 175.871094 107.5 175.929688 C 108.09375 175.984375 108.683594 176.074219 109.265625 176.191406 C 109.851562 176.304688 110.429688 176.449219 110.996094 176.625 C 111.566406 176.796875 112.128906 176.996094 112.679688 177.226562 C 113.230469 177.453125 113.765625 177.707031 114.292969 177.988281 C 114.816406 178.269531 115.328125 178.578125 115.824219 178.910156 C 116.316406 179.238281 116.796875 179.59375 117.257812 179.972656 C 117.71875 180.351562 118.15625 180.75 118.578125 181.171875 C 119 181.59375 119.398438 182.035156 119.777344 182.496094 C 120.15625 182.957031 120.511719 183.433594 120.839844 183.929688 C 121.171875 184.425781 121.476562 184.9375 121.757812 185.464844 C 122.039062 185.988281 122.292969 186.527344 122.519531 187.078125 C 122.75 187.628906 122.949219 188.191406 123.121094 188.761719 C 123.296875 189.332031 123.441406 189.910156 123.554688 190.492188 C 123.671875 191.078125 123.761719 191.667969 123.816406 192.261719 C 123.875 192.855469 123.90625 193.449219 123.90625 194.046875 C 123.90625 194.640625 123.875 195.234375 123.816406 195.828125 C 123.761719 196.421875 123.671875 197.011719 123.554688 197.597656 C 123.441406 198.179688 123.296875 198.757812 123.121094 199.328125 C 122.949219 199.898438 122.75 200.460938 122.519531 201.011719 C 122.292969 201.5625 122.039062 202.101562 121.757812 202.625 C 121.476562 203.152344 121.171875 203.664062 120.839844 204.160156 C 120.511719 204.65625 120.15625 205.132812 119.777344 205.59375 C 119.398438 206.054688 119 206.496094 118.578125 206.917969 C 118.15625 207.339844 117.71875 207.738281 117.257812 208.117188 C 116.796875 208.496094 116.316406 208.851562 115.824219 209.183594 C 115.328125 209.511719 114.816406 209.820312 114.292969 210.101562 C 113.765625 210.382812 113.230469 210.636719 112.679688 210.863281 C 112.128906 211.09375 111.566406 211.292969 110.996094 211.464844 C 110.429688 211.640625 109.851562 211.785156 109.265625 211.898438 C 108.683594 212.015625 108.09375 212.105469 107.5 212.164062 C 106.910156 212.222656 106.3125 212.25 105.71875 212.25 C 105.121094 212.25 104.527344 212.222656 103.9375 212.164062 C 103.34375 212.105469 102.753906 212.015625 102.171875 211.898438 C 101.585938 211.785156 101.007812 211.640625 100.4375 211.464844 C 99.867188 211.292969 99.308594 211.09375 98.757812 210.863281 C 98.207031 210.636719 97.671875 210.382812 97.144531 210.101562 C 96.621094 209.820312 96.109375 209.511719 95.613281 209.183594 C 95.117188 208.851562 94.640625 208.496094 94.179688 208.117188 C 93.71875 207.738281 93.277344 207.339844 92.859375 206.917969 C 92.4375 206.496094 92.039062 206.054688 91.660156 205.59375 C 91.28125 205.132812 90.925781 204.65625 90.597656 204.160156 C 90.265625 203.664062 89.960938 203.152344 89.679688 202.625 C 89.398438 202.101562 89.144531 201.5625 88.914062 201.011719 C 88.6875 200.460938 88.488281 199.898438 88.3125 199.328125 C 88.140625 198.757812 87.996094 198.179688 87.878906 197.597656 C 87.765625 197.011719 87.675781 196.421875 87.617188 195.828125 C 87.558594 195.234375 87.53125 194.640625 87.53125 194.046875 C 87.53125 193.449219 87.558594 192.855469 87.617188 192.261719 C 87.675781 191.667969 87.765625 191.078125 87.878906 190.492188 C 87.996094 189.910156 88.140625 189.332031 88.3125 188.761719 C 88.488281 188.191406 88.6875 187.628906 88.914062 187.078125 C 89.144531 186.527344 89.398438 185.988281 89.679688 185.464844 C 89.960938 184.9375 90.265625 184.425781 90.597656 183.929688 C 90.925781 183.433594 91.28125 182.957031 91.660156 182.496094 C 92.039062 182.035156 92.4375 181.59375 92.859375 181.171875 C 93.277344 180.75 93.71875 180.351562 94.179688 179.972656 C 94.640625 179.59375 95.117188 179.238281 95.613281 178.910156 C 96.109375 178.578125 96.621094 178.269531 97.144531 177.988281 C 97.671875 177.707031 98.207031 177.453125 98.757812 177.226562 C 99.308594 176.996094 99.867188 176.796875 100.4375 176.625 C 101.007812 176.449219 101.585938 176.304688 102.171875 176.191406 C 102.753906 176.074219 103.34375 175.984375 103.9375 175.929688 C 104.527344 175.871094 105.121094 175.839844 105.71875 175.839844 Z M 105.71875 175.839844 " fill-opacity="1" fill-rule="nonzero"/><path fill="#b3404a" d="M 269.40625 221.351562 C 270.300781 221.351562 271.191406 221.308594 272.078125 221.222656 C 272.96875 221.132812 273.851562 221.003906 274.726562 220.828125 C 275.605469 220.652344 276.46875 220.4375 277.324219 220.175781 C 278.179688 219.917969 279.019531 219.617188 279.847656 219.273438 C 280.671875 218.933594 281.476562 218.550781 282.265625 218.128906 C 283.054688 217.707031 283.820312 217.246094 284.5625 216.75 C 285.304688 216.253906 286.023438 215.722656 286.714844 215.152344 C 287.402344 214.585938 288.066406 213.988281 288.695312 213.355469 C 289.328125 212.722656 289.929688 212.058594 290.496094 211.367188 C 291.0625 210.675781 291.59375 209.960938 292.089844 209.214844 C 292.585938 208.472656 293.042969 207.707031 293.464844 206.917969 C 293.886719 206.128906 294.269531 205.320312 294.609375 204.496094 C 294.953125 203.667969 295.253906 202.828125 295.511719 201.972656 C 295.773438 201.117188 295.988281 200.25 296.164062 199.371094 C 296.335938 198.496094 296.46875 197.613281 296.554688 196.722656 C 296.644531 195.832031 296.6875 194.941406 296.6875 194.046875 C 296.6875 193.152344 296.644531 192.257812 296.554688 191.367188 C 296.46875 190.476562 296.335938 189.59375 296.164062 188.71875 C 295.988281 187.839844 295.773438 186.972656 295.511719 186.117188 C 295.253906 185.261719 294.953125 184.421875 294.609375 183.59375 C 294.269531 182.769531 293.886719 181.960938 293.464844 181.171875 C 293.042969 180.382812 292.585938 179.617188 292.089844 178.875 C 291.59375 178.128906 291.0625 177.414062 290.496094 176.722656 C 289.929688 176.03125 289.328125 175.367188 288.695312 174.734375 C 288.066406 174.101562 287.402344 173.503906 286.714844 172.9375 C 286.023438 172.367188 285.304688 171.835938 284.5625 171.339844 C 283.820312 170.84375 283.054688 170.382812 282.265625 169.960938 C 281.476562 169.539062 280.671875 169.160156 279.847656 168.816406 C 279.019531 168.472656 278.179688 168.171875 277.324219 167.914062 C 276.46875 167.652344 275.605469 167.4375 274.726562 167.261719 C 273.851562 167.089844 272.96875 166.957031 272.078125 166.871094 C 271.191406 166.78125 270.300781 166.738281 269.40625 166.738281 C 268.511719 166.738281 267.621094 166.78125 266.730469 166.871094 C 265.84375 166.957031 264.960938 167.089844 264.082031 167.261719 C 263.207031 167.4375 262.339844 167.652344 261.488281 167.914062 C 260.632812 168.171875 259.792969 168.472656 258.964844 168.816406 C 258.140625 169.160156 257.332031 169.539062 256.546875 169.960938 C 255.757812 170.382812 254.992188 170.84375 254.25 171.339844 C 253.507812 171.835938 252.789062 172.367188 252.097656 172.9375 C 251.40625 173.503906 250.746094 174.101562 250.113281 174.734375 C 249.484375 175.367188 248.882812 176.03125 248.316406 176.722656 C 247.75 177.414062 247.21875 178.128906 246.722656 178.875 C 246.226562 179.617188 245.765625 180.382812 245.347656 181.171875 C 244.925781 181.960938 244.542969 182.769531 244.203125 183.59375 C 243.859375 184.421875 243.558594 185.261719 243.300781 186.117188 C 243.039062 186.972656 242.824219 187.839844 242.648438 188.71875 C 242.472656 189.59375 242.34375 190.476562 242.257812 191.367188 C 242.167969 192.257812 242.125 193.152344 242.125 194.046875 C 242.125 194.941406 242.167969 195.832031 242.257812 196.722656 C 242.34375 197.613281 242.472656 198.496094 242.648438 199.371094 C 242.824219 200.25 243.039062 201.117188 243.300781 201.972656 C 243.558594 202.828125 243.859375 203.667969 244.203125 204.496094 C 244.542969 205.320312 244.925781 206.128906 245.347656 206.917969 C 245.765625 207.707031 246.226562 208.472656 246.722656 209.214844 C 247.21875 209.960938 247.75 210.675781 248.316406 211.367188 C 248.882812 212.058594 249.484375 212.722656 250.113281 213.355469 C 250.746094 213.988281 251.40625 214.585938 252.097656 215.152344 C 252.789062 215.722656 253.507812 216.253906 254.25 216.75 C 254.992188 217.246094 255.757812 217.707031 256.546875 218.128906 C 257.332031 218.550781 258.140625 218.933594 258.964844 219.273438 C 259.792969 219.617188 260.632812 219.917969 261.488281 220.175781 C 262.339844 220.4375 263.207031 220.652344 264.082031 220.828125 C 264.960938 221.003906 265.84375 221.132812 266.730469 221.222656 C 267.621094 221.308594 268.511719 221.351562 269.40625 221.351562 Z M 269.40625 175.839844 C 270 175.839844 270.597656 175.871094 271.1875 175.929688 C 271.78125 175.984375 272.371094 176.074219 272.953125 176.191406 C 273.539062 176.304688 274.117188 176.449219 274.683594 176.625 C 275.253906 176.796875 275.816406 176.996094 276.367188 177.226562 C 276.917969 177.453125 277.453125 177.707031 277.980469 177.988281 C 278.503906 178.269531 279.015625 178.578125 279.511719 178.910156 C 280.003906 179.238281 280.484375 179.59375 280.945312 179.972656 C 281.40625 180.351562 281.84375 180.75 282.265625 181.171875 C 282.6875 181.59375 283.085938 182.035156 283.464844 182.496094 C 283.84375 182.957031 284.199219 183.433594 284.527344 183.929688 C 284.859375 184.425781 285.164062 184.9375 285.445312 185.464844 C 285.726562 185.988281 285.980469 186.527344 286.207031 187.078125 C 286.4375 187.628906 286.636719 188.191406 286.808594 188.761719 C 286.984375 189.332031 287.128906 189.910156 287.242188 190.492188 C 287.359375 191.078125 287.449219 191.667969 287.503906 192.261719 C 287.5625 192.855469 287.59375 193.449219 287.59375 194.046875 C 287.59375 194.640625 287.5625 195.234375 287.503906 195.828125 C 287.449219 196.421875 287.359375 197.011719 287.242188 197.597656 C 287.128906 198.179688 286.984375 198.757812 286.808594 199.328125 C 286.636719 199.898438 286.4375 200.460938 286.207031 201.011719 C 285.980469 201.5625 285.726562 202.101562 285.445312 202.625 C 285.164062 203.152344 284.859375 203.664062 284.527344 204.160156 C 284.199219 204.65625 283.84375 205.132812 283.464844 205.59375 C 283.085938 206.054688 282.6875 206.496094 282.265625 206.917969 C 281.84375 207.339844 281.40625 207.738281 280.945312 208.117188 C 280.484375 208.496094 280.003906 208.851562 279.511719 209.183594 C 279.015625 209.511719 278.503906 209.820312 277.980469 210.101562 C 277.453125 210.382812 276.917969 210.636719 276.367188 210.863281 C 275.816406 211.09375 275.253906 211.292969 274.683594 211.464844 C 274.117188 211.640625 273.539062 211.785156 272.953125 211.898438 C 272.371094 212.015625 271.78125 212.105469 271.1875 212.164062 C 270.597656 212.222656 270 212.25 269.40625 212.25 C 268.808594 212.25 268.214844 212.222656 267.625 212.164062 C 267.03125 212.105469 266.441406 212.015625 265.859375 211.898438 C 265.273438 211.785156 264.695312 211.640625 264.125 211.464844 C 263.554688 211.292969 262.996094 211.09375 262.445312 210.863281 C 261.894531 210.636719 261.359375 210.382812 260.832031 210.101562 C 260.308594 209.820312 259.796875 209.511719 259.300781 209.183594 C 258.804688 208.851562 258.328125 208.496094 257.867188 208.117188 C 257.40625 207.738281 256.964844 207.339844 256.546875 206.917969 C 256.125 206.496094 255.726562 206.054688 255.347656 205.59375 C 254.96875 205.132812 254.613281 204.65625 254.285156 204.160156 C 253.953125 203.664062 253.648438 203.152344 253.367188 202.625 C 253.085938 202.101562 252.832031 201.5625 252.601562 201.011719 C 252.375 200.460938 252.175781 199.898438 252 199.328125 C 251.828125 198.757812 251.683594 198.179688 251.566406 197.597656 C 251.453125 197.011719 251.363281 196.421875 251.304688 195.828125 C 251.246094 195.234375 251.21875 194.640625 251.21875 194.046875 C 251.21875 193.449219 251.246094 192.855469 251.304688 192.261719 C 251.363281 191.667969 251.453125 191.078125 251.566406 190.492188 C 251.683594 189.910156 251.828125 189.332031 252 188.761719 C 252.175781 188.191406 252.375 187.628906 252.601562 187.078125 C 252.832031 186.527344 253.085938 185.988281 253.367188 185.464844 C 253.648438 184.9375 253.953125 184.425781 254.285156 183.929688 C 254.613281 183.433594 254.96875 182.957031 255.347656 182.496094 C 255.726562 182.035156 256.125 181.59375 256.546875 181.171875 C 256.964844 180.75 257.40625 180.351562 257.867188 179.972656 C 258.328125 179.59375 258.804688 179.238281 259.300781 178.910156 C 259.796875 178.578125 260.308594 178.269531 260.832031 177.988281 C 261.359375 177.707031 261.894531 177.453125 262.445312 177.226562 C 262.996094 176.996094 263.554688 176.796875 264.125 176.625 C 264.695312 176.449219 265.273438 176.304688 265.859375 176.191406 C 266.441406 176.074219 267.03125 175.984375 267.625 175.929688 C 268.214844 175.871094 268.808594 175.839844 269.40625 175.839844 Z M 269.40625 175.839844 " fill-opacity="1" fill-rule="nonzero"/><g clip-path="url(#id1)"><path fill="#b3404a" d="M 328.515625 303.273438 L 316.238281 303.273438 C 317.25 301.972656 318.027344 300.542969 318.574219 298.984375 C 319.117188 297.425781 319.398438 295.824219 319.421875 294.171875 L 319.421875 253.210938 C 319.421875 238.148438 305.144531 225.902344 287.59375 225.902344 L 251.21875 225.902344 C 235.484375 225.902344 222.390625 235.78125 219.890625 248.660156 L 201.203125 248.660156 C 200.503906 248.65625 199.839844 248.804688 199.207031 249.109375 C 198.578125 249.414062 198.042969 249.839844 197.609375 250.390625 C 197.179688 250.945312 196.894531 251.566406 196.75 252.25 C 196.605469 252.9375 196.621094 253.625 196.792969 254.304688 L 209.023438 303.273438 L 166.101562 303.273438 L 178.46875 254.304688 C 178.640625 253.625 178.65625 252.9375 178.511719 252.25 C 178.367188 251.566406 178.082031 250.945312 177.648438 250.390625 C 177.203125 249.820312 176.648438 249.382812 175.992188 249.078125 C 175.335938 248.773438 174.644531 248.636719 173.921875 248.660156 L 155.234375 248.660156 C 152.734375 235.78125 139.636719 225.902344 123.90625 225.902344 L 87.53125 225.902344 C 69.980469 225.902344 55.703125 238.148438 55.703125 253.210938 L 55.703125 294.171875 C 55.722656 295.824219 56.007812 297.425781 56.550781 298.984375 C 57.097656 300.542969 57.875 301.972656 58.886719 303.273438 L 46.609375 303.273438 C 46.308594 303.273438 46.015625 303.304688 45.722656 303.363281 C 45.429688 303.421875 45.144531 303.507812 44.867188 303.621094 C 44.59375 303.734375 44.332031 303.875 44.082031 304.042969 C 43.835938 304.207031 43.605469 304.398438 43.394531 304.609375 C 43.183594 304.820312 42.996094 305.050781 42.828125 305.296875 C 42.664062 305.546875 42.523438 305.808594 42.410156 306.085938 C 42.292969 306.359375 42.207031 306.644531 42.148438 306.9375 C 42.089844 307.230469 42.0625 307.527344 42.0625 307.828125 C 42.0625 308.125 42.089844 308.421875 42.148438 308.714844 C 42.207031 309.007812 42.292969 309.292969 42.410156 309.566406 C 42.523438 309.84375 42.664062 310.105469 42.828125 310.355469 C 42.996094 310.601562 43.183594 310.832031 43.394531 311.042969 C 43.605469 311.257812 43.835938 311.445312 44.082031 311.609375 C 44.332031 311.777344 44.59375 311.917969 44.867188 312.03125 C 45.144531 312.144531 45.429688 312.230469 45.722656 312.289062 C 46.015625 312.347656 46.308594 312.378906 46.609375 312.378906 L 328.515625 312.378906 C 328.8125 312.378906 329.109375 312.347656 329.402344 312.289062 C 329.695312 312.230469 329.980469 312.144531 330.253906 312.03125 C 330.53125 311.917969 330.792969 311.777344 331.042969 311.609375 C 331.289062 311.445312 331.519531 311.257812 331.730469 311.042969 C 331.941406 310.832031 332.128906 310.601562 332.296875 310.355469 C 332.460938 310.105469 332.601562 309.84375 332.714844 309.566406 C 332.832031 309.292969 332.917969 309.007812 332.976562 308.714844 C 333.03125 308.421875 333.0625 308.125 333.0625 307.828125 C 333.0625 307.527344 333.03125 307.230469 332.976562 306.9375 C 332.917969 306.644531 332.832031 306.359375 332.714844 306.085938 C 332.601562 305.808594 332.460938 305.546875 332.296875 305.296875 C 332.128906 305.050781 331.941406 304.820312 331.730469 304.609375 C 331.519531 304.398438 331.289062 304.207031 331.042969 304.042969 C 330.792969 303.875 330.53125 303.734375 330.253906 303.621094 C 329.980469 303.507812 329.695312 303.421875 329.402344 303.363281 C 329.109375 303.304688 328.8125 303.273438 328.515625 303.273438 Z M 119.359375 303.273438 L 78.4375 303.273438 C 71.027344 303.273438 64.796875 299.089844 64.796875 294.171875 L 64.796875 253.210938 C 64.796875 243.152344 74.980469 235.007812 87.53125 235.007812 L 123.90625 235.007812 C 125.054688 234.9375 126.199219 234.960938 127.339844 235.070312 C 128.484375 235.179688 129.613281 235.375 130.726562 235.660156 C 131.839844 235.945312 132.925781 236.3125 133.980469 236.761719 C 135.039062 237.214844 136.054688 237.742188 137.03125 238.351562 C 138.003906 238.957031 138.929688 239.636719 139.800781 240.386719 C 140.667969 241.136719 141.476562 241.949219 142.222656 242.824219 C 142.96875 243.699219 143.644531 244.625 144.246094 245.601562 C 144.851562 246.582031 145.375 247.601562 145.820312 248.660156 L 110.265625 248.660156 C 109.746094 248.644531 109.238281 248.71875 108.746094 248.875 C 108.25 249.035156 107.796875 249.269531 107.382812 249.585938 C 106.96875 249.902344 106.617188 250.273438 106.332031 250.710938 C 106.046875 251.144531 105.84375 251.613281 105.71875 252.117188 L 97.625 285.070312 L 87.53125 285.070312 L 87.53125 271.417969 C 87.53125 271.117188 87.5 270.820312 87.445312 270.527344 C 87.386719 270.234375 87.300781 269.949219 87.183594 269.675781 C 87.070312 269.398438 86.929688 269.136719 86.765625 268.886719 C 86.597656 268.640625 86.410156 268.410156 86.199219 268.199219 C 85.988281 267.988281 85.757812 267.796875 85.511719 267.632812 C 85.261719 267.464844 85 267.324219 84.722656 267.210938 C 84.449219 267.097656 84.164062 267.011719 83.871094 266.953125 C 83.578125 266.894531 83.28125 266.863281 82.984375 266.863281 C 82.683594 266.863281 82.390625 266.894531 82.097656 266.953125 C 81.804688 267.011719 81.519531 267.097656 81.242188 267.210938 C 80.96875 267.324219 80.707031 267.464844 80.457031 267.632812 C 80.210938 267.796875 79.980469 267.988281 79.769531 268.199219 C 79.558594 268.410156 79.371094 268.640625 79.203125 268.886719 C 79.039062 269.136719 78.898438 269.398438 78.785156 269.675781 C 78.667969 269.949219 78.582031 270.234375 78.523438 270.527344 C 78.464844 270.820312 78.4375 271.117188 78.4375 271.417969 L 78.4375 289.621094 C 78.4375 289.921875 78.464844 290.214844 78.523438 290.507812 C 78.582031 290.800781 78.667969 291.085938 78.785156 291.363281 C 78.898438 291.640625 79.039062 291.902344 79.203125 292.148438 C 79.371094 292.398438 79.558594 292.628906 79.769531 292.839844 C 79.980469 293.050781 80.210938 293.238281 80.457031 293.40625 C 80.707031 293.570312 80.96875 293.710938 81.242188 293.824219 C 81.519531 293.941406 81.804688 294.027344 82.097656 294.085938 C 82.390625 294.144531 82.683594 294.171875 82.984375 294.171875 L 132.226562 294.171875 C 131.992188 294.835938 131.710938 295.472656 131.378906 296.09375 C 131.046875 296.710938 130.667969 297.300781 130.246094 297.859375 C 129.820312 298.417969 129.359375 298.941406 128.855469 299.429688 C 128.351562 299.917969 127.8125 300.367188 127.238281 300.773438 C 126.664062 301.175781 126.066406 301.535156 125.4375 301.847656 C 124.808594 302.160156 124.160156 302.421875 123.492188 302.636719 C 122.824219 302.847656 122.144531 303.007812 121.449219 303.113281 C 120.757812 303.222656 120.058594 303.277344 119.359375 303.273438 Z M 156.734375 303.273438 L 137.546875 303.273438 C 139.035156 301.3125 140.167969 299.160156 140.945312 296.824219 C 141.722656 294.484375 142.105469 292.085938 142.09375 289.621094 C 142.09375 289.324219 142.0625 289.027344 142.007812 288.734375 C 141.949219 288.441406 141.863281 288.15625 141.746094 287.878906 C 141.632812 287.605469 141.492188 287.339844 141.328125 287.09375 C 141.160156 286.84375 140.972656 286.613281 140.761719 286.402344 C 140.550781 286.191406 140.320312 286.003906 140.074219 285.835938 C 139.824219 285.671875 139.5625 285.53125 139.285156 285.417969 C 139.011719 285.300781 138.726562 285.214844 138.433594 285.15625 C 138.140625 285.097656 137.84375 285.070312 137.546875 285.070312 L 106.992188 285.070312 L 113.8125 257.761719 L 168.101562 257.761719 Z M 218.390625 303.273438 L 207.023438 257.761719 L 261.3125 257.761719 L 268.132812 285.070312 L 237.578125 285.070312 C 237.277344 285.070312 236.984375 285.097656 236.691406 285.15625 C 236.398438 285.214844 236.113281 285.300781 235.835938 285.417969 C 235.5625 285.53125 235.300781 285.671875 235.050781 285.835938 C 234.804688 286.003906 234.574219 286.191406 234.363281 286.402344 C 234.152344 286.613281 233.964844 286.84375 233.796875 287.09375 C 233.632812 287.339844 233.492188 287.605469 233.378906 287.878906 C 233.261719 288.15625 233.175781 288.441406 233.117188 288.734375 C 233.058594 289.027344 233.03125 289.324219 233.03125 289.621094 C 233.015625 292.085938 233.398438 294.484375 234.179688 296.824219 C 234.957031 299.160156 236.089844 301.3125 237.578125 303.273438 Z M 310.328125 294.171875 C 310.328125 299.089844 304.097656 303.273438 296.6875 303.273438 L 255.765625 303.273438 C 255.0625 303.277344 254.367188 303.222656 253.671875 303.113281 C 252.980469 303.007812 252.300781 302.847656 251.632812 302.636719 C 250.964844 302.421875 250.316406 302.160156 249.6875 301.847656 C 249.058594 301.535156 248.457031 301.175781 247.886719 300.773438 C 247.3125 300.367188 246.773438 299.917969 246.269531 299.429688 C 245.765625 298.941406 245.304688 298.417969 244.878906 297.859375 C 244.457031 297.300781 244.078125 296.710938 243.746094 296.09375 C 243.414062 295.472656 243.132812 294.835938 242.898438 294.171875 L 292.140625 294.171875 C 292.4375 294.171875 292.734375 294.144531 293.027344 294.085938 C 293.320312 294.027344 293.605469 293.941406 293.878906 293.824219 C 294.15625 293.710938 294.417969 293.570312 294.667969 293.40625 C 294.914062 293.238281 295.144531 293.050781 295.355469 292.839844 C 295.566406 292.628906 295.753906 292.398438 295.921875 292.148438 C 296.085938 291.902344 296.226562 291.640625 296.339844 291.363281 C 296.457031 291.085938 296.542969 290.800781 296.601562 290.507812 C 296.65625 290.214844 296.6875 289.921875 296.6875 289.621094 L 296.6875 271.417969 C 296.6875 271.117188 296.65625 270.820312 296.601562 270.527344 C 296.542969 270.234375 296.457031 269.949219 296.339844 269.675781 C 296.226562 269.398438 296.085938 269.136719 295.921875 268.886719 C 295.753906 268.640625 295.566406 268.410156 295.355469 268.199219 C 295.144531 267.988281 294.914062 267.796875 294.667969 267.632812 C 294.417969 267.464844 294.15625 267.324219 293.878906 267.210938 C 293.605469 267.097656 293.320312 267.011719 293.027344 266.953125 C 292.734375 266.894531 292.4375 266.863281 292.140625 266.863281 C 291.839844 266.863281 291.546875 266.894531 291.253906 266.953125 C 290.960938 267.011719 290.675781 267.097656 290.398438 267.210938 C 290.125 267.324219 289.863281 267.464844 289.613281 267.632812 C 289.367188 267.796875 289.136719 267.988281 288.925781 268.199219 C 288.714844 268.410156 288.527344 268.640625 288.359375 268.886719 C 288.195312 269.136719 288.054688 269.398438 287.941406 269.675781 C 287.824219 269.949219 287.738281 270.234375 287.679688 270.527344 C 287.621094 270.820312 287.59375 271.117188 287.59375 271.417969 L 287.59375 285.070312 L 277.5 285.070312 L 269.40625 252.117188 C 269.28125 251.613281 269.078125 251.144531 268.792969 250.710938 C 268.503906 250.273438 268.15625 249.902344 267.742188 249.585938 C 267.328125 249.269531 266.875 249.035156 266.378906 248.875 C 265.886719 248.71875 265.378906 248.644531 264.859375 248.660156 L 229.300781 248.660156 C 229.75 247.601562 230.273438 246.582031 230.875 245.601562 C 231.480469 244.625 232.15625 243.699219 232.898438 242.824219 C 233.644531 241.949219 234.453125 241.136719 235.324219 240.386719 C 236.195312 239.636719 237.121094 238.957031 238.09375 238.351562 C 239.070312 237.742188 240.085938 237.214844 241.140625 236.761719 C 242.199219 236.3125 243.285156 235.945312 244.398438 235.660156 C 245.511719 235.375 246.640625 235.179688 247.78125 235.070312 C 248.925781 234.960938 250.070312 234.9375 251.21875 235.007812 L 287.59375 235.007812 C 300.144531 235.007812 310.328125 243.152344 310.328125 253.210938 Z M 310.328125 294.171875 " fill-opacity="1" fill-rule="nonzero"/></g><path fill="#b3404a" d="M 248.992188 116.675781 C 248.992188 115.332031 248.925781 113.992188 248.792969 112.660156 C 248.660156 111.324219 248.464844 110 248.203125 108.683594 C 247.941406 107.367188 247.617188 106.066406 247.226562 104.785156 C 246.839844 103.5 246.386719 102.238281 245.875 101 C 245.363281 99.757812 244.789062 98.546875 244.160156 97.363281 C 243.527344 96.183594 242.839844 95.03125 242.09375 93.917969 C 241.347656 92.800781 240.550781 91.726562 239.703125 90.6875 C 238.851562 89.652344 237.953125 88.660156 237.003906 87.710938 C 236.058594 86.761719 235.066406 85.863281 234.027344 85.011719 C 232.992188 84.160156 231.917969 83.359375 230.804688 82.617188 C 229.6875 81.871094 228.539062 81.183594 227.359375 80.550781 C 226.175781 79.917969 224.96875 79.34375 223.730469 78.832031 C 222.492188 78.316406 221.230469 77.867188 219.949219 77.476562 C 218.664062 77.085938 217.367188 76.761719 216.050781 76.5 C 214.738281 76.238281 213.414062 76.042969 212.078125 75.910156 C 210.746094 75.777344 209.410156 75.710938 208.070312 75.710938 C 203.660156 75.710938 199.371094 76.425781 195.199219 77.851562 C 194.164062 76.832031 193.074219 75.871094 191.929688 74.96875 C 190.789062 74.066406 189.605469 73.226562 188.375 72.453125 C 187.144531 71.675781 185.875 70.96875 184.570312 70.328125 C 183.261719 69.6875 181.925781 69.117188 180.5625 68.621094 C 179.195312 68.121094 177.804688 67.695312 176.394531 67.347656 C 174.980469 66.996094 173.554688 66.722656 172.113281 66.527344 C 170.675781 66.328125 169.226562 66.207031 167.773438 66.164062 C 166.320312 66.121094 164.867188 66.15625 163.417969 66.269531 C 161.96875 66.378906 160.527344 66.570312 159.097656 66.835938 C 157.667969 67.097656 156.257812 67.441406 154.863281 67.855469 C 153.46875 68.273438 152.101562 68.761719 150.761719 69.324219 C 149.417969 69.886719 148.109375 70.515625 146.835938 71.21875 C 145.5625 71.921875 144.328125 72.6875 143.136719 73.519531 C 141.945312 74.355469 140.800781 75.25 139.703125 76.203125 C 138.605469 77.160156 137.5625 78.171875 136.570312 79.238281 C 135.582031 80.304688 134.652344 81.421875 133.78125 82.585938 C 132.910156 83.753906 132.105469 84.960938 131.363281 86.214844 C 130.621094 87.464844 129.949219 88.753906 129.34375 90.078125 C 128.738281 91.402344 128.207031 92.753906 127.746094 94.136719 C 127.285156 95.515625 126.898438 96.917969 126.585938 98.339844 C 126.277344 99.761719 126.039062 101.195312 125.882812 102.640625 C 125.722656 104.089844 125.640625 105.539062 125.636719 106.996094 C 125.632812 108.453125 125.707031 109.902344 125.859375 111.351562 C 126.007812 112.800781 126.234375 114.234375 126.539062 115.660156 C 126.84375 117.082031 127.222656 118.484375 127.675781 119.867188 C 128.128906 121.253906 128.652344 122.609375 129.25 123.933594 C 129.847656 125.261719 130.515625 126.554688 131.25 127.808594 C 131.984375 129.066406 132.785156 130.277344 133.648438 131.449219 C 134.511719 132.621094 135.4375 133.742188 136.417969 134.816406 C 137.402344 135.886719 138.441406 136.902344 139.53125 137.863281 C 140.625 138.828125 141.765625 139.726562 142.953125 140.566406 C 144.140625 141.40625 145.371094 142.179688 146.640625 142.890625 L 144.640625 156.996094 C 144.566406 157.429688 144.554688 157.867188 144.605469 158.300781 C 144.660156 158.738281 144.769531 159.160156 144.945312 159.5625 C 145.117188 159.96875 145.34375 160.339844 145.625 160.675781 C 145.90625 161.015625 146.230469 161.304688 146.59375 161.550781 C 147.363281 162.066406 148.214844 162.324219 149.140625 162.324219 C 149.953125 162.328125 150.710938 162.132812 151.414062 161.730469 L 175.695312 147.804688 C 177.238281 147.472656 178.753906 147.046875 180.242188 146.53125 C 182.957031 149.121094 185.96875 151.296875 189.28125 153.0625 C 192.59375 154.824219 196.082031 156.105469 199.746094 156.90625 L 223.9375 170.699219 C 224.640625 171.097656 225.398438 171.292969 226.210938 171.289062 C 227.136719 171.289062 227.988281 171.03125 228.757812 170.515625 C 229.121094 170.269531 229.445312 169.980469 229.726562 169.640625 C 230.007812 169.304688 230.234375 168.933594 230.40625 168.527344 C 230.582031 168.125 230.695312 167.707031 230.746094 167.269531 C 230.796875 166.832031 230.785156 166.398438 230.710938 165.964844 L 228.710938 151.855469 C 230.242188 150.960938 231.707031 149.972656 233.109375 148.886719 C 234.507812 147.800781 235.835938 146.628906 237.082031 145.371094 C 238.332031 144.117188 239.496094 142.78125 240.570312 141.375 C 241.648438 139.964844 242.628906 138.492188 243.515625 136.957031 C 244.398438 135.421875 245.183594 133.835938 245.863281 132.199219 C 246.539062 130.558594 247.113281 128.886719 247.574219 127.171875 C 248.035156 125.460938 248.386719 123.726562 248.621094 121.96875 C 248.859375 120.210938 248.980469 118.445312 248.992188 116.675781 Z M 173.058594 138.882812 C 172.566406 138.988281 172.097656 139.15625 171.648438 139.382812 L 154.777344 149.078125 L 155.734375 141.023438 C 155.78125 140.558594 155.757812 140.097656 155.660156 139.640625 C 155.566406 139.183594 155.40625 138.753906 155.175781 138.347656 C 154.949219 137.9375 154.664062 137.574219 154.328125 137.257812 C 153.988281 136.9375 153.609375 136.675781 153.1875 136.472656 C 152.625 136.199219 152.070312 135.914062 151.523438 135.609375 C 150.980469 135.308594 150.441406 134.988281 149.914062 134.652344 C 149.386719 134.316406 148.871094 133.96875 148.363281 133.601562 C 147.859375 133.234375 147.363281 132.855469 146.878906 132.460938 C 146.394531 132.066406 145.921875 131.65625 145.460938 131.234375 C 145.003906 130.8125 144.554688 130.378906 144.121094 129.929688 C 143.6875 129.480469 143.265625 129.019531 142.855469 128.542969 C 142.449219 128.070312 142.058594 127.585938 141.679688 127.089844 C 141.300781 126.589844 140.933594 126.085938 140.585938 125.566406 C 140.238281 125.046875 139.902344 124.519531 139.585938 123.980469 C 139.269531 123.445312 138.964844 122.898438 138.679688 122.339844 C 138.394531 121.785156 138.125 121.222656 137.871094 120.648438 C 137.621094 120.078125 137.382812 119.5 137.164062 118.914062 C 136.945312 118.328125 136.746094 117.738281 136.5625 117.140625 C 136.378906 116.542969 136.210938 115.941406 136.0625 115.332031 C 135.914062 114.726562 135.785156 114.117188 135.671875 113.5 C 135.558594 112.886719 135.464844 112.269531 135.386719 111.648438 C 135.3125 111.027344 135.253906 110.40625 135.214844 109.78125 C 135.175781 109.15625 135.152344 108.535156 135.152344 107.910156 C 135.148438 107.285156 135.164062 106.660156 135.195312 106.035156 C 135.230469 105.410156 135.28125 104.789062 135.351562 104.167969 C 135.421875 103.546875 135.511719 102.925781 135.617188 102.3125 C 135.726562 101.695312 135.851562 101.082031 135.992188 100.476562 C 136.136719 99.867188 136.296875 99.261719 136.476562 98.664062 C 136.652344 98.066406 136.847656 97.472656 137.0625 96.882812 C 137.273438 96.296875 137.503906 95.714844 137.753906 95.140625 C 138 94.566406 138.265625 94 138.542969 93.445312 C 138.824219 92.886719 139.121094 92.335938 139.433594 91.792969 C 139.746094 91.253906 140.078125 90.722656 140.421875 90.199219 C 140.765625 89.679688 141.125 89.167969 141.496094 88.667969 C 141.871094 88.167969 142.261719 87.679688 142.664062 87.199219 C 143.066406 86.722656 143.484375 86.257812 143.914062 85.804688 C 144.34375 85.351562 144.785156 84.914062 145.242188 84.484375 C 145.699219 84.058594 146.167969 83.644531 146.648438 83.246094 C 147.128906 82.847656 147.621094 82.460938 148.125 82.09375 C 148.625 81.722656 149.140625 81.367188 149.664062 81.027344 C 150.1875 80.6875 150.722656 80.363281 151.265625 80.054688 C 151.808594 79.746094 152.359375 79.453125 152.917969 79.175781 C 153.480469 78.902344 154.046875 78.640625 154.621094 78.398438 C 155.199219 78.15625 155.78125 77.929688 156.367188 77.722656 C 156.957031 77.515625 157.550781 77.324219 158.152344 77.148438 C 158.753906 76.976562 159.355469 76.820312 159.964844 76.683594 C 160.574219 76.546875 161.1875 76.425781 161.804688 76.324219 C 162.417969 76.222656 163.039062 76.140625 163.660156 76.074219 C 164.28125 76.007812 164.902344 75.960938 165.527344 75.933594 C 166.148438 75.90625 166.773438 75.894531 167.398438 75.902344 C 168.023438 75.910156 168.648438 75.9375 169.269531 75.984375 C 169.890625 76.027344 170.511719 76.089844 171.132812 76.171875 C 171.75 76.253906 172.367188 76.355469 172.980469 76.472656 C 173.59375 76.589844 174.203125 76.726562 174.808594 76.878906 C 175.414062 77.03125 176.015625 77.203125 176.609375 77.394531 C 177.203125 77.582031 177.792969 77.789062 178.375 78.011719 C 178.960938 78.238281 179.535156 78.476562 180.105469 78.734375 C 180.671875 78.992188 181.234375 79.269531 181.785156 79.558594 C 182.339844 79.847656 182.882812 80.15625 183.417969 80.480469 C 183.953125 80.800781 184.476562 81.140625 184.992188 81.492188 C 185.507812 81.847656 186.011719 82.214844 186.503906 82.601562 C 186.996094 82.984375 187.480469 83.378906 187.949219 83.792969 C 188.417969 84.203125 188.875 84.628906 189.320312 85.070312 C 189.765625 85.507812 190.195312 85.957031 190.613281 86.421875 C 191.03125 86.886719 191.4375 87.363281 191.828125 87.851562 C 192.21875 88.339844 192.59375 88.839844 192.953125 89.347656 C 193.316406 89.859375 193.660156 90.378906 193.992188 90.910156 C 194.320312 91.4375 194.636719 91.980469 194.933594 92.527344 C 195.230469 93.078125 195.515625 93.632812 195.78125 94.199219 C 196.046875 94.765625 196.292969 95.339844 196.527344 95.917969 C 196.757812 96.5 196.972656 97.085938 197.171875 97.679688 C 197.367188 98.273438 197.550781 98.871094 197.710938 99.472656 C 197.875 100.078125 198.019531 100.683594 198.144531 101.296875 C 198.273438 101.910156 198.378906 102.523438 198.46875 103.140625 C 198.5625 103.761719 198.632812 104.382812 198.6875 105.003906 C 198.742188 105.625 198.777344 106.25 198.792969 106.875 C 198.8125 107.5 198.8125 108.125 198.792969 108.75 C 198.773438 109.375 198.734375 110 198.679688 110.621094 C 198.621094 111.242188 198.546875 111.863281 198.453125 112.480469 C 198.363281 113.101562 198.25 113.714844 198.125 114.328125 C 197.996094 114.9375 197.847656 115.546875 197.683594 116.148438 C 197.519531 116.75 197.335938 117.347656 197.136719 117.941406 C 196.9375 118.535156 196.722656 119.117188 196.488281 119.699219 C 196.253906 120.277344 196.003906 120.851562 195.734375 121.414062 C 195.464844 121.980469 195.183594 122.535156 194.882812 123.082031 C 194.582031 123.632812 194.265625 124.171875 193.933594 124.699219 C 193.601562 125.230469 193.253906 125.75 192.890625 126.257812 C 192.527344 126.765625 192.152344 127.265625 191.761719 127.75 C 191.367188 128.238281 190.960938 128.710938 190.542969 129.175781 C 190.121094 129.636719 189.691406 130.085938 189.242188 130.523438 C 188.796875 130.960938 188.339844 131.386719 187.867188 131.796875 C 187.398438 132.207031 186.914062 132.601562 186.417969 132.984375 C 185.925781 133.367188 185.417969 133.734375 184.902344 134.085938 C 184.386719 134.4375 183.863281 134.773438 183.328125 135.09375 C 182.789062 135.414062 182.246094 135.71875 181.691406 136.007812 C 181.136719 136.296875 180.578125 136.570312 180.007812 136.828125 C 179.4375 137.082031 178.859375 137.320312 178.277344 137.542969 C 177.691406 137.765625 177.101562 137.96875 176.507812 138.15625 C 175.910156 138.34375 175.3125 138.511719 174.703125 138.664062 C 174.097656 138.816406 173.488281 138.949219 172.875 139.066406 Z M 221.84375 145.390625 C 221.425781 145.59375 221.046875 145.855469 220.707031 146.175781 C 220.367188 146.496094 220.085938 146.859375 219.855469 147.265625 C 219.628906 147.671875 219.46875 148.105469 219.371094 148.5625 C 219.277344 149.019531 219.253906 149.480469 219.300781 149.945312 L 220.4375 158 L 203.566406 148.53125 C 203.117188 148.304688 202.648438 148.136719 202.15625 148.03125 C 197.351562 147.089844 193 145.132812 189.109375 142.160156 C 190.242188 141.4375 191.335938 140.664062 192.390625 139.832031 C 193.449219 139.003906 194.460938 138.121094 195.429688 137.191406 C 196.398438 136.261719 197.320312 135.289062 198.195312 134.265625 C 199.070312 133.246094 199.890625 132.183594 200.660156 131.082031 C 201.429688 129.980469 202.144531 128.84375 202.800781 127.671875 C 203.460938 126.5 204.058594 125.300781 204.597656 124.066406 C 205.136719 122.835938 205.613281 121.582031 206.03125 120.304688 C 206.445312 119.027344 206.796875 117.730469 207.085938 116.417969 C 207.375 115.105469 207.601562 113.78125 207.757812 112.445312 C 207.917969 111.113281 208.007812 109.773438 208.035156 108.429688 C 208.0625 107.085938 208.023438 105.742188 207.917969 104.402344 C 207.8125 103.0625 207.640625 101.730469 207.40625 100.40625 C 207.167969 99.082031 206.867188 97.777344 206.503906 96.480469 C 206.140625 95.1875 205.710938 93.914062 205.222656 92.664062 C 204.730469 91.414062 204.179688 90.1875 203.570312 88.992188 C 202.960938 87.792969 202.292969 86.628906 201.566406 85.496094 C 203.710938 85.039062 205.878906 84.8125 208.070312 84.816406 C 208.960938 84.820312 209.851562 84.859375 210.738281 84.9375 C 211.628906 85.019531 212.511719 85.132812 213.390625 85.289062 C 214.269531 85.441406 215.140625 85.628906 216.003906 85.855469 C 216.867188 86.082031 217.71875 86.347656 218.5625 86.644531 C 219.402344 86.941406 220.230469 87.277344 221.042969 87.644531 C 221.855469 88.011719 222.652344 88.414062 223.429688 88.847656 C 224.210938 89.28125 224.96875 89.75 225.710938 90.25 C 226.449219 90.746094 227.167969 91.277344 227.863281 91.835938 C 228.558594 92.394531 229.230469 92.984375 229.875 93.597656 C 230.523438 94.214844 231.140625 94.855469 231.734375 95.523438 C 232.324219 96.191406 232.890625 96.882812 233.421875 97.597656 C 233.957031 98.3125 234.460938 99.050781 234.933594 99.808594 C 235.40625 100.566406 235.84375 101.339844 236.253906 102.136719 C 236.660156 102.929688 237.03125 103.742188 237.371094 104.566406 C 237.710938 105.394531 238.015625 106.234375 238.28125 107.085938 C 238.550781 107.9375 238.785156 108.796875 238.980469 109.667969 C 239.175781 110.539062 239.335938 111.417969 239.457031 112.300781 C 239.578125 113.1875 239.664062 114.074219 239.714844 114.96875 C 239.761719 115.859375 239.769531 116.75 239.742188 117.644531 C 239.714844 118.535156 239.652344 119.425781 239.550781 120.3125 C 239.449219 121.199219 239.308594 122.082031 239.132812 122.957031 C 238.957031 123.832031 238.746094 124.699219 238.496094 125.558594 C 238.246094 126.414062 237.964844 127.261719 237.644531 128.09375 C 237.324219 128.929688 236.96875 129.746094 236.582031 130.550781 C 236.191406 131.355469 235.769531 132.140625 235.316406 132.910156 C 234.859375 133.679688 234.375 134.425781 233.855469 135.152344 C 233.339844 135.878906 232.792969 136.585938 232.214844 137.265625 C 231.640625 137.949219 231.035156 138.605469 230.402344 139.234375 C 229.769531 139.867188 229.113281 140.46875 228.429688 141.042969 C 227.75 141.617188 227.042969 142.164062 226.316406 142.679688 C 225.585938 143.195312 224.839844 143.679688 224.070312 144.132812 C 223.300781 144.585938 222.511719 145.003906 221.710938 145.390625 Z M 221.84375 145.390625 " fill-opacity="1" fill-rule="nonzero"/><path fill="#b3404a" d="M 160.328125 107.570312 C 160.328125 108.019531 160.28125 108.464844 160.195312 108.902344 C 160.109375 109.34375 159.980469 109.769531 159.808594 110.183594 C 159.636719 110.597656 159.425781 110.992188 159.175781 111.363281 C 158.929688 111.738281 158.644531 112.082031 158.328125 112.398438 C 158.011719 112.714844 157.667969 113 157.296875 113.246094 C 156.921875 113.496094 156.53125 113.707031 156.117188 113.878906 C 155.703125 114.050781 155.277344 114.179688 154.835938 114.265625 C 154.398438 114.355469 153.953125 114.398438 153.507812 114.398438 C 153.058594 114.398438 152.613281 114.355469 152.175781 114.265625 C 151.734375 114.179688 151.308594 114.050781 150.894531 113.878906 C 150.480469 113.707031 150.089844 113.496094 149.71875 113.246094 C 149.34375 113 149 112.714844 148.683594 112.398438 C 148.367188 112.082031 148.082031 111.738281 147.835938 111.363281 C 147.585938 110.992188 147.375 110.597656 147.203125 110.183594 C 147.035156 109.769531 146.902344 109.34375 146.816406 108.902344 C 146.730469 108.464844 146.6875 108.019531 146.6875 107.570312 C 146.6875 107.125 146.730469 106.679688 146.816406 106.238281 C 146.902344 105.800781 147.035156 105.375 147.203125 104.957031 C 147.375 104.542969 147.585938 104.152344 147.835938 103.777344 C 148.082031 103.40625 148.367188 103.0625 148.683594 102.742188 C 149 102.425781 149.34375 102.144531 149.71875 101.894531 C 150.089844 101.644531 150.480469 101.4375 150.894531 101.265625 C 151.308594 101.09375 151.734375 100.964844 152.175781 100.875 C 152.613281 100.789062 153.058594 100.746094 153.507812 100.746094 C 153.953125 100.746094 154.398438 100.789062 154.835938 100.875 C 155.277344 100.964844 155.703125 101.09375 156.117188 101.265625 C 156.53125 101.4375 156.921875 101.644531 157.296875 101.894531 C 157.667969 102.144531 158.011719 102.425781 158.328125 102.742188 C 158.644531 103.0625 158.929688 103.40625 159.175781 103.777344 C 159.425781 104.152344 159.636719 104.542969 159.808594 104.957031 C 159.980469 105.375 160.109375 105.800781 160.195312 106.238281 C 160.28125 106.679688 160.328125 107.125 160.328125 107.570312 Z M 160.328125 107.570312 " fill-opacity="1" fill-rule="nonzero"/><path fill="#b3404a" d="M 173.96875 107.570312 C 173.96875 108.019531 173.921875 108.464844 173.835938 108.902344 C 173.75 109.34375 173.621094 109.769531 173.449219 110.183594 C 173.277344 110.597656 173.066406 110.992188 172.816406 111.363281 C 172.570312 111.738281 172.285156 112.082031 171.96875 112.398438 C 171.652344 112.714844 171.308594 113 170.9375 113.246094 C 170.5625 113.496094 170.171875 113.707031 169.757812 113.878906 C 169.34375 114.050781 168.917969 114.179688 168.476562 114.265625 C 168.039062 114.355469 167.59375 114.398438 167.148438 114.398438 C 166.699219 114.398438 166.253906 114.355469 165.816406 114.265625 C 165.375 114.179688 164.949219 114.050781 164.535156 113.878906 C 164.121094 113.707031 163.730469 113.496094 163.359375 113.246094 C 162.984375 113 162.640625 112.714844 162.324219 112.398438 C 162.007812 112.082031 161.722656 111.738281 161.476562 111.363281 C 161.226562 110.992188 161.015625 110.597656 160.84375 110.183594 C 160.675781 109.769531 160.542969 109.34375 160.457031 108.902344 C 160.371094 108.464844 160.328125 108.019531 160.328125 107.570312 C 160.328125 107.125 160.371094 106.679688 160.457031 106.238281 C 160.542969 105.800781 160.675781 105.375 160.84375 104.957031 C 161.015625 104.542969 161.226562 104.152344 161.476562 103.777344 C 161.722656 103.40625 162.007812 103.0625 162.324219 102.742188 C 162.640625 102.425781 162.984375 102.144531 163.359375 101.894531 C 163.730469 101.644531 164.121094 101.4375 164.535156 101.265625 C 164.949219 101.09375 165.375 100.964844 165.816406 100.875 C 166.253906 100.789062 166.699219 100.746094 167.148438 100.746094 C 167.59375 100.746094 168.039062 100.789062 168.476562 100.875 C 168.917969 100.964844 169.34375 101.09375 169.757812 101.265625 C 170.171875 101.4375 170.5625 101.644531 170.9375 101.894531 C 171.308594 102.144531 171.652344 102.425781 171.96875 102.742188 C 172.285156 103.0625 172.570312 103.40625 172.816406 103.777344 C 173.066406 104.152344 173.277344 104.542969 173.449219 104.957031 C 173.621094 105.375 173.75 105.800781 173.835938 106.238281 C 173.921875 106.679688 173.96875 107.125 173.96875 107.570312 Z M 173.96875 107.570312 " fill-opacity="1" fill-rule="nonzero"/><path fill="#b3404a" d="M 187.609375 107.570312 C 187.609375 108.019531 187.5625 108.464844 187.476562 108.902344 C 187.390625 109.34375 187.261719 109.769531 187.089844 110.183594 C 186.917969 110.597656 186.707031 110.992188 186.457031 111.363281 C 186.210938 111.738281 185.925781 112.082031 185.609375 112.398438 C 185.292969 112.714844 184.949219 113 184.578125 113.246094 C 184.203125 113.496094 183.8125 113.707031 183.398438 113.878906 C 182.984375 114.050781 182.558594 114.179688 182.117188 114.265625 C 181.679688 114.355469 181.234375 114.398438 180.789062 114.398438 C 180.339844 114.398438 179.894531 114.355469 179.457031 114.265625 C 179.015625 114.179688 178.589844 114.050781 178.175781 113.878906 C 177.761719 113.707031 177.371094 113.496094 177 113.246094 C 176.625 113 176.28125 112.714844 175.964844 112.398438 C 175.648438 112.082031 175.363281 111.738281 175.117188 111.363281 C 174.867188 110.992188 174.65625 110.597656 174.484375 110.183594 C 174.316406 109.769531 174.183594 109.34375 174.097656 108.902344 C 174.011719 108.464844 173.96875 108.019531 173.96875 107.570312 C 173.96875 107.125 174.011719 106.679688 174.097656 106.238281 C 174.183594 105.800781 174.316406 105.375 174.484375 104.957031 C 174.65625 104.542969 174.867188 104.152344 175.117188 103.777344 C 175.363281 103.40625 175.648438 103.0625 175.964844 102.742188 C 176.28125 102.425781 176.625 102.144531 177 101.894531 C 177.371094 101.644531 177.761719 101.4375 178.175781 101.265625 C 178.589844 101.09375 179.015625 100.964844 179.457031 100.875 C 179.894531 100.789062 180.339844 100.746094 180.789062 100.746094 C 181.234375 100.746094 181.679688 100.789062 182.117188 100.875 C 182.558594 100.964844 182.984375 101.09375 183.398438 101.265625 C 183.8125 101.4375 184.203125 101.644531 184.578125 101.894531 C 184.949219 102.144531 185.292969 102.425781 185.609375 102.742188 C 185.925781 103.0625 186.210938 103.40625 186.457031 103.777344 C 186.707031 104.152344 186.917969 104.542969 187.089844 104.957031 C 187.261719 105.375 187.390625 105.800781 187.476562 106.238281 C 187.5625 106.679688 187.609375 107.125 187.609375 107.570312 Z M 187.609375 107.570312 " fill-opacity="1" fill-rule="nonzero"/></svg>