<svg xmlns="http://www.w3.org/2000/svg" xmlns:xlink="http://www.w3.org/1999/xlink" width="500" zoomAndPan="magnify" viewBox="0 0 375 374.999991" height="500" preserveAspectRatio="xMidYMid meet" version="1.0"><defs><clipPath id="id1"><path d="M 181 83.519531 L 198 83.519531 L 198 102 L 181 102 Z M 181 83.519531 " clip-rule="nonzero"/></clipPath><clipPath id="id2"><path d="M 279 177 L 292.46875 177 L 292.46875 196 L 279 196 Z M 279 177 " clip-rule="nonzero"/></clipPath><clipPath id="id3"><path d="M 182 272 L 197 272 L 197 291.269531 L 182 291.269531 Z M 182 272 " clip-rule="nonzero"/></clipPath><clipPath id="id4"><path d="M 82.46875 178 L 106 178 L 106 196 L 82.46875 196 Z M 82.46875 178 " clip-rule="nonzero"/></clipPath></defs><path fill="#123979" d="M 73.332031 91.964844 C 73.246094 91.964844 73.15625 91.933594 73.085938 91.875 C 72.925781 91.738281 72.902344 91.496094 73.039062 91.335938 C 80.59375 82.359375 121.371094 37.925781 187.527344 37.925781 C 188.09375 37.925781 188.652344 37.929688 189.222656 37.9375 C 217.460938 38.261719 244.175781 46.484375 268.632812 62.382812 C 286.53125 74.015625 297.914062 86.507812 301.980469 91.335938 C 302.113281 91.496094 302.09375 91.738281 301.933594 91.875 C 301.773438 92.007812 301.53125 91.992188 301.394531 91.828125 C 297.351562 87.023438 286.027344 74.601562 268.214844 63.023438 C 243.882812 47.207031 217.304688 39.023438 189.214844 38.703125 C 122.417969 37.960938 81.203125 82.824219 73.625 91.828125 C 73.546875 91.917969 73.441406 91.964844 73.332031 91.964844 Z M 73.332031 91.964844 " fill-opacity="1" fill-rule="nonzero"/><path fill="#737373" d="M 187.492188 337.089844 C 186.925781 337.089844 186.367188 337.089844 185.796875 337.082031 C 157.558594 336.757812 130.84375 328.535156 106.386719 312.636719 C 88.488281 301.003906 77.105469 288.511719 73.039062 283.683594 C 72.902344 283.519531 72.925781 283.28125 73.085938 283.144531 C 73.25 283.007812 73.488281 283.027344 73.625 283.191406 C 77.667969 287.996094 88.988281 300.417969 106.800781 311.996094 C 131.136719 327.8125 157.714844 335.996094 185.804688 336.316406 C 186.367188 336.324219 186.933594 336.328125 187.492188 336.328125 C 253.316406 336.328125 293.878906 292.121094 301.394531 283.191406 C 301.53125 283.027344 301.769531 283.007812 301.933594 283.144531 C 302.09375 283.28125 302.113281 283.519531 301.980469 283.683594 C 294.425781 292.65625 253.648438 337.089844 187.492188 337.089844 Z M 187.492188 337.089844 " fill-opacity="1" fill-rule="nonzero"/><path fill="#123979" d="M 187.507812 375.019531 C 137.425781 375.019531 90.335938 355.515625 54.921875 320.097656 C 19.503906 284.683594 0 237.59375 0 187.507812 C 0 137.425781 19.503906 90.335938 54.921875 54.921875 C 90.335938 19.503906 137.425781 0 187.507812 0 C 237.59375 0 284.683594 19.503906 320.097656 54.921875 C 355.515625 90.335938 375.019531 137.425781 375.019531 187.507812 C 375.019531 237.59375 355.515625 284.683594 320.097656 320.097656 C 284.683594 355.515625 237.59375 375.019531 187.507812 375.019531 Z M 187.507812 1.527344 C 137.832031 1.527344 91.128906 20.875 56 56 C 20.875 91.128906 1.527344 137.832031 1.527344 187.507812 C 1.527344 237.1875 20.875 283.890625 56 319.019531 C 91.128906 354.144531 137.832031 373.492188 187.507812 373.492188 C 237.1875 373.492188 283.890625 354.144531 319.019531 319.019531 C 354.144531 283.890625 373.492188 237.1875 373.492188 187.507812 C 373.492188 137.832031 354.144531 91.128906 319.019531 56 C 283.890625 20.875 237.1875 1.527344 187.507812 1.527344 Z M 187.507812 1.527344 " fill-opacity="1" fill-rule="nonzero"/><path fill="#123979" d="M 231.234375 227.730469 L 213.332031 199.753906 L 273.757812 186.480469 L 213.332031 173.203125 L 231.234375 145.230469 L 203.242188 163.121094 L 189.957031 102.734375 L 176.671875 163.121094 L 148.675781 145.230469 L 166.578125 173.203125 L 106.152344 186.480469 L 166.578125 199.753906 L 148.675781 227.730469 L 176.671875 209.839844 L 189.957031 270.226562 L 203.242188 209.839844 L 231.234375 227.730469 " fill-opacity="1" fill-rule="nonzero"/><path fill="#123979" d="M 256.375 214.4375 C 252.746094 223.007812 247.554688 230.707031 240.941406 237.316406 C 234.324219 243.929688 226.621094 249.117188 218.046875 252.742188 C 210.933594 255.75 203.464844 257.566406 195.773438 258.171875 L 194.773438 262.714844 C 203.417969 262.1875 211.8125 260.222656 219.785156 256.851562 C 228.894531 253.003906 237.074219 247.492188 244.097656 240.472656 C 251.121094 233.453125 256.636719 225.277344 260.488281 216.175781 C 263.851562 208.234375 265.816406 199.878906 266.351562 191.273438 L 261.800781 192.273438 C 261.1875 199.925781 259.371094 207.359375 256.375 214.4375 " fill-opacity="1" fill-rule="nonzero"/><path fill="#123979" d="M 161.976562 252.742188 C 153.402344 249.117188 145.699219 243.929688 139.085938 237.316406 C 132.46875 230.707031 127.273438 223.007812 123.648438 214.4375 C 120.65625 207.367188 118.839844 199.941406 118.226562 192.296875 L 113.675781 191.296875 C 114.210938 199.894531 116.175781 208.242188 119.535156 216.175781 C 123.386719 225.277344 128.902344 233.453125 135.925781 240.472656 C 142.949219 247.492188 151.128906 253.003906 160.238281 256.851562 C 168.175781 260.210938 176.53125 262.171875 185.136719 262.710938 L 184.132812 258.160156 C 176.484375 257.546875 169.054688 255.734375 161.976562 252.742188 " fill-opacity="1" fill-rule="nonzero"/><path fill="#123979" d="M 218.046875 120.105469 C 226.621094 123.730469 234.324219 128.921875 240.941406 135.53125 C 247.554688 142.140625 252.746094 149.839844 256.375 158.410156 C 259.386719 165.523438 261.207031 172.996094 261.808594 180.691406 L 266.359375 181.6875 C 265.832031 173.042969 263.863281 164.648438 260.488281 156.671875 C 256.636719 147.566406 251.121094 139.394531 244.097656 132.375 C 237.074219 125.355469 228.894531 119.84375 219.785156 115.996094 C 211.804688 112.621094 203.402344 110.65625 194.75 110.128906 L 195.75 114.675781 C 203.449219 115.277344 210.925781 117.097656 218.046875 120.105469 " fill-opacity="1" fill-rule="nonzero"/><path fill="#123979" d="M 123.648438 158.410156 C 127.273438 149.839844 132.46875 142.140625 139.085938 135.53125 C 145.699219 128.921875 153.402344 123.730469 161.976562 120.105469 C 169.0625 117.109375 176.5 115.296875 184.160156 114.683594 L 185.160156 110.136719 C 176.546875 110.671875 168.183594 112.636719 160.238281 115.996094 C 151.128906 119.84375 142.949219 125.355469 135.925781 132.375 C 128.902344 139.394531 123.386719 147.566406 119.535156 156.671875 C 116.164062 164.640625 114.195312 173.027344 113.667969 181.664062 L 118.214844 180.664062 C 118.820312 172.980469 120.640625 165.515625 123.648438 158.410156 " fill-opacity="1" fill-rule="nonzero"/><g clip-path="url(#id1)"><path fill="#123979" d="M 197.460938 83.523438 L 192.941406 83.523438 C 193.066406 84.5 193.109375 85.347656 193.109375 86.746094 L 193.109375 91.582031 C 193.109375 92.769531 193.152344 93.746094 193.238281 94.71875 C 192.730469 93.785156 192.324219 93.109375 191.710938 92.195312 L 187.679688 86.175781 C 186.851562 84.945312 186.386719 84.097656 186.171875 83.523438 L 181.570312 83.523438 C 181.695312 84.5 181.738281 85.453125 181.738281 86.683594 L 181.738281 97.835938 C 181.738281 99.40625 181.695312 100.335938 181.570312 101.164062 L 186.089844 101.164062 C 185.960938 100.253906 185.917969 99.320312 185.917969 97.855469 L 185.917969 93.109375 C 185.917969 92.070312 185.875 90.902344 185.769531 89.949219 C 186.363281 91.070312 186.726562 91.707031 187.296875 92.558594 L 191.222656 98.472656 C 191.945312 99.574219 192.433594 100.359375 192.8125 101.164062 L 197.460938 101.164062 C 197.355469 100.273438 197.289062 99.300781 197.289062 98.003906 L 197.289062 86.746094 C 197.289062 85.371094 197.332031 84.480469 197.460938 83.523438 " fill-opacity="1" fill-rule="nonzero"/></g><g clip-path="url(#id2)"><path fill="#123979" d="M 289.007812 192.011719 L 283.535156 192.011719 L 283.535156 188.449219 L 288.117188 188.449219 C 289.578125 188.449219 290.300781 188.492188 291.296875 188.597656 L 291.296875 184.675781 C 290.027344 184.800781 289.515625 184.824219 288.117188 184.824219 L 283.535156 184.824219 L 283.535156 181.707031 L 289.050781 181.707031 C 290.472656 181.707031 291.234375 181.75 292.210938 181.855469 L 292.210938 177.890625 C 291.214844 177.996094 290.492188 178.039062 289.050781 178.039062 L 282.28125 178.039062 C 280.625 178.039062 280.03125 178.015625 279.164062 177.976562 C 279.289062 179.015625 279.332031 179.757812 279.332031 181.070312 L 279.332031 192.648438 C 279.332031 194.109375 279.289062 194.894531 279.164062 195.742188 C 280.074219 195.699219 280.667969 195.679688 282.28125 195.679688 L 288.964844 195.679688 C 290.789062 195.679688 291.554688 195.722656 292.464844 195.828125 L 292.464844 191.863281 C 291.554688 191.96875 290.621094 192.011719 289.007812 192.011719 " fill-opacity="1" fill-rule="nonzero"/></g><g clip-path="url(#id3)"><path fill="#123979" d="M 194.417969 281.238281 C 193.613281 280.726562 192.59375 280.367188 190.980469 280.027344 C 188.476562 279.519531 188.476562 279.519531 188.054688 279.328125 C 187.375 279.011719 187.054688 278.566406 187.054688 277.972656 C 187.054688 276.996094 188.011719 276.296875 189.304688 276.296875 C 190.917969 276.296875 191.683594 276.871094 191.9375 278.246094 L 196.433594 277.757812 C 196.15625 276.550781 195.902344 275.914062 195.375 275.214844 C 194.226562 273.625 192.171875 272.796875 189.476562 272.796875 C 185.296875 272.796875 182.664062 274.855469 182.664062 278.121094 C 182.664062 279.835938 183.386719 281.257812 184.722656 282.191406 C 185.507812 282.742188 186.1875 282.996094 188.136719 283.421875 C 190.34375 283.929688 190.875 284.078125 191.320312 284.289062 C 191.871094 284.542969 192.210938 285.117188 192.210938 285.773438 C 192.210938 286.960938 191.238281 287.683594 189.601562 287.683594 C 188.519531 287.683594 187.628906 287.320312 187.121094 286.683594 C 186.800781 286.261719 186.652344 285.878906 186.566406 285.117188 L 182.15625 285.539062 C 182.304688 286.515625 182.410156 287.003906 182.621094 287.511719 C 183.066406 288.71875 183.851562 289.632812 184.914062 290.226562 C 186.058594 290.882812 187.839844 291.265625 189.644531 291.265625 C 192.128906 291.265625 193.996094 290.648438 195.226562 289.464844 C 196.199219 288.507812 196.710938 287.152344 196.710938 285.5625 C 196.710938 283.613281 195.945312 282.191406 194.417969 281.238281 " fill-opacity="1" fill-rule="nonzero"/></g><g clip-path="url(#id4)"><path fill="#123979" d="M 100.570312 180.480469 L 99.234375 186.800781 C 99.152344 187.140625 99.003906 188.15625 98.9375 188.625 C 98.8125 189.515625 98.8125 189.515625 98.769531 189.917969 C 98.492188 188.199219 98.34375 187.5 98.175781 186.820312 L 96.457031 180.292969 C 96.179688 179.296875 96.050781 178.703125 95.96875 178.148438 L 92.191406 178.148438 C 92.105469 178.742188 91.980469 179.402344 91.722656 180.355469 L 90.027344 186.929688 C 89.898438 187.371094 89.75 188.136719 89.433594 189.917969 C 89.179688 188.242188 89.03125 187.246094 88.964844 186.929688 L 87.609375 180.480469 C 87.4375 179.59375 87.332031 178.914062 87.3125 178.148438 L 82.472656 178.148438 C 82.6875 178.722656 82.984375 179.699219 83.28125 180.78125 L 86.675781 193.5 C 86.992188 194.730469 87.101562 195.175781 87.207031 195.789062 L 91.425781 195.789062 C 91.492188 195.21875 91.617188 194.601562 91.894531 193.542969 L 93.464844 187.289062 C 93.71875 186.292969 93.972656 184.957031 94.101562 184.085938 C 94.3125 185.484375 94.480469 186.460938 94.695312 187.289062 L 96.308594 193.523438 C 96.519531 194.371094 96.667969 195.113281 96.753906 195.789062 L 100.996094 195.789062 C 101.058594 195.28125 101.25 194.476562 101.527344 193.480469 L 104.921875 180.78125 C 105.195312 179.71875 105.492188 178.722656 105.707031 178.148438 L 100.890625 178.148438 C 100.867188 178.894531 100.785156 179.507812 100.570312 180.480469 " fill-opacity="1" fill-rule="nonzero"/></g></svg>