<svg xmlns="http://www.w3.org/2000/svg" xmlns:xlink="http://www.w3.org/1999/xlink" width="500" zoomAndPan="magnify" viewBox="0 0 375 374.999991" height="500" preserveAspectRatio="xMidYMid meet" version="1.0"><defs><clipPath id="id1"><path d="M 147 286 L 246.277344 286 L 246.277344 292 L 147 292 Z M 147 286 " clip-rule="nonzero"/></clipPath></defs><path fill="#123979" d="M 73.332031 91.964844 C 73.246094 91.964844 73.15625 91.933594 73.085938 91.875 C 72.925781 91.738281 72.902344 91.496094 73.039062 91.335938 C 80.59375 82.359375 121.371094 37.925781 187.527344 37.925781 C 188.09375 37.925781 188.652344 37.929688 189.222656 37.9375 C 217.460938 38.261719 244.175781 46.484375 268.632812 62.382812 C 286.53125 74.015625 297.914062 86.507812 301.980469 91.335938 C 302.113281 91.496094 302.09375 91.738281 301.933594 91.875 C 301.773438 92.007812 301.53125 91.992188 301.394531 91.828125 C 297.351562 87.023438 286.027344 74.601562 268.214844 63.023438 C 243.882812 47.207031 217.304688 39.023438 189.214844 38.703125 C 122.417969 37.960938 81.203125 82.824219 73.625 91.828125 C 73.546875 91.917969 73.441406 91.964844 73.332031 91.964844 Z M 73.332031 91.964844 " fill-opacity="1" fill-rule="nonzero"/><path fill="#737373" d="M 187.492188 337.089844 C 186.925781 337.089844 186.367188 337.089844 185.796875 337.082031 C 157.558594 336.757812 130.84375 328.535156 106.386719 312.636719 C 88.488281 301.003906 77.105469 288.511719 73.039062 283.683594 C 72.902344 283.519531 72.925781 283.28125 73.085938 283.144531 C 73.25 283.007812 73.488281 283.027344 73.625 283.191406 C 77.667969 287.996094 88.988281 300.417969 106.800781 311.996094 C 131.136719 327.8125 157.714844 335.996094 185.804688 336.316406 C 186.367188 336.324219 186.933594 336.328125 187.492188 336.328125 C 253.316406 336.328125 293.878906 292.121094 301.394531 283.191406 C 301.53125 283.027344 301.769531 283.007812 301.933594 283.144531 C 302.09375 283.28125 302.113281 283.519531 301.980469 283.683594 C 294.425781 292.65625 253.648438 337.089844 187.492188 337.089844 Z M 187.492188 337.089844 " fill-opacity="1" fill-rule="nonzero"/><path fill="#123979" d="M 187.507812 375.019531 C 137.425781 375.019531 90.335938 355.515625 54.921875 320.097656 C 19.503906 284.683594 0 237.59375 0 187.507812 C 0 137.425781 19.503906 90.335938 54.921875 54.921875 C 90.335938 19.503906 137.425781 0 187.507812 0 C 237.59375 0 284.683594 19.503906 320.097656 54.921875 C 355.515625 90.335938 375.019531 137.425781 375.019531 187.507812 C 375.019531 237.59375 355.515625 284.683594 320.097656 320.097656 C 284.683594 355.515625 237.59375 375.019531 187.507812 375.019531 Z M 187.507812 1.527344 C 137.832031 1.527344 91.128906 20.875 56 56 C 20.875 91.128906 1.527344 137.832031 1.527344 187.507812 C 1.527344 237.1875 20.875 283.890625 56 319.019531 C 91.128906 354.144531 137.832031 373.492188 187.507812 373.492188 C 237.1875 373.492188 283.890625 354.144531 319.019531 319.019531 C 354.144531 283.890625 373.492188 237.1875 373.492188 187.507812 C 373.492188 137.832031 354.144531 91.128906 319.019531 56 C 283.890625 20.875 237.1875 1.527344 187.507812 1.527344 Z M 187.507812 1.527344 " fill-opacity="1" fill-rule="nonzero"/><path fill="#123979" d="M 151.835938 261.378906 C 167.542969 261.378906 189.78125 237.753906 208.421875 201.148438 C 208.953125 200.039062 208.886719 198.792969 208.265625 197.75 C 207.644531 196.703125 206.488281 196.105469 205.3125 196.105469 C 205.242188 196.105469 205.242188 196.105469 205.242188 196.105469 L 188.003906 196.214844 L 215.953125 182.636719 C 216.753906 182.214844 217.398438 181.546875 217.707031 180.703125 C 220.019531 174.746094 221.949219 168.546875 223.417969 162.253906 C 223.707031 161.078125 223.304688 159.746094 222.394531 158.878906 C 221.460938 158.054688 220.152344 157.742188 218.929688 158.144531 L 206.734375 162.035156 L 224.640625 150.03125 C 225.484375 149.433594 226.039062 148.566406 226.171875 147.585938 C 230.726562 115.117188 224.972656 88.910156 224.707031 87.824219 C 224.507812 86.734375 223.773438 85.867188 222.796875 85.378906 C 221.796875 84.933594 220.707031 84.933594 219.75 85.445312 C 218.929688 85.824219 200.957031 94.980469 183.425781 114.960938 C 182.804688 115.625 182.492188 116.472656 182.515625 117.292969 L 183.203125 157.722656 L 168.230469 140.964844 C 167.542969 140.121094 166.429688 139.675781 165.34375 139.808594 C 164.253906 139.917969 163.253906 140.519531 162.652344 141.453125 C 159.011719 147.34375 155.832031 153.277344 153.257812 159.167969 C 143.28125 181.992188 136.75 204.773438 135.015625 223.351562 C 133.90625 235.265625 135.039062 244.179688 137.902344 250.492188 L 183.136719 168.34375 L 143.082031 257.871094 L 130.328125 287.007812 C 129.527344 288.761719 130.328125 290.828125 132.105469 291.585938 C 132.550781 291.828125 133.039062 291.941406 133.503906 291.941406 C 134.882812 291.941406 136.171875 291.097656 136.75 289.761719 L 149.390625 260.980469 C 150.210938 261.113281 150.96875 261.378906 151.835938 261.378906 Z M 151.835938 261.378906 " fill-opacity="1" fill-rule="nonzero"/><g clip-path="url(#id1)"><path fill="#123979" d="M 147.722656 291.917969 L 247.011719 291.917969 C 247.011719 291.917969 229.660156 280.761719 147.722656 291.917969 Z M 147.722656 291.917969 " fill-opacity="1" fill-rule="nonzero"/></g></svg>