<?xml version="1.0" encoding="utf-8"?>
<svg viewBox="22.786 73.754 459.576 150.763" xmlns="http://www.w3.org/2000/svg">
  <defs>
    <clipPath id="clippath0" transform="">
      <path d="M 0 1797.008 L 2296.008 1797.008 L 2296.008 0 L 0 0 Z" style="fill: none; clip-rule: nonzero;"/>
    </clipPath>
  </defs>
  <g style="clip-path: url(#clippath0);" transform="matrix(0.318473, 0, 0, -0.318473, -73.661041, 462.562744)">
    <g transform="translate(505.6201 1141.6565)">
      <path d="M 0 0 L -49.911 0 C -64.426 0 -73.698 -14.881 -66.852 -27.187 L 94.288 -316.822 C 101.6 -329.965 121.256 -329.799 128.326 -316.534 L 149.897 -276.062 C 152.716 -270.772 152.716 -264.501 149.897 -259.212 L 17.098 -10.048 C 13.81 -3.88 7.208 0 0 0" style="fill-opacity: 1; fill: rgb(246, 246, 246);"/>
    </g>
  </g>
  <g style="clip-path: url(#clippath0);" transform="matrix(0.318473, 0, 0, -0.318473, -73.661041, 462.562744)">
    <g transform="translate(574.5861 1106.1185)">
      <path d="M 0 0 L 160.487 -282.937 C 170.415 -300.439 196.911 -299.377 205.29 -281.141 L 268.635 -143.267 C 270.1 -140.078 270.826 -136.62 270.763 -133.135 L 270.473 -117.247 C 270.406 -113.573 269.464 -109.962 267.718 -106.693 L 198.749 22.482 C 194.47 30.498 185.886 35.538 176.516 35.538 L 148.284 35.538 C 128.999 35.538 116.98 15.426 126.691 -0.594 L 199.295 -120.375 C 203.586 -127.453 203.83 -136.146 199.944 -143.436 L 199.944 -143.436 C 190.646 -160.883 164.705 -160.86 155.44 -143.397 L 67.46 22.427 C 63.192 30.473 54.591 35.538 45.198 35.538 L 21.941 35.538 C 2.971 35.538 -9.083 16.014 0 0" style="fill-opacity: 1; fill: rgb(246, 246, 246);"/>
    </g>
  </g>
  <g style="clip-path: url(#clippath0);" transform="matrix(0.318473, 0, 0, -0.318473, -73.661041, 462.562744)">
    <g transform="translate(840.9406 1141.6565)">
      <path d="M 0 0 L 68.505 0 C 78.574 0 85.13 -10.18 80.643 -18.847 L 46.39 -85.008 C 41.401 -94.644 27.104 -94.644 22.115 -85.008 L -12.137 -18.847 C -16.624 -10.18 -10.069 0 0 0" style="fill-opacity: 1; fill: rgb(246, 246, 246);"/>
    </g>
  </g>
  <g style="clip-path: url(#clippath0);" transform="matrix(0.318473, 0, 0, -0.318473, -73.661041, 462.562744)">
    <g transform="translate(1244.381 1133.8221)">
      <path d="M 0 0 L 0 0 C -14.6 -12.69 -14.6 -35.361 0 -48.051 L 75.1 -113.324 C 87.441 -124.049 105.9 -123.682 117.803 -112.474 L 118.984 -111.362 C 132.849 -98.308 132.226 -76.083 117.653 -63.826 L 41.371 0.335 C 29.379 10.422 11.828 10.28 0 0" style="fill-opacity: 1; fill: rgb(246, 246, 246);"/>
    </g>
  </g>
  <g style="clip-path: url(#clippath0);" transform="matrix(0.318473, 0, 0, -0.318473, -73.661041, 462.562744)">
    <g transform="translate(1209.4171 1158.6565)">
      <path d="M 0 0 L -80.29 0 C -81.716 0 -83.095 -0.508 -84.18 -1.432 L -193.248 -94.335 C -201.852 -101.664 -202.013 -114.9 -193.589 -122.435 L -19.628 -278.041 C -17.378 -280.053 -13.984 -280.081 -11.701 -278.106 L 30.273 -241.782 C 33.008 -239.415 33.043 -235.185 30.347 -232.773 L -101.097 -115.17 C -103.335 -113.225 -103.393 -110.086 -101.228 -108.079 L 4.094 -10.437 C 8.109 -6.715 5.475 0 0 0" style="fill-opacity: 1; fill: rgb(246, 246, 246);"/>
    </g>
  </g>
  <g style="clip-path: url(#clippath0);" transform="matrix(0.318473, 0, 0, -0.318473, -73.661041, 462.562744)">
    <g transform="translate(1029.5399 947.0933)">
      <path d="M 0 0 L -0.522 -0.454 C -15.948 -13.863 -16.055 -37.782 -0.75 -51.329 L 70.118 -114.054 C 83.045 -125.495 102.513 -125.371 115.292 -113.765 L 115.292 -113.765 C 130.132 -100.288 130.068 -76.937 115.153 -63.542 L 44.807 -0.363 C 32.103 11.046 12.888 11.202 0 0" style="fill-opacity: 1; fill: rgb(246, 246, 246);"/>
    </g>
  </g>
  <g style="clip-path: url(#clippath0);" transform="matrix(0.318473, 0, 0, -0.318473, -73.661041, 462.562744)">
    <g transform="translate(1197.6963 1087.1934)">
      <path d="M 0 0 L 175.82 -152.938 C 184.201 -160.228 184.172 -173.253 175.759 -180.506 L 64.9 -276.081 C 63.811 -277.02 62.421 -277.537 60.982 -277.537 L -21.444 -277.537 C -26.894 -277.537 -29.521 -270.858 -25.532 -267.145 L 78.046 -170.737 C 80.97 -168.015 80.887 -163.769 77.857 -161.135 L -52.089 -48.194 C -54.825 -45.817 -54.844 -41.575 -52.13 -39.173 L -7.915 -0.034 C -5.659 1.962 -2.273 1.977 0 0" style="fill-opacity: 1; fill: rgb(246, 246, 246);"/>
    </g>
  </g>
  <g style="clip-path: url(#clippath0);" transform="matrix(0.318473, 0, 0, -0.318473, -73.661041, 462.562744)">
    <g transform="translate(1706.0841 1071.0189)">
      <path d="M 0 0 L -185.362 0 C -207.078 0 -224.681 17.604 -224.681 39.319 L -224.681 39.319 C -224.681 61.034 -207.078 78.638 -185.362 78.638 L 0 78.638 C 21.715 78.638 39.319 61.034 39.319 39.319 L 39.319 39.319 C 39.319 17.604 21.715 0 0 0" style="fill-opacity: 1; fill: rgb(246, 246, 246);"/>
    </g>
  </g>
  <g style="clip-path: url(#clippath0);" transform="matrix(0.318473, 0, 0, -0.318473, -73.661041, 462.562744)">
    <g transform="translate(1697.2869 1014.0744)">
      <path d="M 0 0 L -174.537 0 C -197.372 0 -215.884 -14.831 -215.884 -33.126 L -215.884 -170.292 C -215.884 -188.587 -197.372 -203.418 -174.537 -203.418 L 0 -203.418 C 22.835 -203.418 41.347 -188.587 41.347 -170.292 L 41.347 -170.292 C 41.347 -152.026 22.892 -137.208 0.093 -137.166 L -86.494 -137.01 C -108.675 -136.97 -126.865 -122.915 -127.717 -105.157 L -127.907 -101.198 C -128.816 -82.281 -109.785 -66.602 -86.156 -66.801 L -0.435 -67.523 C 22.569 -67.717 41.347 -52.83 41.347 -34.399 L 41.347 -33.126 C 41.347 -14.831 22.835 0 0 0" style="fill-opacity: 1; fill: rgb(246, 246, 246);"/>
    </g>
  </g>
</svg>