<svg xmlns="http://www.w3.org/2000/svg" xmlns:xlink="http://www.w3.org/1999/xlink" width="1536" zoomAndPan="magnify" viewBox="0 0 1152 287.999989" height="384" preserveAspectRatio="xMidYMid meet" version="1.0"><defs><clipPath id="id1"><path d="M 130.128906 43.0625 L 422.984375 43.0625 L 422.984375 180 L 130.128906 180 Z M 130.128906 43.0625 " clip-rule="nonzero"/></clipPath><clipPath id="id2"><path d="M 130.128906 196 L 415 196 L 415 219 L 130.128906 219 Z M 130.128906 196 " clip-rule="nonzero"/></clipPath><clipPath id="id3"><path d="M 166 225 L 180 225 L 180 239.355469 L 166 239.355469 Z M 166 225 " clip-rule="nonzero"/></clipPath><clipPath id="id4"><path d="M 196 225 L 212 225 L 212 239.355469 L 196 239.355469 Z M 196 225 " clip-rule="nonzero"/></clipPath><clipPath id="id5"><path d="M 235 225 L 250 225 L 250 239.355469 L 235 239.355469 Z M 235 225 " clip-rule="nonzero"/></clipPath><clipPath id="id6"><path d="M 270 225 L 281 225 L 281 239.355469 L 270 239.355469 Z M 270 225 " clip-rule="nonzero"/></clipPath><clipPath id="id7"><path d="M 297 225 L 310 225 L 310 239.355469 L 297 239.355469 Z M 297 225 " clip-rule="nonzero"/></clipPath><clipPath id="id8"><path d="M 922 79 L 1021.777344 79 L 1021.777344 109 L 922 109 Z M 922 79 " clip-rule="nonzero"/></clipPath></defs><g clip-path="url(#id1)"><path fill="#123979" d="M 338.917969 154.480469 L 338.917969 154.695312 C 338.917969 168.8125 328.621094 179.1875 311.890625 179.1875 C 298.375 179.1875 289.042969 173.839844 282.605469 166.246094 L 293.976562 155.441406 C 299.125 161.21875 304.488281 164.425781 312.105469 164.425781 C 318.324219 164.425781 322.722656 160.898438 322.722656 155.335938 C 322.640625 155.1875 323.9375 145.601562 308.027344 145.601562 L 301.164062 145.601562 L 298.589844 135.121094 L 322.675781 110.960938 L 313.023438 117.152344 L 287.003906 117.152344 L 287.003906 103.035156 L 337.738281 103.035156 L 337.738281 115.441406 L 318.753906 133.515625 C 328.945312 135.230469 338.917969 140.574219 338.917969 154.480469 M 291.832031 68.800781 C 291.832031 62.019531 296.703125 56.566406 303.542969 56.566406 L 311.25 56.566406 L 309.234375 57.570312 C 309.324219 76.148438 308.863281 78.488281 310.054688 81.203125 L 303.628906 81.203125 C 296.789062 81.203125 291.832031 75.660156 291.832031 68.886719 Z M 303.542969 84.316406 L 310.386719 84.316406 L 310.386719 81.859375 C 310.886719 82.722656 311.558594 83.394531 312.546875 83.863281 C 314.726562 84.894531 313.144531 84.246094 375.574219 84.4375 L 375.574219 53.453125 L 372.28125 53.453125 L 372.28125 81.152344 C 372.28125 81.152344 315.195312 81.371094 314.113281 80.886719 C 313.171875 80.464844 312.828125 79.496094 312.671875 78.464844 C 312.421875 76.792969 312.574219 76.761719 312.527344 53.453125 L 303.628906 53.453125 C 294.523438 53.453125 288.328125 60.65625 288.328125 68.886719 L 288.328125 68.96875 C 288.328125 77.195312 294.4375 84.316406 303.542969 84.316406 M 399.84375 50.167969 L 392.628906 50.167969 C 392.785156 47.785156 391.679688 43.339844 396.539062 43.339844 L 398.863281 43.339844 L 398.863281 45.628906 C 396.613281 45.796875 395.320312 45.082031 395.320312 46.878906 L 395.320312 47.636719 L 399.84375 47.636719 Z M 408.179688 84.773438 C 407.300781 84.773438 406.410156 84.648438 405.503906 84.402344 L 406.371094 81.242188 C 407.859375 81.664062 409.761719 81.691406 410.546875 80.359375 C 411.464844 78.785156 411.136719 78.230469 411.1875 53.453125 L 414.476562 53.453125 C 414.382812 76.582031 414.707031 77.226562 414.171875 79.910156 C 413.539062 83.042969 411.632812 84.773438 408.179688 84.773438 M 312.527344 50.167969 L 309.234375 50.167969 L 309.234375 46.886719 L 312.527344 46.886719 Z M 385.003906 61.5 C 386.546875 58.492188 389.792969 56.820312 393.109375 56.785156 L 393.109375 56.777344 L 398.429688 56.777344 L 396.550781 57.714844 L 396.550781 72.460938 C 393.957031 72.382812 392.136719 72.707031 389.738281 71.945312 C 386.460938 70.914062 384.242188 68.398438 384.242188 64.742188 C 384.242188 63.566406 384.492188 62.484375 385.003906 61.5 M 385.003906 73.136719 C 389.289062 76.1875 395.136719 75.683594 395.441406 75.742188 L 396.550781 73.425781 C 396.371094 75.671875 397.167969 78.808594 395.066406 80.378906 C 393.292969 81.707031 390.125 81.664062 388.171875 81.199219 C 387.363281 81.011719 386.4375 80.679688 385.394531 80.214844 L 384.363281 83.375 C 386.449219 84.144531 388.445312 84.773438 390.660156 84.773438 C 393.875 84.773438 396.207031 84.011719 397.660156 82.496094 C 399.113281 80.976562 399.84375 78.929688 399.84375 76.359375 L 399.84375 53.453125 C 395.789062 53.582031 392.714844 53.046875 389.015625 54.316406 C 379.105469 57.722656 378.90625 68.800781 385.003906 73.136719 M 305.941406 50.167969 L 302.648438 50.167969 L 302.648438 46.886719 L 305.941406 46.886719 Z M 271.855469 53.417969 L 275.253906 53.417969 L 275.253906 84.253906 L 272.472656 84.253906 L 250.570312 56.519531 L 252.507812 61.011719 L 252.507812 84.253906 L 249.105469 84.253906 L 249.105469 53.417969 L 252.375 53.417969 L 273.289062 79.945312 L 271.855469 76.160156 Z M 143.425781 84.472656 L 130.128906 53.417969 L 134.015625 53.417969 C 134.214844 53.894531 144.808594 79.488281 145.882812 82.082031 L 145.546875 78.695312 L 156.058594 53.417969 L 159.8125 53.417969 L 146.515625 84.472656 Z M 202.347656 53.417969 L 205.835938 53.417969 L 205.835938 84.25 L 202.347656 84.25 Z M 239.773438 68.921875 C 239.773438 75.925781 234.738281 81.566406 227.667969 81.566406 C 220.601562 81.566406 215.476562 75.839844 215.476562 68.835938 L 215.476562 68.746094 C 215.476562 61.742188 220.515625 56.105469 227.582031 56.105469 C 234.648438 56.105469 239.773438 61.832031 239.773438 68.835938 Z M 227.667969 52.890625 C 218.261719 52.890625 211.855469 60.335938 211.855469 68.835938 L 211.855469 68.921875 C 211.855469 77.425781 218.171875 84.78125 227.582031 84.78125 C 236.988281 84.78125 243.394531 77.335938 243.394531 68.835938 L 243.394531 68.746094 C 243.394531 60.246094 237.078125 52.890625 227.667969 52.890625 M 196.589844 75.882812 L 196.589844 75.96875 C 196.589844 81.253906 192.171875 84.691406 186.03125 84.691406 C 181.128906 84.691406 177.109375 83.0625 173.398438 79.757812 L 175.5625 77.203125 C 178.789062 80.109375 181.878906 81.5625 186.167969 81.5625 C 190.316406 81.5625 193.054688 79.363281 193.054688 76.324219 L 193.054688 76.234375 C 193.054688 67.628906 174.636719 73.308594 174.636719 61.476562 L 174.636719 61.390625 C 174.636719 56.546875 178.921875 52.976562 184.796875 52.976562 C 189.300781 52.976562 192.527344 54.257812 195.660156 56.765625 L 193.632812 59.453125 C 186.621094 53.753906 178.125 55.9375 178.125 61.082031 L 178.125 61.171875 C 178.125 64.078125 179.714844 65.707031 186.519531 67.160156 C 193.410156 68.660156 196.589844 71.171875 196.589844 75.882812 M 168.039062 84.253906 L 164.550781 84.253906 L 164.550781 53.421875 L 168.039062 53.421875 Z M 371.132812 87.71875 L 374.425781 87.71875 L 374.425781 91.003906 L 371.132812 91.003906 Z M 364.542969 87.71875 L 367.839844 87.71875 L 367.839844 91.003906 L 364.542969 91.003906 Z M 157.742188 163.675781 L 186.371094 163.675781 L 186.371094 177.90625 L 130.808594 177.90625 L 130.808594 164.855469 C 158.570312 141.316406 168.78125 136.714844 168.78125 126.457031 C 168.78125 120.148438 164.597656 116.726562 158.695312 116.726562 C 152.902344 116.726562 148.933594 119.933594 143.359375 126.777344 L 131.773438 117.472656 C 139.175781 107.417969 146.363281 101.964844 159.769531 101.964844 C 175.324219 101.964844 185.621094 111.054688 185.621094 125.066406 L 185.621094 125.28125 C 185.621094 142.851562 172.304688 148.515625 149.476562 166.894531 L 146.289062 169.347656 Z M 405.714844 140.683594 C 405.714844 153.515625 396.488281 164 383.1875 164 C 369.886719 164 360.449219 153.304688 360.449219 140.46875 L 360.449219 140.253906 C 360.449219 127.417969 369.675781 116.9375 382.972656 116.9375 C 396.273438 116.9375 405.714844 127.632812 405.714844 140.46875 Z M 383.1875 101.75 C 360.019531 101.75 343.179688 119.183594 343.179688 140.46875 L 343.179688 140.683594 C 343.179688 161.96875 359.804688 179.1875 382.972656 179.1875 C 406.144531 179.1875 422.984375 161.753906 422.984375 140.46875 L 422.984375 140.253906 C 422.984375 118.96875 406.355469 101.75 383.1875 101.75 " fill-opacity="1" fill-rule="nonzero"/></g><path fill="#123979" d="M 231.253906 96.824219 L 235.058594 100.464844 L 231.40625 104.257812 L 227.605469 100.617188 " fill-opacity="1" fill-rule="nonzero"/><path fill="#123979" d="M 239.957031 100.617188 L 243.757812 104.257812 L 247.40625 100.464844 L 243.605469 96.824219 " fill-opacity="1" fill-rule="nonzero"/><path fill="#123979" d="M 234.601562 105.394531 L 237.5625 108.226562 L 240.402344 105.277344 L 237.445312 102.445312 " fill-opacity="1" fill-rule="nonzero"/><path fill="#123979" d="M 245.457031 107.015625 L 248.417969 109.851562 L 251.257812 106.898438 L 248.296875 104.0625 " fill-opacity="1" fill-rule="nonzero"/><path fill="#123979" d="M 229.761719 109.910156 L 232.722656 112.742188 L 235.5625 109.792969 L 232.605469 106.957031 " fill-opacity="1" fill-rule="nonzero"/><path fill="#123979" d="M 239.695312 110.253906 L 242.65625 113.085938 L 245.496094 110.136719 L 242.535156 107.300781 " fill-opacity="1" fill-rule="nonzero"/><path fill="#123979" d="M 235.808594 113.648438 L 237.890625 115.640625 L 239.890625 113.566406 L 237.808594 111.570312 " fill-opacity="1" fill-rule="nonzero"/><path fill="#123979" d="M 243.664062 115.214844 L 245.746094 117.207031 L 247.746094 115.128906 L 245.664062 113.136719 " fill-opacity="1" fill-rule="nonzero"/><path fill="#123979" d="M 260.824219 99.417969 L 267.28125 98.234375 L 268.464844 104.675781 L 262.003906 105.859375 Z M 260.824219 99.417969 " fill-opacity="1" fill-rule="nonzero"/><path fill="#123979" d="M 252.390625 102.117188 L 257.574219 101.167969 L 258.523438 106.339844 L 253.339844 107.285156 Z M 252.390625 102.117188 " fill-opacity="1" fill-rule="nonzero"/><path fill="#123979" d="M 262.410156 109.320312 L 267.59375 108.371094 L 268.542969 113.539062 L 263.359375 114.488281 Z M 262.410156 109.320312 " fill-opacity="1" fill-rule="nonzero"/><path fill="#123979" d="M 255.261719 110.078125 L 259.300781 109.339844 L 260.035156 113.363281 L 256 114.101562 Z M 255.261719 110.078125 " fill-opacity="1" fill-rule="nonzero"/><path fill="#123979" d="M 263.117188 117.722656 L 267.152344 116.984375 L 267.890625 121.007812 L 263.851562 121.746094 Z M 263.117188 117.722656 " fill-opacity="1" fill-rule="nonzero"/><path fill="#123979" d="M 249.214844 111.714844 L 253.253906 110.976562 L 253.992188 115 L 249.953125 115.738281 Z M 249.214844 111.714844 " fill-opacity="1" fill-rule="nonzero"/><path fill="#123979" d="M 256.542969 116.984375 L 260.578125 116.246094 L 261.316406 120.273438 L 257.28125 121.011719 Z M 256.542969 116.984375 " fill-opacity="1" fill-rule="nonzero"/><path fill="#123979" d="M 251.398438 117.472656 L 254.238281 116.953125 L 254.757812 119.78125 L 251.917969 120.304688 Z M 251.398438 117.472656 " fill-opacity="1" fill-rule="nonzero"/><path fill="#123979" d="M 256.851562 123.324219 L 259.691406 122.808594 L 260.210938 125.636719 L 257.371094 126.15625 Z M 256.851562 123.324219 " fill-opacity="1" fill-rule="nonzero"/><path fill="#123979" d="M 280.039062 120.523438 L 277.214844 126.4375 L 283.148438 129.25 L 285.96875 123.335938 " fill-opacity="1" fill-rule="nonzero"/><path fill="#123979" d="M 271.617188 117.789062 L 269.355469 122.535156 L 274.113281 124.792969 L 276.375 120.046875 " fill-opacity="1" fill-rule="nonzero"/><path fill="#123979" d="M 275.511719 129.476562 L 273.246094 134.222656 L 278.007812 136.480469 L 280.269531 131.734375 " fill-opacity="1" fill-rule="nonzero"/><path fill="#123979" d="M 269.273438 125.917969 L 267.511719 129.613281 L 271.21875 131.371094 L 272.984375 127.675781 " fill-opacity="1" fill-rule="nonzero"/><path fill="#123979" d="M 271.15625 136.703125 L 269.394531 140.398438 L 273.097656 142.15625 L 274.863281 138.460938 " fill-opacity="1" fill-rule="nonzero"/><path fill="#123979" d="M 263.410156 123.71875 L 261.644531 127.414062 L 265.351562 129.171875 L 267.117188 125.476562 " fill-opacity="1" fill-rule="nonzero"/><path fill="#123979" d="M 266.261719 132.269531 L 264.496094 135.960938 L 268.199219 137.71875 L 269.964844 134.023438 " fill-opacity="1" fill-rule="nonzero"/><path fill="#123979" d="M 261.804688 129.664062 L 260.5625 132.261719 L 263.167969 133.496094 L 264.410156 130.898438 " fill-opacity="1" fill-rule="nonzero"/><path fill="#123979" d="M 261.546875 140.179688 L 262.785156 137.582031 L 265.390625 138.820312 L 264.152344 141.417969 Z M 261.546875 140.179688 " fill-opacity="1" fill-rule="nonzero"/><path fill="#123979" d="M 283.234375 148.847656 L 277.472656 151.996094 L 280.632812 157.738281 L 286.394531 154.589844 " fill-opacity="1" fill-rule="nonzero"/><path fill="#123979" d="M 278.007812 141.71875 L 273.390625 144.246094 L 275.925781 148.851562 L 280.542969 146.324219 " fill-opacity="1" fill-rule="nonzero"/><path fill="#123979" d="M 274.308594 153.46875 L 269.6875 155.996094 L 272.222656 160.605469 L 276.84375 158.078125 " fill-opacity="1" fill-rule="nonzero"/><path fill="#123979" d="M 271.339844 146.945312 L 267.742188 148.914062 L 269.714844 152.5 L 273.316406 150.53125 " fill-opacity="1" fill-rule="nonzero"/><path fill="#123979" d="M 266.539062 156.785156 L 262.941406 158.753906 L 264.914062 162.339844 L 268.511719 160.375 " fill-opacity="1" fill-rule="nonzero"/><path fill="#123979" d="M 267.875 141.738281 L 264.277344 143.707031 L 266.25 147.292969 L 269.847656 145.324219 " fill-opacity="1" fill-rule="nonzero"/><path fill="#123979" d="M 265.167969 150.332031 L 261.570312 152.300781 L 263.542969 155.886719 L 267.144531 153.921875 " fill-opacity="1" fill-rule="nonzero"/><path fill="#123979" d="M 263.082031 145.621094 L 260.550781 147.003906 L 261.941406 149.527344 L 264.46875 148.144531 " fill-opacity="1" fill-rule="nonzero"/><path fill="#123979" d="M 259.230469 152.625 L 256.699219 154.007812 L 258.089844 156.53125 L 260.621094 155.148438 " fill-opacity="1" fill-rule="nonzero"/><path fill="#123979" d="M 261.875 179.355469 L 262.679688 172.855469 L 269.199219 173.660156 L 268.394531 180.160156 Z M 261.875 179.355469 " fill-opacity="1" fill-rule="nonzero"/><path fill="#123979" d="M 263.28125 169.425781 L 263.929688 164.210938 L 269.15625 164.859375 L 268.511719 170.074219 Z M 263.28125 169.425781 " fill-opacity="1" fill-rule="nonzero"/><path fill="#123979" d="M 253.382812 176.796875 L 254.03125 171.582031 L 259.261719 172.230469 L 258.613281 177.445312 Z M 253.382812 176.796875 " fill-opacity="1" fill-rule="nonzero"/><path fill="#123979" d="M 256.109375 168.773438 L 256.609375 164.714844 L 260.683594 165.21875 L 260.179688 169.277344 Z M 256.109375 168.773438 " fill-opacity="1" fill-rule="nonzero"/><path fill="#123979" d="M 246.433594 173.953125 L 246.9375 169.890625 L 251.007812 170.394531 L 250.507812 174.453125 Z M 246.433594 173.953125 " fill-opacity="1" fill-rule="nonzero"/><path fill="#123979" d="M 256.347656 162.519531 L 256.851562 158.457031 L 260.925781 158.960938 L 260.421875 163.023438 Z M 256.347656 162.519531 " fill-opacity="1" fill-rule="nonzero"/><path fill="#123979" d="M 249.109375 167.90625 L 249.613281 163.847656 L 253.6875 164.351562 L 253.183594 168.414062 Z M 249.109375 167.90625 " fill-opacity="1" fill-rule="nonzero"/><path fill="#123979" d="M 251.542969 161.824219 L 251.898438 158.96875 L 254.761719 159.324219 L 254.410156 162.179688 Z M 251.542969 161.824219 " fill-opacity="1" fill-rule="nonzero"/><path fill="#123979" d="M 244.304688 165.253906 L 244.660156 162.398438 L 247.523438 162.75 L 247.171875 165.605469 Z M 244.304688 165.253906 " fill-opacity="1" fill-rule="nonzero"/><path fill="#123979" d="M 243.257812 185.636719 L 238.445312 181.179688 L 233.976562 185.980469 L 238.789062 190.4375 " fill-opacity="1" fill-rule="nonzero"/><path fill="#123979" d="M 242.371094 93.886719 L 237.558594 89.429688 L 233.085938 94.230469 L 237.902344 98.6875 " fill-opacity="1" fill-rule="nonzero"/><path fill="#123979" d="M 248.394531 178.445312 L 244.535156 174.871094 L 240.949219 178.722656 L 244.8125 182.296875 " fill-opacity="1" fill-rule="nonzero"/><path fill="#123979" d="M 236.046875 178.652344 L 232.179688 175.074219 L 228.597656 178.925781 L 232.460938 182.5 " fill-opacity="1" fill-rule="nonzero"/><path fill="#123979" d="M 241.316406 173.78125 L 238.308594 171 L 235.519531 173.996094 L 238.523438 176.78125 " fill-opacity="1" fill-rule="nonzero"/><path fill="#123979" d="M 230.4375 172.34375 L 227.429688 169.558594 L 224.640625 172.554688 L 227.648438 175.339844 " fill-opacity="1" fill-rule="nonzero"/><path fill="#123979" d="M 245.179688 168.863281 L 242.171875 166.078125 L 239.382812 169.078125 L 242.386719 171.859375 " fill-opacity="1" fill-rule="nonzero"/><path fill="#123979" d="M 236.144531 169.011719 L 233.136719 166.226562 L 230.347656 169.226562 L 233.351562 172.007812 " fill-opacity="1" fill-rule="nonzero"/><path fill="#123979" d="M 239.972656 165.550781 L 237.859375 163.59375 L 235.894531 165.703125 L 238.011719 167.660156 " fill-opacity="1" fill-rule="nonzero"/><path fill="#123979" d="M 232.09375 164.117188 L 229.976562 162.15625 L 228.011719 164.265625 L 230.128906 166.226562 " fill-opacity="1" fill-rule="nonzero"/><path fill="#123979" d="M 207.46875 175.058594 L 213.910156 173.769531 L 215.199219 180.191406 L 208.757812 181.480469 Z M 207.46875 175.058594 " fill-opacity="1" fill-rule="nonzero"/><path fill="#123979" d="M 217.382812 173.234375 L 222.550781 172.199219 L 223.585938 177.355469 L 218.417969 178.386719 Z M 217.382812 173.234375 " fill-opacity="1" fill-rule="nonzero"/><path fill="#123979" d="M 207.253906 166.195312 L 212.417969 165.160156 L 213.453125 170.3125 L 208.289062 171.347656 Z M 207.253906 166.195312 " fill-opacity="1" fill-rule="nonzero"/><path fill="#123979" d="M 215.753906 166.238281 L 219.773438 165.433594 L 220.582031 169.445312 L 216.558594 170.25 Z M 215.753906 166.238281 " fill-opacity="1" fill-rule="nonzero"/><path fill="#123979" d="M 221.769531 164.5 L 225.792969 163.695312 L 226.597656 167.707031 L 222.574219 168.511719 Z M 221.769531 164.5 " fill-opacity="1" fill-rule="nonzero"/><path fill="#123979" d="M 214.355469 159.351562 L 218.378906 158.546875 L 219.183594 162.558594 L 215.164062 163.363281 Z M 214.355469 159.351562 " fill-opacity="1" fill-rule="nonzero"/><path fill="#123979" d="M 220.921875 159.738281 L 223.753906 159.171875 L 224.320312 161.992188 L 221.488281 162.558594 Z M 220.921875 159.738281 " fill-opacity="1" fill-rule="nonzero"/><path fill="#123979" d="M 215.375 153.972656 L 218.207031 153.40625 L 218.773438 156.226562 L 215.941406 156.792969 Z M 215.375 153.972656 " fill-opacity="1" fill-rule="nonzero"/><path fill="#123979" d="M 195.640625 159.410156 L 198.363281 153.449219 L 192.382812 150.734375 L 189.660156 156.691406 " fill-opacity="1" fill-rule="nonzero"/><path fill="#123979" d="M 204.101562 162.003906 L 206.285156 157.222656 L 201.492188 155.042969 L 199.304688 159.824219 " fill-opacity="1" fill-rule="nonzero"/><path fill="#123979" d="M 200.011719 150.382812 L 202.199219 145.597656 L 197.402344 143.417969 L 195.21875 148.203125 " fill-opacity="1" fill-rule="nonzero"/><path fill="#123979" d="M 202.570312 152.144531 L 204.273438 148.421875 L 208.003906 150.121094 L 206.304688 153.84375 Z M 202.570312 152.144531 " fill-opacity="1" fill-rule="nonzero"/><path fill="#123979" d="M 211.304688 163.144531 L 213.007812 159.421875 L 209.273438 157.726562 L 207.570312 161.449219 " fill-opacity="1" fill-rule="nonzero"/><path fill="#123979" d="M 200.519531 141.390625 L 202.222656 137.664062 L 205.953125 139.367188 L 204.253906 143.089844 Z M 200.519531 141.390625 " fill-opacity="1" fill-rule="nonzero"/><path fill="#123979" d="M 208.480469 154.242188 L 210.179688 150.519531 L 213.914062 152.21875 L 212.210938 155.941406 Z M 208.480469 154.242188 " fill-opacity="1" fill-rule="nonzero"/><path fill="#123979" d="M 205.484375 145.75 L 207.1875 142.023438 L 210.917969 143.726562 L 209.214844 147.449219 Z M 205.484375 145.75 " fill-opacity="1" fill-rule="nonzero"/><path fill="#123979" d="M 213.71875 149.96875 L 214.914062 147.347656 L 212.289062 146.15625 L 211.089844 148.773438 " fill-opacity="1" fill-rule="nonzero"/><path fill="#123979" d="M 212.597656 142.058594 L 213.796875 139.4375 L 211.167969 138.246094 L 209.972656 140.867188 " fill-opacity="1" fill-rule="nonzero"/><path fill="#123979" d="M 191.972656 131.140625 L 197.679688 127.898438 L 194.421875 122.207031 L 188.714844 125.449219 " fill-opacity="1" fill-rule="nonzero"/><path fill="#123979" d="M 197.3125 138.183594 L 201.890625 135.582031 L 199.28125 131.015625 L 194.703125 133.621094 " fill-opacity="1" fill-rule="nonzero"/><path fill="#123979" d="M 200.820312 126.371094 L 205.398438 123.769531 L 202.785156 119.203125 L 198.207031 121.808594 " fill-opacity="1" fill-rule="nonzero"/><path fill="#123979" d="M 203.894531 132.847656 L 207.457031 130.820312 L 205.425781 127.265625 L 201.863281 129.292969 " fill-opacity="1" fill-rule="nonzero"/><path fill="#123979" d="M 208.535156 122.929688 L 212.097656 120.902344 L 210.0625 117.347656 L 206.5 119.371094 " fill-opacity="1" fill-rule="nonzero"/><path fill="#123979" d="M 207.445312 137.996094 L 211.011719 135.96875 L 208.980469 132.414062 L 205.414062 134.441406 " fill-opacity="1" fill-rule="nonzero"/><path fill="#123979" d="M 210.007812 129.355469 L 213.574219 127.332031 L 211.542969 123.777344 L 207.976562 125.804688 " fill-opacity="1" fill-rule="nonzero"/><path fill="#123979" d="M 212.175781 134.035156 L 214.683594 132.609375 L 213.25 130.109375 L 210.746094 131.535156 " fill-opacity="1" fill-rule="nonzero"/><path fill="#123979" d="M 215.90625 126.964844 L 218.414062 125.539062 L 216.984375 123.042969 L 214.476562 124.46875 " fill-opacity="1" fill-rule="nonzero"/><path fill="#123979" d="M 205.585938 106.085938 L 206.285156 99.570312 L 212.816406 100.269531 L 212.117188 106.78125 Z M 205.585938 106.085938 " fill-opacity="1" fill-rule="nonzero"/><path fill="#123979" d="M 205.78125 114.90625 L 206.34375 109.683594 L 211.582031 110.242188 L 211.023438 115.46875 Z M 205.78125 114.90625 " fill-opacity="1" fill-rule="nonzero"/><path fill="#123979" d="M 215.554688 107.375 L 216.113281 102.148438 L 221.355469 102.710938 L 220.796875 107.933594 Z M 215.554688 107.375 " fill-opacity="1" fill-rule="nonzero"/><path fill="#123979" d="M 214.257812 114.425781 L 214.691406 110.355469 L 218.773438 110.792969 L 218.335938 114.859375 Z M 214.257812 114.425781 " fill-opacity="1" fill-rule="nonzero"/><path fill="#123979" d="M 223.828125 109.070312 L 224.265625 105.003906 L 228.34375 105.4375 L 227.910156 109.507812 Z M 223.828125 109.070312 " fill-opacity="1" fill-rule="nonzero"/><path fill="#123979" d="M 214.109375 120.667969 L 214.546875 116.601562 L 218.625 117.035156 L 218.191406 121.105469 Z M 214.109375 120.667969 " fill-opacity="1" fill-rule="nonzero"/><path fill="#123979" d="M 221.261719 115.15625 L 221.699219 111.085938 L 225.777344 111.523438 L 225.339844 115.59375 Z M 221.261719 115.15625 " fill-opacity="1" fill-rule="nonzero"/><path fill="#123979" d="M 220.269531 120.214844 L 220.574219 117.351562 L 223.445312 117.660156 L 223.140625 120.519531 Z M 220.269531 120.214844 " fill-opacity="1" fill-rule="nonzero"/><path fill="#123979" d="M 227.449219 116.660156 L 227.753906 113.796875 L 230.628906 114.101562 L 230.320312 116.964844 Z M 227.449219 116.660156 " fill-opacity="1" fill-rule="nonzero"/><path fill="#123979" d="M 258.445312 143.957031 C 255.003906 141.976562 250.21875 141.402344 245.261719 143.214844 C 243.097656 144.035156 240.925781 145.464844 239.097656 146.863281 C 237.945312 139.878906 238.503906 133.398438 238.773438 130.214844 C 238.777344 130.199219 238.796875 130.191406 238.8125 130.199219 C 241.289062 131.757812 240.59375 136.101562 240.074219 137.347656 C 240.0625 137.371094 240.101562 137.386719 240.117188 137.367188 C 243.203125 133.726562 241.695312 129.710938 241.0625 128.691406 C 240.949219 128.507812 241.648438 129.066406 242.21875 129.800781 C 244.375 132.542969 243.378906 135.621094 243.621094 135.550781 C 243.625 135.546875 243.632812 135.550781 243.636719 135.542969 C 245.070312 132.734375 244.609375 129.171875 241.660156 126.597656 C 241.527344 126.484375 242.050781 126.65625 242.21875 126.714844 C 244.734375 127.585938 246.042969 130.171875 246.027344 132.480469 C 246.027344 132.984375 247.722656 128.144531 243.621094 125.6875 C 242.851562 125.226562 242.0625 124.976562 241.550781 124.914062 C 241.148438 124.871094 243.746094 124.480469 245.574219 125.714844 C 246.667969 126.457031 246.957031 127.347656 246.929688 127.097656 C 246.609375 123.859375 242.789062 122.578125 240.46875 123.550781 C 240.226562 123.671875 241.382812 121.960938 243.621094 122.09375 C 244.050781 122.117188 244.449219 122.210938 244.769531 122.363281 C 244.789062 122.371094 244.8125 122.34375 244.792969 122.324219 C 243.105469 120.394531 240.324219 120.351562 238.847656 122.585938 C 238.835938 122.601562 238.816406 122.601562 238.808594 122.585938 C 238.246094 121.585938 237.78125 120.304688 237.578125 119.09375 C 237.527344 118.785156 237.425781 120.589844 236.304688 122.585938 C 236.296875 122.601562 236.273438 122.601562 236.265625 122.585938 C 234.785156 120.347656 232.007812 120.390625 230.316406 122.324219 C 230.300781 122.34375 230.320312 122.371094 230.34375 122.363281 C 231.472656 121.828125 233.601562 121.984375 234.667969 123.511719 C 234.683594 123.535156 234.664062 123.5625 234.640625 123.550781 C 232.25 122.546875 228.5 123.910156 228.183594 127.097656 C 228.179688 127.125 228.214844 127.140625 228.230469 127.117188 C 228.335938 126.917969 228.597656 126.492188 229.089844 126.0625 C 231 124.378906 234.003906 124.867188 233.5625 124.914062 C 232.386719 125.058594 229.980469 126.101562 229.089844 128.488281 C 228.363281 130.4375 229.0625 133.003906 229.089844 132.371094 C 229.113281 130.199219 230.355469 127.296875 233.429688 126.554688 C 233.453125 126.550781 233.46875 126.582031 233.449219 126.597656 C 228.679688 130.789062 231.566406 135.9375 231.519531 135.53125 C 231.371094 133.867188 231.25 130.902344 234.007812 128.664062 C 234.03125 128.644531 234.0625 128.667969 234.046875 128.691406 C 233.414062 129.710938 231.910156 133.726562 234.992188 137.367188 C 235.007812 137.386719 235.046875 137.371094 235.035156 137.347656 C 234.519531 136.101562 233.824219 131.757812 236.296875 130.199219 C 236.3125 130.191406 236.335938 130.199219 236.335938 130.214844 C 236.605469 133.398438 237.167969 139.878906 236.015625 146.863281 C 232.09375 143.871094 228.234375 141.90625 223.265625 142.125 C 220.765625 142.234375 218.390625 142.960938 216.667969 143.957031 C 216.605469 143.992188 216.652344 144.082031 216.71875 144.0625 C 223.949219 141.75 230.207031 144.554688 236.023438 149.390625 C 233.085938 151.949219 230.417969 154.625 228.867188 155.433594 C 228.507812 154.941406 227.878906 154.65625 227.191406 154.804688 C 225.898438 155.089844 225.589844 156.707031 226.292969 157.402344 C 228.832031 159.933594 232.804688 154.910156 237.554688 150.710938 C 242.128906 154.75 246.28125 159.933594 248.816406 157.402344 C 249.019531 157.199219 249.253906 156.535156 249.132812 156.003906 C 248.828125 154.683594 247.070312 154.300781 246.242188 155.433594 C 244.75 154.683594 242.136719 152.042969 239.085938 149.390625 C 244.945312 144.511719 251.136719 141.789062 258.390625 144.0625 C 258.460938 144.082031 258.503906 143.992188 258.445312 143.957031 " fill-opacity="1" fill-rule="nonzero"/><g clip-path="url(#id2)"><path fill="#123979" d="M 235.308594 213.070312 L 237.191406 213.070312 L 237.191406 196.210938 L 235.308594 196.210938 Z M 185.921875 211.191406 L 182.976562 203.980469 C 186.023438 201.402344 189.804688 201.878906 192.238281 203.980469 L 189.292969 211.191406 Z M 175.53125 211.191406 C 174.050781 211.148438 173.007812 211.332031 171.632812 210.898438 C 166.539062 209.292969 167.925781 202.21875 173.625 202.21875 L 175.53125 202.21875 Z M 227.933594 211.191406 C 224.898438 211.097656 222.160156 211.726562 220.769531 209.3125 C 221.042969 208.105469 220.894531 207.023438 220.933594 201.488281 L 219.050781 201.488281 L 219.050781 207.855469 C 219.050781 212.53125 213.40625 212.226562 212.074219 209.417969 C 211.542969 208.292969 211.867188 207.820312 211.769531 201.488281 L 209.882812 201.488281 L 209.882812 208 C 209.882812 210.121094 208.554688 211.191406 206.703125 211.191406 L 203.050781 211.191406 L 203.050781 201.488281 L 201.167969 201.488281 L 201.167969 211.191406 L 191.269531 211.191406 L 194.570312 203.324219 C 192.699219 201.6875 190.09375 200.152344 187.597656 200.152344 C 185.058594 200.152344 182.503906 201.621094 180.621094 203.324219 L 183.945312 211.191406 L 177.417969 211.191406 L 177.417969 200.316406 L 174.402344 200.316406 C 170.140625 200.316406 166.601562 202.761719 166.601562 206.777344 C 166.601562 213.917969 175.371094 213.035156 175.53125 213.070312 C 175.503906 213.304688 175.765625 214.917969 174.683594 215.726562 C 173.671875 216.484375 171.863281 216.464844 170.738281 216.199219 C 170.273438 216.085938 169.742188 215.898438 169.148438 215.632812 L 168.558594 217.441406 C 169.753906 217.882812 170.894531 218.242188 172.164062 218.242188 C 175.753906 218.242188 177.417969 216.453125 177.417969 213.425781 L 177.417969 213.070312 C 208.175781 212.878906 207.269531 213.515625 209.144531 212.484375 C 209.855469 212.09375 210.433594 211.570312 210.875 210.910156 C 211.332031 211.664062 211.949219 212.25 212.734375 212.675781 C 214.382812 213.558594 216.898438 213.472656 218.425781 212.71875 C 219.21875 212.328125 219.828125 211.726562 220.25 210.910156 C 220.980469 212.152344 222.109375 212.949219 224.375 213.050781 L 224.375 213.070312 L 229.816406 213.070312 L 229.816406 196.210938 L 227.933594 196.210938 Z M 397.054688 210.359375 C 395.386719 214.253906 389.648438 214.363281 387.984375 210.300781 C 387.496094 209.105469 387.496094 207.691406 387.984375 206.480469 C 389.996094 201.5 397.445312 202.933594 397.445312 208.398438 C 397.445312 209.101562 397.316406 209.753906 397.054688 210.359375 M 378.773438 210.359375 C 377.332031 213.707031 372.984375 214.203125 370.714844 211.863281 C 368.851562 209.9375 368.902344 206.800781 370.703125 204.910156 C 372.167969 203.351562 374.429688 203.101562 376.15625 203.816406 C 378.882812 204.949219 379.789062 208 378.773438 210.359375 M 332.933594 211.191406 C 331.492188 211.148438 330.445312 211.335938 329.082031 210.886719 C 324.117188 209.257812 325.300781 202.195312 331.070312 202.195312 L 332.933594 202.195312 Z M 405.21875 211.191406 L 398.742188 211.191406 C 400.761719 206.757812 397.621094 201.558594 392.449219 201.558594 C 387.683594 201.558594 384.351562 206.4375 386.300781 211.191406 L 380.457031 211.191406 C 382.425781 206.886719 379.441406 201.558594 374.164062 201.558594 C 369.398438 201.558594 366.070312 206.441406 368.015625 211.191406 L 362.03125 211.191406 L 362.03125 196.210938 L 360.144531 196.210938 L 360.144531 211.191406 L 354.140625 211.191406 C 354.035156 209.261719 354.578125 206.40625 352.960938 204.601562 C 351.863281 203.367188 350.644531 202.980469 348.976562 202.980469 L 340.636719 202.980469 L 344.1875 196.210938 L 342.136719 196.210938 L 338.515625 202.957031 C 338.632812 203.707031 338.859375 204.292969 339.367188 204.859375 C 348.792969 204.941406 349.40625 204.664062 350.523438 205.132812 C 351.394531 205.492188 351.929688 206.152344 352.113281 206.953125 C 352.335938 207.917969 352.222656 208.640625 352.253906 211.191406 L 334.820312 211.191406 L 334.820312 200.316406 L 331.847656 200.316406 C 326.855469 200.316406 324.074219 203.285156 324.074219 206.703125 C 324.074219 210.992188 327.523438 213.070312 331.847656 213.070312 L 369.242188 213.070312 C 372.015625 216.054688 376.683594 215.804688 379.230469 213.070312 L 387.523438 213.070312 C 390.289062 216.046875 394.953125 215.8125 397.515625 213.070312 L 407.105469 213.070312 L 407.105469 196.210938 L 405.21875 196.210938 Z M 412.59375 213.070312 L 414.476562 213.070312 L 414.476562 196.210938 L 412.59375 196.210938 Z M 273.714844 217.210938 L 275.652344 217.210938 L 275.652344 215.28125 L 273.714844 215.28125 Z M 292.144531 211.191406 L 289.195312 203.980469 C 292.21875 201.421875 295.992188 201.855469 298.457031 203.980469 L 295.511719 211.191406 Z M 305.5 211.191406 L 297.492188 211.191406 L 300.789062 203.324219 C 298.914062 201.679688 296.300781 200.152344 293.816406 200.152344 C 291.269531 200.152344 288.722656 201.628906 286.839844 203.324219 L 290.164062 211.191406 L 283.144531 211.191406 L 283.144531 200.316406 L 281.257812 200.316406 L 281.257812 213.472656 C 281.257812 215.132812 281.136719 216.363281 279.464844 216.363281 C 279.078125 216.363281 278.875 216.328125 278.5 216.21875 L 278.007812 218.03125 C 279.582031 218.460938 281.441406 218.316406 282.363281 216.960938 C 283.199219 215.730469 283.101562 214.035156 283.144531 213.070312 L 307.386719 213.070312 L 307.386719 196.210938 L 305.5 196.210938 Z M 162.410156 201.960938 C 160.3125 199.675781 157.886719 200.503906 157.058594 200.316406 L 157.058594 202.195312 C 158.433594 202.246094 159.070312 202.042969 160.003906 202.488281 C 160.789062 202.867188 161.34375 203.472656 161.570312 204.332031 C 161.828125 205.320312 161.683594 206.089844 161.726562 211.191406 L 152.890625 211.191406 L 152.890625 213.070312 L 163.609375 213.070312 C 163.53125 205.949219 163.804688 205.195312 163.316406 203.605469 C 163.117188 202.960938 162.816406 202.414062 162.410156 201.960938 M 266.824219 217.230469 L 268.761719 217.230469 L 268.761719 215.300781 L 266.824219 215.300781 Z M 255.363281 211.191406 C 253.925781 211.148438 252.878906 211.335938 251.511719 210.886719 C 246.539062 209.257812 247.738281 202.195312 253.5 202.195312 L 255.363281 202.195312 Z M 275.625 200.316406 L 273.742188 200.316406 L 273.742188 211.191406 L 266.625 211.191406 L 266.625 200.316406 L 264.742188 200.316406 L 264.742188 211.191406 L 257.25 211.191406 L 257.25 200.316406 C 254.878906 200.390625 251.339844 199.835938 248.625 202.136719 C 244.773438 205.394531 245.765625 213.070312 254.28125 213.070312 L 275.625 213.070312 Z M 263.523438 217.230469 L 265.457031 217.230469 L 265.457031 215.300781 L 263.523438 215.300781 Z M 137.5625 196.210938 L 135.625 196.210938 L 135.625 198.140625 L 137.5625 198.140625 Z M 331.507812 196.210938 L 329.570312 196.210938 L 329.570312 198.140625 L 331.507812 198.140625 Z M 257.238281 196.210938 L 255.304688 196.210938 L 255.304688 198.140625 L 257.238281 198.140625 Z M 148.679688 217.230469 L 150.617188 217.230469 L 150.617188 215.300781 L 148.679688 215.300781 Z M 253.9375 196.210938 L 252 196.210938 L 252 198.140625 L 253.9375 198.140625 Z M 140.863281 196.210938 L 138.925781 196.210938 L 138.925781 198.140625 L 140.863281 198.140625 Z M 145.378906 217.230469 L 147.316406 217.230469 L 147.316406 215.300781 L 145.378906 215.300781 Z M 138.988281 211.191406 C 137.550781 211.148438 136.5 211.335938 135.136719 210.886719 C 130.175781 209.261719 131.347656 202.195312 137.125 202.195312 L 138.988281 202.195312 Z M 150.25 200.316406 L 148.367188 200.316406 L 148.367188 211.191406 L 140.871094 211.191406 L 140.871094 200.316406 C 138.613281 200.386719 136.816406 200.089844 134.699219 200.796875 C 132.921875 201.390625 131.472656 202.488281 130.679688 204.167969 C 129.859375 205.917969 130.007812 208.144531 130.765625 209.570312 C 132.128906 212.144531 134.988281 213.070312 137.902344 213.070312 L 150.25 213.070312 Z M 312.875 213.070312 L 314.761719 213.070312 L 314.761719 196.210938 L 312.875 196.210938 Z M 334.808594 196.210938 L 332.871094 196.210938 L 332.871094 198.140625 L 334.808594 198.140625 Z M 334.808594 196.210938 " fill-opacity="1" fill-rule="nonzero"/></g><path fill="#123979" d="M 131.972656 225.421875 L 134.339844 225.421875 L 134.339844 232.171875 L 140.742188 225.421875 L 143.648438 225.421875 L 138.050781 231.195312 L 143.898438 238.847656 L 141.03125 238.847656 L 136.4375 232.804688 L 134.339844 234.953125 L 134.339844 238.847656 L 131.972656 238.847656 " fill-opacity="1" fill-rule="nonzero"/><path fill="#123979" d="M 146.054688 225.421875 L 148.421875 225.421875 L 148.421875 238.847656 L 146.054688 238.847656 Z M 146.054688 225.421875 " fill-opacity="1" fill-rule="nonzero"/><path fill="#123979" d="M 152.0625 225.421875 L 154.257812 225.421875 L 161.46875 234.703125 L 161.46875 225.421875 L 163.796875 225.421875 L 163.796875 238.847656 L 161.816406 238.847656 L 154.390625 229.296875 L 154.390625 238.847656 L 152.0625 238.847656 " fill-opacity="1" fill-rule="nonzero"/><g clip-path="url(#id3)"><path fill="#123979" d="M 166.726562 232.171875 L 166.726562 232.136719 C 166.726562 228.375 169.609375 225.191406 173.667969 225.191406 C 176.015625 225.191406 177.457031 225.84375 178.84375 227.015625 L 177.34375 228.796875 C 173.699219 225.703125 169.207031 227.933594 169.207031 232.097656 L 169.207031 232.136719 C 169.207031 234.898438 171.035156 236.929688 173.785156 236.929688 C 175.054688 236.929688 176.207031 236.527344 177.035156 235.914062 L 177.035156 233.398438 L 173.589844 233.398438 L 173.589844 231.347656 L 179.324219 231.347656 L 179.324219 236.984375 C 174.507812 241.09375 166.726562 238.984375 166.726562 232.171875 " fill-opacity="1" fill-rule="nonzero"/></g><path fill="#123979" d="M 187.609375 236.699219 C 193.890625 236.699219 193.8125 227.570312 187.609375 227.570312 L 184.957031 227.570312 L 184.957031 236.699219 Z M 182.589844 225.421875 L 187.609375 225.421875 C 197.214844 225.421875 197.085938 238.847656 187.609375 238.847656 L 182.589844 238.847656 Z M 182.589844 225.421875 " fill-opacity="1" fill-rule="nonzero"/><g clip-path="url(#id4)"><path fill="#123979" d="M 208.578125 232.171875 L 208.578125 232.136719 C 208.578125 229.527344 206.675781 227.359375 204 227.359375 C 201.328125 227.359375 199.460938 229.488281 199.460938 232.097656 L 199.460938 232.136719 C 199.460938 234.742188 201.367188 236.910156 204.039062 236.910156 C 206.714844 236.910156 208.578125 234.78125 208.578125 232.171875 M 196.980469 232.171875 L 196.980469 232.136719 C 196.980469 228.355469 199.90625 225.191406 204.039062 225.191406 C 208.175781 225.191406 211.058594 228.320312 211.058594 232.097656 L 211.058594 232.136719 C 211.058594 235.914062 208.136719 239.078125 204 239.078125 C 199.867188 239.078125 196.980469 235.949219 196.980469 232.171875 " fill-opacity="1" fill-rule="nonzero"/></g><path fill="#123979" d="M 214 225.421875 L 216.519531 225.421875 L 220.613281 231.769531 L 224.710938 225.421875 L 227.230469 225.421875 L 227.230469 238.847656 L 224.863281 238.847656 L 224.863281 229.21875 L 220.613281 235.546875 L 220.539062 235.546875 L 216.324219 229.257812 L 216.324219 238.847656 L 214 238.847656 " fill-opacity="1" fill-rule="nonzero"/><g clip-path="url(#id5)"><path fill="#123979" d="M 247.46875 232.171875 L 247.46875 232.136719 C 247.46875 229.527344 245.566406 227.359375 242.890625 227.359375 C 240.21875 227.359375 238.355469 229.488281 238.355469 232.097656 L 238.355469 232.136719 C 238.355469 234.742188 240.257812 236.910156 242.929688 236.910156 C 245.605469 236.910156 247.46875 234.78125 247.46875 232.171875 M 235.871094 232.171875 L 235.871094 232.136719 C 235.871094 228.355469 238.796875 225.191406 242.929688 225.191406 C 247.066406 225.191406 249.953125 228.320312 249.953125 232.097656 L 249.953125 232.136719 C 249.953125 235.914062 247.027344 239.078125 242.890625 239.078125 C 238.757812 239.078125 235.871094 235.949219 235.871094 232.171875 " fill-opacity="1" fill-rule="nonzero"/></g><path fill="#123979" d="M 252.890625 225.421875 L 262.910156 225.421875 L 262.910156 227.570312 L 255.257812 227.570312 L 255.257812 231.234375 L 262.046875 231.234375 L 262.046875 233.378906 L 255.257812 233.378906 L 255.257812 238.847656 L 252.890625 238.847656 " fill-opacity="1" fill-rule="nonzero"/><g clip-path="url(#id6)"><path fill="#123979" d="M 270.378906 236.890625 L 271.800781 235.203125 C 273.089844 236.316406 274.378906 236.949219 276.050781 236.949219 C 277.511719 236.949219 278.4375 236.277344 278.4375 235.261719 L 278.4375 235.222656 C 278.4375 232.226562 270.914062 234.269531 270.914062 229.164062 L 270.914062 229.125 C 270.914062 225.003906 276.6875 223.953125 280.398438 226.917969 L 279.128906 228.703125 C 276.03125 226.398438 273.28125 227.304688 273.28125 228.914062 L 273.28125 228.953125 C 273.28125 231.910156 280.800781 230.039062 280.800781 234.992188 L 280.800781 235.03125 C 280.800781 239.738281 274.121094 240.222656 270.378906 236.890625 " fill-opacity="1" fill-rule="nonzero"/></g><path fill="#123979" d="M 291.4375 233.515625 L 289.109375 228.144531 L 286.800781 233.515625 Z M 288.050781 225.328125 L 290.242188 225.328125 L 296.167969 238.847656 L 293.667969 238.847656 L 292.300781 235.605469 L 285.933594 235.605469 L 284.550781 238.847656 L 282.128906 238.847656 Z M 288.050781 225.328125 " fill-opacity="1" fill-rule="nonzero"/><g clip-path="url(#id7)"><path fill="#123979" d="M 297.558594 233.152344 L 297.558594 225.421875 L 299.925781 225.421875 L 299.925781 233.054688 C 299.925781 235.550781 301.214844 236.890625 303.328125 236.890625 C 305.425781 236.890625 306.714844 235.625 306.714844 233.152344 L 306.714844 225.421875 L 309.082031 225.421875 L 309.082031 233.039062 C 309.082031 237.046875 306.808594 239.058594 303.289062 239.058594 C 299.789062 239.058594 297.558594 237.046875 297.558594 233.152344 " fill-opacity="1" fill-rule="nonzero"/></g><path fill="#123979" d="M 317.5625 236.699219 C 323.839844 236.699219 323.765625 227.570312 317.5625 227.570312 L 314.910156 227.570312 L 314.910156 236.699219 Z M 312.542969 225.421875 L 317.5625 225.421875 C 327.167969 225.421875 327.039062 238.847656 317.5625 238.847656 L 312.542969 238.847656 Z M 312.542969 225.421875 " fill-opacity="1" fill-rule="nonzero"/><path fill="#123979" d="M 327.714844 225.421875 L 330.078125 225.421875 L 330.078125 238.847656 L 327.714844 238.847656 Z M 327.714844 225.421875 " fill-opacity="1" fill-rule="nonzero"/><path fill="#123979" d="M 347.605469 233.515625 L 345.277344 228.144531 L 342.96875 233.515625 Z M 344.21875 225.328125 L 346.410156 225.328125 L 352.335938 238.847656 L 349.835938 238.847656 L 348.46875 235.605469 L 342.101562 235.605469 L 340.71875 238.847656 L 338.292969 238.847656 Z M 344.21875 225.328125 " fill-opacity="1" fill-rule="nonzero"/><path fill="#123979" d="M 360.398438 232.078125 C 362.089844 232.078125 363.167969 231.195312 363.167969 229.832031 L 363.167969 229.792969 C 363.167969 228.355469 362.128906 227.570312 360.378906 227.570312 L 356.9375 227.570312 L 356.9375 232.078125 Z M 354.570312 225.421875 L 360.570312 225.421875 C 363.414062 225.421875 365.570312 226.851562 365.570312 229.660156 C 365.515625 229.808594 365.851562 232.769531 362.359375 233.765625 L 365.992188 238.847656 L 363.203125 238.847656 L 359.898438 234.167969 C 359.636719 234.167969 356.785156 234.167969 356.9375 234.167969 L 356.9375 238.847656 L 354.570312 238.847656 Z M 354.570312 225.421875 " fill-opacity="1" fill-rule="nonzero"/><path fill="#123979" d="M 377.042969 233.515625 L 374.714844 228.144531 L 372.40625 233.515625 Z M 373.65625 225.328125 L 375.851562 225.328125 L 381.773438 238.847656 L 379.273438 238.847656 L 377.910156 235.605469 L 371.542969 235.605469 L 370.160156 238.847656 L 367.734375 238.847656 Z M 373.65625 225.328125 " fill-opacity="1" fill-rule="nonzero"/><path fill="#123979" d="M 390.257812 236.757812 C 391.875 236.757812 392.855469 236.125 392.855469 234.914062 L 392.855469 234.878906 C 392.855469 233.746094 391.953125 233.074219 390.085938 233.074219 L 386.335938 233.074219 L 386.335938 236.757812 Z M 389.566406 231.082031 C 391.085938 231.082031 392.105469 230.484375 392.105469 229.257812 L 392.105469 229.21875 C 392.105469 228.164062 391.257812 227.511719 389.738281 227.511719 L 386.335938 227.511719 L 386.335938 231.082031 Z M 384.007812 225.421875 L 390.046875 225.421875 C 392.414062 225.421875 394.472656 226.527344 394.472656 228.835938 C 394.417969 228.984375 394.714844 230.746094 392.546875 231.867188 C 394.125 232.402344 395.222656 233.304688 395.222656 235.125 L 395.222656 235.164062 C 395.222656 237.5625 393.242188 238.847656 390.238281 238.847656 L 384.007812 238.847656 Z M 384.007812 225.421875 " fill-opacity="1" fill-rule="nonzero"/><path fill="#123979" d="M 398.152344 225.421875 L 400.515625 225.421875 L 400.515625 238.847656 L 398.152344 238.847656 Z M 398.152344 225.421875 " fill-opacity="1" fill-rule="nonzero"/><path fill="#123979" d="M 412.085938 233.515625 L 409.757812 228.144531 L 407.449219 233.515625 Z M 408.699219 225.328125 L 410.890625 225.328125 L 416.816406 238.847656 L 414.316406 238.847656 L 412.949219 235.605469 L 406.582031 235.605469 L 405.199219 238.847656 L 402.773438 238.847656 Z M 408.699219 225.328125 " fill-opacity="1" fill-rule="nonzero"/><path fill="#123979" d="M 554.949219 82.066406 L 536.164062 82.066406 C 530.699219 82.066406 527.210938 87.675781 529.789062 92.3125 L 590.4375 201.457031 C 593.191406 206.410156 600.585938 206.347656 603.25 201.351562 L 611.367188 186.097656 C 612.429688 184.105469 612.429688 181.742188 611.367188 179.75 L 561.382812 85.855469 C 560.148438 83.527344 557.664062 82.066406 554.949219 82.066406 " fill-opacity="1" fill-rule="nonzero"/><path fill="#123979" d="M 580.90625 95.460938 L 641.3125 202.082031 C 645.046875 208.675781 655.019531 208.277344 658.175781 201.40625 L 682.015625 149.449219 C 682.566406 148.246094 682.839844 146.945312 682.816406 145.628906 L 682.707031 139.644531 C 682.683594 138.257812 682.328125 136.898438 681.671875 135.664062 L 655.710938 86.988281 C 654.101562 83.964844 650.871094 82.066406 647.34375 82.066406 L 636.71875 82.066406 C 629.460938 82.066406 624.9375 89.644531 628.589844 95.683594 L 655.917969 140.820312 C 657.53125 143.488281 657.625 146.765625 656.160156 149.511719 C 652.664062 156.085938 642.898438 156.078125 639.410156 149.496094 L 606.296875 87.007812 C 604.691406 83.976562 601.453125 82.066406 597.917969 82.066406 L 589.164062 82.066406 C 582.023438 82.066406 577.488281 89.425781 580.90625 95.460938 " fill-opacity="1" fill-rule="nonzero"/><path fill="#123979" d="M 681.15625 82.066406 L 706.941406 82.066406 C 710.730469 82.066406 713.199219 85.902344 711.511719 89.167969 L 698.617188 114.101562 C 696.738281 117.734375 691.359375 117.734375 689.480469 114.101562 L 676.589844 89.167969 C 674.902344 85.902344 677.367188 82.066406 681.15625 82.066406 " fill-opacity="1" fill-rule="nonzero"/><path fill="#123979" d="M 833.003906 85.019531 C 827.511719 89.800781 827.511719 98.34375 833.003906 103.128906 L 861.273438 127.726562 C 865.917969 131.765625 872.863281 131.628906 877.34375 127.40625 L 877.789062 126.984375 C 883.007812 122.066406 882.773438 113.691406 877.289062 109.070312 L 848.578125 84.894531 C 844.0625 81.09375 837.457031 81.144531 833.003906 85.019531 " fill-opacity="1" fill-rule="nonzero"/><path fill="#123979" d="M 819.84375 75.660156 L 789.625 75.660156 C 789.089844 75.660156 788.570312 75.851562 788.160156 76.199219 L 747.109375 111.210938 C 743.871094 113.972656 743.8125 118.960938 746.980469 121.800781 L 812.457031 180.4375 C 813.304688 181.195312 814.582031 181.207031 815.441406 180.460938 L 831.238281 166.773438 C 832.269531 165.882812 832.28125 164.289062 831.269531 163.378906 L 781.792969 119.0625 C 780.953125 118.328125 780.929688 117.144531 781.746094 116.390625 L 821.386719 79.59375 C 822.898438 78.191406 821.90625 75.660156 819.84375 75.660156 " fill-opacity="1" fill-rule="nonzero"/><path fill="#123979" d="M 752.144531 155.386719 L 751.945312 155.558594 C 746.140625 160.609375 746.101562 169.625 751.859375 174.730469 L 778.535156 198.367188 C 783.398438 202.679688 790.726562 202.632812 795.535156 198.257812 C 801.121094 193.179688 801.097656 184.378906 795.484375 179.332031 L 769.007812 155.523438 C 764.226562 151.222656 756.992188 151.164062 752.144531 155.386719 " fill-opacity="1" fill-rule="nonzero"/><path fill="#123979" d="M 815.433594 102.589844 L 881.609375 160.226562 C 884.765625 162.972656 884.753906 167.878906 881.585938 170.613281 L 839.859375 206.628906 C 839.453125 206.984375 838.929688 207.179688 838.386719 207.179688 L 807.363281 207.179688 C 805.3125 207.179688 804.324219 204.660156 805.824219 203.261719 L 844.808594 166.933594 C 845.910156 165.90625 845.878906 164.304688 844.738281 163.3125 L 795.828125 120.753906 C 794.800781 119.855469 794.792969 118.257812 795.8125 117.351562 L 812.453125 102.605469 C 813.304688 101.851562 814.578125 101.847656 815.433594 102.589844 " fill-opacity="1" fill-rule="nonzero"/><g clip-path="url(#id8)"><path fill="#ff362b" d="M 1006.78125 108.6875 L 937.015625 108.6875 C 928.839844 108.6875 922.214844 102.050781 922.214844 93.871094 C 922.214844 85.6875 928.839844 79.050781 937.015625 79.050781 L 1006.78125 79.050781 C 1014.957031 79.050781 1021.582031 85.6875 1021.582031 93.871094 C 1021.582031 102.050781 1014.957031 108.6875 1006.78125 108.6875 " fill-opacity="1" fill-rule="nonzero"/></g><path fill="#ff362b" d="M 1003.472656 130.144531 L 937.777344 130.144531 C 929.183594 130.144531 922.214844 135.734375 922.214844 142.628906 L 922.214844 194.320312 C 922.214844 201.214844 929.183594 206.800781 937.777344 206.800781 L 1003.472656 206.800781 C 1012.066406 206.800781 1019.035156 201.214844 1019.035156 194.320312 C 1019.035156 187.433594 1012.085938 181.851562 1003.507812 181.835938 L 970.917969 181.777344 C 962.566406 181.761719 955.722656 176.464844 955.402344 169.773438 L 955.328125 168.28125 C 954.988281 161.152344 962.148438 155.242188 971.042969 155.320312 L 1003.308594 155.589844 C 1011.964844 155.664062 1019.035156 150.054688 1019.035156 143.109375 L 1019.035156 142.628906 C 1019.035156 135.734375 1012.066406 130.144531 1003.472656 130.144531 " fill-opacity="1" fill-rule="nonzero"/><path stroke-linecap="butt" transform="matrix(0.000000000000000078, 1.271334, -1.553757, 0.000000000000000095, 477.847304, 12.26791)" fill="none" stroke-linejoin="miter" d="M 0.00127539 -0.000226703 L 207.374567 -0.000226703 " stroke="#123979" stroke-width="1" stroke-opacity="1" stroke-miterlimit="4"/></svg>